<svg width="60" height="50" viewBox="0 0 60 50" fill="none" xmlns="http://www.w3.org/2000/svg">
<path d="M41.1176 11.9017C37.0707 11.9017 33.2419 13.1511 30 15.5208C27.9797 14.0441 25.7316 13.0029 23.3446 12.4277L28.4177 6.61383C28.4195 6.61184 28.4207 6.60949 28.4223 6.6075C28.4524 6.57246 28.4793 6.53496 28.5035 6.49559C28.5074 6.48926 28.5112 6.48305 28.515 6.47672C28.5375 6.43793 28.5572 6.3975 28.5737 6.3552C28.5763 6.34863 28.5785 6.34207 28.581 6.33539C28.5964 6.29285 28.6093 6.24902 28.6181 6.20379C28.6189 6.19969 28.6193 6.19559 28.62 6.1916C28.6276 6.1493 28.632 6.10606 28.6334 6.06199C28.6336 6.05613 28.6342 6.05039 28.6342 6.04453C28.6342 6.04137 28.6346 6.0382 28.6346 6.03504C28.6346 5.99297 28.6307 5.95184 28.625 5.91152C28.6239 5.90355 28.6228 5.89582 28.6214 5.88785C28.6139 5.8432 28.6034 5.79961 28.5893 5.75766C28.5874 5.75215 28.5852 5.74676 28.5833 5.74125C28.5674 5.69637 28.5486 5.65277 28.526 5.61164L28.523 5.60648C28.4986 5.56277 28.4706 5.52141 28.4393 5.48273L28.4368 5.4791L28.4336 5.47512L24.5098 0.658477C24.3425 0.453164 24.0916 0.333984 23.8269 0.333984H20.8389H16.9254H13.9376C13.6727 0.333984 13.422 0.453164 13.2547 0.658477L9.33105 5.47441L9.32777 5.4784L9.32531 5.48203C9.29402 5.5207 9.26613 5.56207 9.24164 5.60578L9.23859 5.61094C9.21598 5.65219 9.19723 5.69578 9.18129 5.74055C9.1793 5.74606 9.17707 5.75145 9.17531 5.75695C9.16137 5.79902 9.15082 5.84262 9.1432 5.88715C9.14191 5.895 9.14074 5.90285 9.13957 5.91082C9.13383 5.95137 9.12996 5.99227 9.12996 6.03434C9.12996 6.03762 9.13043 6.04066 9.13043 6.04383C9.13055 6.04969 9.13113 6.05543 9.13125 6.06129C9.13254 6.10547 9.13699 6.14871 9.14461 6.1909C9.14531 6.195 9.14566 6.1991 9.14648 6.20309C9.15527 6.24844 9.16816 6.29227 9.18363 6.33469C9.18609 6.34137 9.18832 6.34793 9.1909 6.35449C9.20742 6.3968 9.22711 6.43723 9.24961 6.47602C9.25324 6.48234 9.25723 6.48855 9.26109 6.49488C9.28535 6.53437 9.31242 6.57176 9.34231 6.6068C9.34406 6.60879 9.34512 6.61113 9.34688 6.61312L14.4257 12.4338C6.15785 14.4427 0 21.9071 0 30.7841C0 41.196 8.47066 49.6665 18.8823 49.6665C22.9291 49.6665 26.758 48.4171 30 46.0474C33.2419 48.417 37.0706 49.6665 41.1177 49.6665C51.5295 49.6665 60 41.1959 60 30.7841C60 20.3723 51.5293 11.9017 41.1176 11.9017ZM23.4086 2.09484L25.9005 5.15391H23.0346L22.0484 2.09484H23.4086ZM23.0208 6.91535H25.8166L21.3301 12.0572C21.3029 12.0538 21.2761 12.0499 21.2491 12.0465L23.0208 6.91535ZM17.5671 2.09473H20.1976L21.1839 5.15379H16.5809L17.5671 2.09473ZM21.1573 6.91547L19.4326 11.9105C19.2497 11.9053 19.0664 11.9018 18.8825 11.9018C18.7696 11.9018 18.6537 11.9036 18.5359 11.9061C18.468 11.9073 18.4001 11.9084 18.3322 11.9104L16.6076 6.91547H21.1573ZM14.3563 2.09473H15.7162L14.7301 5.15379H11.8643L14.3563 2.09473ZM11.9482 6.91547H14.7439L16.5168 12.0496C16.4902 12.053 16.4636 12.0564 16.4371 12.0598L11.9482 6.91547ZM18.8823 47.9048C9.44191 47.9048 1.76156 40.2245 1.76156 30.7841C1.76156 22.2439 8.04703 15.1446 16.2347 13.8682C16.4391 13.8364 16.6443 13.8088 16.8502 13.7844C16.8758 13.7814 16.9017 13.7784 16.9275 13.7755C17.2041 13.744 17.4816 13.7211 17.7592 13.703C17.7635 13.7027 17.7677 13.7036 17.7721 13.7032C17.9769 13.6901 18.1646 13.6805 18.3416 13.6738C18.522 13.668 18.7023 13.6632 18.8822 13.6632C19.2425 13.6632 19.6003 13.6861 19.9895 13.7112C20.0085 13.7123 20.0275 13.7129 20.0462 13.7129C20.0604 13.7129 20.0742 13.7104 20.0883 13.7096C20.5588 13.745 21.038 13.8004 21.5345 13.8776C21.5797 13.8846 21.6251 13.888 21.67 13.888L21.6757 13.8877C24.507 14.3477 27.1571 15.5102 29.4554 17.3173C29.6921 17.5034 29.9242 17.6961 30.1513 17.8949C30.3724 18.0885 30.5885 18.2882 30.7997 18.4931C30.9137 18.6039 31.0266 18.7159 31.1375 18.8297C31.4542 19.1543 31.758 19.4914 32.048 19.84C34.5983 22.9045 36.003 26.7913 36.003 30.784C36.003 34.4914 34.7919 38.1075 32.5772 41.0588C32.5725 41.0548 32.5676 41.051 32.5628 41.0471C32.4409 40.9453 32.3207 40.8416 32.2023 40.7355C32.1796 40.7152 32.1574 40.6937 32.1348 40.6731C32.04 40.587 31.9461 40.5 31.8538 40.4112C31.8134 40.3723 31.7741 40.3324 31.7341 40.2929C31.6608 40.2206 31.5877 40.1479 31.5161 40.0738C31.4727 40.0289 31.43 39.9833 31.3874 39.938C31.3206 39.8671 31.2543 39.7955 31.189 39.723C31.1691 39.701 31.1495 39.6784 31.1297 39.6562C32.5512 37.6962 33.4843 35.4189 33.8402 33.0268C33.9117 32.5457 33.5798 32.0975 33.0988 32.0261C32.617 31.9542 32.1695 32.2866 32.098 32.7675C31.8091 34.7088 31.088 36.5641 29.9982 38.196C28.5275 36.0029 27.7555 33.4632 27.7555 30.7839C27.7555 28.1045 28.5277 25.5648 29.9982 23.3719C31.2033 25.1745 31.9514 27.2373 32.1737 29.4032C32.2204 29.8566 32.6029 30.1941 33.0489 30.1941C33.079 30.1941 33.1093 30.1925 33.1399 30.1894C33.6239 30.1397 33.9758 29.707 33.9261 29.2232C33.6295 26.3333 32.5093 23.6043 30.6871 21.3311C29.9537 20.4163 29.1169 19.5894 28.1946 18.8678C28.0629 18.7646 27.9293 18.6636 27.7942 18.5651C25.193 16.6649 22.1113 15.6604 18.8823 15.6604C15.2432 15.6604 11.7264 16.9717 8.97996 19.3526C8.61246 19.6712 8.57285 20.2275 8.89137 20.595C9.21 20.9625 9.76629 21.0021 10.1338 20.6836C12.5599 18.5802 15.6668 17.4219 18.8822 17.4219C21.4279 17.4219 23.8686 18.1302 25.9973 19.4748C23.5652 22.7261 22.2349 26.7045 22.2349 30.7838C22.2349 34.8629 23.5652 38.8414 25.9973 42.0927C23.8686 43.4373 21.4279 44.1456 18.8822 44.1456C11.5144 44.1456 5.52035 38.1514 5.52035 30.7838C5.52035 28.0437 6.34348 25.4107 7.90066 23.1694C8.17828 22.77 8.07938 22.2211 7.67988 21.9435C7.28039 21.6657 6.7316 21.7648 6.4541 22.1643C4.69078 24.7021 3.75879 27.6826 3.75879 30.7838C3.75879 39.1228 10.5431 45.9071 18.8822 45.9071C21.8393 45.9071 24.6725 45.0649 27.1266 43.4636C27.1481 43.4873 27.1706 43.5104 27.1923 43.534C27.2503 43.5973 27.309 43.66 27.368 43.7225C27.4243 43.7825 27.4808 43.8423 27.5381 43.9016C27.598 43.9636 27.6587 44.0249 27.7194 44.0861C27.7773 44.1444 27.8352 44.2027 27.8938 44.2602C27.9553 44.3205 28.0175 44.3801 28.0798 44.4396C28.1392 44.4963 28.1985 44.5532 28.2586 44.6092C28.3215 44.6678 28.3853 44.7255 28.449 44.7832C28.4914 44.8216 28.5329 44.8609 28.5755 44.8989C25.7209 46.8694 22.3921 47.9048 18.8823 47.9048ZM41.1176 47.9048C37.2408 47.9048 33.5845 46.6413 30.5443 44.2509C29.5975 43.5062 28.725 42.6575 27.9516 41.7281C25.4012 38.6633 23.9966 34.7768 23.9966 30.7841C23.9966 27.0768 25.2076 23.4607 27.4225 20.5093C27.427 20.5131 27.4317 20.5167 27.4363 20.5205C27.5584 20.6223 27.6787 20.7262 27.7972 20.8324C27.8208 20.8535 27.8436 20.8757 27.8671 20.897C27.9611 20.9824 28.0542 21.0687 28.1457 21.1568C28.1866 21.1962 28.2265 21.2366 28.2669 21.2766C28.3396 21.3483 28.4121 21.4205 28.4831 21.4938C28.5272 21.5393 28.5703 21.5856 28.6136 21.6316C28.6795 21.7018 28.7452 21.7725 28.8097 21.8441C28.83 21.8666 28.85 21.8896 28.8701 21.9123C27.0107 24.4796 25.9939 27.602 25.9939 30.7842C25.9939 34.2104 27.1725 37.5675 29.3127 40.2368C30.1507 41.2821 31.1241 42.2128 32.2055 43.0029C34.8067 44.9031 37.8885 45.9076 41.1175 45.9076C45.0725 45.9076 48.8133 44.3907 51.6505 41.6366C51.9995 41.2978 52.0078 40.7402 51.6689 40.3911C51.3301 40.042 50.7725 40.0339 50.4234 40.3727C47.9168 42.806 44.6119 44.1461 41.1173 44.1461C38.5717 44.1461 36.1309 43.4377 34.0021 42.093C36.4342 38.8419 37.7645 34.8634 37.7645 30.7841C37.7645 26.7048 36.4342 22.7263 34.0021 19.4752C36.1309 18.1305 38.5717 17.4223 41.1173 17.4223C48.4852 17.4223 54.4792 23.4164 54.4792 30.7841C54.4792 33.2643 53.795 35.6852 52.5006 37.7851C52.2452 38.1993 52.3741 38.7418 52.7882 38.9971C53.2023 39.2524 53.7449 39.1235 54.0001 38.7095C55.466 36.3315 56.2409 33.591 56.2409 30.7841C56.2409 22.445 49.4565 15.6607 41.1175 15.6607C38.1605 15.6607 35.3271 16.5029 32.8731 18.1043C32.8521 18.0812 32.8303 18.0587 32.8092 18.0357C32.7496 17.9707 32.6893 17.9063 32.6287 17.8419C32.5739 17.7837 32.5191 17.7255 32.4635 17.668C32.4019 17.6043 32.3395 17.5412 32.277 17.4783C32.2208 17.4218 32.1648 17.3653 32.108 17.3095C32.0446 17.2473 31.9805 17.1859 31.9161 17.1245C31.8586 17.0695 31.8012 17.0146 31.743 16.9604C31.6779 16.8997 31.6118 16.8398 31.5456 16.7801C31.5048 16.7432 31.4651 16.7054 31.4241 16.669C34.2789 14.6991 37.6076 13.6636 41.1175 13.6636C50.5578 13.6636 58.2382 21.3439 58.2382 30.7843C58.2384 40.2245 50.5581 47.9048 41.1176 47.9048Z" fill="#2D2C38"/>
</svg>
