<svg width="57" height="60" viewBox="0 0 57 60" fill="none" xmlns="http://www.w3.org/2000/svg">
<mask id="path-1-inside-1_4027_4644" fill="white">
<path d="M53.1344 7.34952C53.1895 6.87678 53.2385 6.40112 53.2813 5.92311C55.1162 5.5596 56.4996 3.94171 56.4996 2.00004C56.4996 1.5416 56.423 1.09394 56.2737 0.670546C56.1327 0.270703 55.755 0.0032814 55.3311 0.00304702L49.6712 1.54341e-07C49.2476 -0.00023422 48.8698 0.266484 48.7282 0.665741C48.5774 1.09101 48.4997 1.54031 48.4997 1.99992C48.4997 3.78456 49.6692 5.29581 51.283 5.81073C51.2463 6.21432 51.205 6.61592 51.1593 7.01542C49.11 7.18862 47.5002 8.90623 47.5002 10.9999C47.5002 12.5611 48.3949 13.9122 49.6991 14.5712C49.5584 15.0779 49.4094 15.5778 49.2537 16.0718C49.0096 16.0252 48.7579 15.9999 48.5002 15.9999C46.2912 15.9999 44.5002 17.7914 44.5002 19.9999C44.5002 21.3594 45.179 22.5596 46.2154 23.2824C46.0492 23.5873 45.8798 23.8886 45.7066 24.1855C45.3259 24.0651 44.9208 23.9998 44.5002 23.9998C42.2912 23.9998 40.5003 25.7913 40.5003 27.9998C40.5003 28.8118 40.7428 29.5668 41.1585 30.1975C40.8545 30.504 40.5464 30.7986 40.2344 31.0817C39.519 30.4111 38.5579 29.9997 37.5003 29.9997C35.2913 29.9997 33.5003 31.7911 33.5003 33.9997C33.5003 34.3849 33.5559 34.7569 33.6575 35.1093C33.1833 35.2756 32.7054 35.4194 32.224 35.5394C31.6404 34.0529 30.1938 32.9996 28.5003 32.9996C26.807 32.9996 25.3604 34.0527 24.7768 35.5389C24.2947 35.4188 23.8168 35.2751 23.3432 35.109C23.4448 34.7566 23.5002 34.3846 23.5002 33.9995C23.5002 31.7909 21.7093 29.9996 19.5003 29.9996C18.4426 29.9996 17.4813 30.411 16.766 31.0817C16.4542 30.7989 16.146 30.5044 15.8417 30.1977C16.2576 29.5669 16.5003 28.8118 16.5003 27.9996C16.5003 25.7909 14.7093 23.9996 12.5003 23.9996C12.0798 23.9996 11.6744 24.0649 11.2936 24.1853C11.1208 23.8891 10.9516 23.5878 10.7851 23.2822C11.8216 22.5594 12.5003 21.3591 12.5003 19.9996C12.5003 17.791 10.7094 15.9997 8.50039 15.9997C8.24282 15.9997 7.99122 16.025 7.74723 16.0715C7.59114 15.5766 7.44219 15.0767 7.30169 14.5709C8.60575 13.9119 9.50047 12.5608 9.50047 10.9997C9.50047 8.906 7.89067 7.18827 5.8413 7.01518C5.79548 6.61463 5.75423 6.21303 5.71778 5.81038C7.33157 5.29534 8.50086 3.78409 8.50086 1.99957C8.50086 1.53996 8.42317 1.09066 8.27235 0.665389C8.13043 0.266484 7.75262 -0.00023422 7.32899 1.54341e-07L1.66896 0.00304702C1.2451 0.0032814 0.867284 0.270703 0.726425 0.670546C0.577129 1.09394 0.500488 1.5416 0.500488 2.00004C0.500488 3.94183 1.884 5.55972 3.71904 5.92323C3.76146 6.40006 3.81033 6.87561 3.86564 7.34963C2.4717 7.97483 1.5001 9.37381 1.5001 11.0001C1.5001 13.1571 3.20728 14.9142 5.34419 14.9962C5.52489 15.6528 5.71872 16.301 5.92462 16.9407C5.0538 17.6745 4.50009 18.7726 4.50009 20.0001C4.50009 22.2094 6.29083 24.0001 8.50004 24.0001C8.63082 24.0001 8.75996 23.9933 8.88746 23.9811C9.11809 24.4123 9.35516 24.8348 9.59785 25.2493C8.91793 25.9664 8.50004 26.9342 8.50004 28.0001C8.50004 30.2095 10.2908 32.0001 12.5 32.0001C13.1707 32.0001 13.8023 31.8343 14.3575 31.5426C14.7917 31.983 15.2341 32.4013 15.6841 32.7983C15.5647 33.1777 15.5 33.5813 15.5 34.0001C15.5 36.2095 17.2907 38.0001 19.4999 38.0001C20.5896 38.0001 21.5769 37.5639 22.2981 36.8574C23.034 37.1339 23.7807 37.3614 24.537 37.5386C24.7553 39.16 25.9437 40.4736 27.4998 40.8741V43.1561C26.319 43.5337 25.4167 44.5628 25.2443 45.8493L23.8532 56.282C23.5901 58.2504 25.1227 60.0001 27.1094 60.0001H29.8904C31.8767 60.0001 33.4083 58.251 33.1466 56.2823L31.7556 45.85C31.5831 44.5633 30.6807 43.5341 29.4998 43.1563V40.8741C31.0558 40.4737 32.2441 39.1603 32.4626 37.5392C33.2179 37.3621 33.9648 37.1345 34.7018 36.8576C35.4232 37.564 36.4103 38.0001 37.4998 38.0001C39.7091 38.0001 41.4997 36.2093 41.4997 34.0001C41.4997 33.5813 41.4351 33.1776 41.3155 32.7981C41.766 32.4008 42.2083 31.9824 42.6417 31.5424C43.197 31.8342 43.8288 32.0001 44.4997 32.0001C46.7091 32.0001 48.4997 30.2094 48.4997 28.0001C48.4997 26.9342 48.0817 25.9661 47.4016 25.2491C47.645 24.8335 47.8823 24.4112 48.1124 23.9811C48.2399 23.9934 48.369 24.0001 48.4997 24.0001C50.709 24.0001 52.4996 22.2093 52.4996 20.0001C52.4996 18.7727 51.9459 17.6748 51.0753 16.9409C51.2808 16.3027 51.4746 15.6543 51.6557 14.9962C53.7925 14.9141 55.4996 13.1571 55.4996 11.0001C55.5 9.37381 54.5284 7.97471 53.1344 7.34952ZM2.50052 2.0025L6.50048 2.00039C6.50024 3.10453 5.60446 3.99995 4.50044 3.99995C3.39665 3.99995 2.50193 3.10605 2.50052 2.0025ZM3.50013 11.0001C3.50013 9.896 4.39579 9.0001 5.50017 9.0001C6.60454 9.0001 7.50008 9.896 7.50008 11.0001C7.50008 12.1049 6.60477 13.0002 5.50005 13.0002C4.39544 13.0001 3.50013 12.1047 3.50013 11.0001ZM6.50012 20.0001C6.50012 18.896 7.39579 18.0001 8.50016 18.0001C9.60453 18.0001 10.5002 18.896 10.5002 20.0001C10.5002 21.1048 9.60488 22.0002 8.50016 22.0002C7.39544 22.0002 6.50012 21.1047 6.50012 20.0001ZM10.5001 28C10.5001 26.8959 11.3957 26 12.5001 26C13.6045 26 14.5001 26.8959 14.5001 28C14.5001 29.1047 13.6048 30.0001 12.5001 30.0001C11.3954 30.0001 10.5001 29.1047 10.5001 28ZM19.5001 36C18.3953 36 17.5 35.1047 17.5 34C17.5 32.8959 18.3957 32 19.5001 32C20.6043 32 21.5001 32.8959 21.5001 34C21.5001 35.1047 20.6048 36 19.5001 36ZM31.1644 56.5461C31.2667 57.3157 30.6677 58 29.8906 58H27.1096C26.3323 58 25.733 57.3157 25.8358 56.5465L27.2268 46.1141C27.3122 45.4765 27.8563 44.9999 28.4996 44.9999C29.1432 44.9999 29.688 45.4767 29.7734 46.1147L31.1644 56.5461ZM28.5 39C27.3953 39 26.5 38.1047 26.5 37C26.5 36.9346 26.5036 36.8702 26.5097 36.8064C26.51 36.8043 26.5099 36.8022 26.5101 36.8001C26.6105 35.7898 27.4632 35 28.4999 35C29.6043 35 30.5 35.8959 30.5 37C30.5001 38.1047 29.6048 39 28.5 39ZM37.5 36C36.3953 36 35.5 35.1047 35.5 34C35.5 32.8959 36.3956 32 37.5 32C38.6044 32 39.5001 32.8959 39.5001 34C39.5001 35.1047 38.6047 36 37.5 36ZM44.5001 30.0001C43.3954 30.0001 42.5001 29.1047 42.5001 28C42.5001 26.8959 43.3957 26 44.5001 26C45.6045 26 46.5001 26.8959 46.5001 28C46.5 29.1047 45.6048 30.0001 44.5001 30.0001ZM48.5 22C47.3953 22 46.5 21.1047 46.5 20C46.5 18.8959 47.3957 18 48.5 18C49.6043 18 50.5001 18.8959 50.5001 20C50.5001 21.1047 49.6048 22 48.5 22ZM50.4996 2.00039L54.4996 2.0025C54.4982 3.10605 53.6034 3.99995 52.4995 3.99995C51.3957 3.99995 50.4998 3.10453 50.4996 2.00039ZM51.5 13.0001C50.3953 13.0001 49.5 12.1047 49.5 11C49.5 9.89588 50.3957 8.99998 51.5 8.99998C52.6044 8.99998 53.5001 9.89588 53.5001 11C53.5001 12.1047 52.6048 13.0001 51.5 13.0001Z"/>
</mask>
<path d="M53.1344 7.34952C53.1895 6.87678 53.2385 6.40112 53.2813 5.92311C55.1162 5.5596 56.4996 3.94171 56.4996 2.00004C56.4996 1.5416 56.423 1.09394 56.2737 0.670546C56.1327 0.270703 55.755 0.0032814 55.3311 0.00304702L49.6712 1.54341e-07C49.2476 -0.00023422 48.8698 0.266484 48.7282 0.665741C48.5774 1.09101 48.4997 1.54031 48.4997 1.99992C48.4997 3.78456 49.6692 5.29581 51.283 5.81073C51.2463 6.21432 51.205 6.61592 51.1593 7.01542C49.11 7.18862 47.5002 8.90623 47.5002 10.9999C47.5002 12.5611 48.3949 13.9122 49.6991 14.5712C49.5584 15.0779 49.4094 15.5778 49.2537 16.0718C49.0096 16.0252 48.7579 15.9999 48.5002 15.9999C46.2912 15.9999 44.5002 17.7914 44.5002 19.9999C44.5002 21.3594 45.179 22.5596 46.2154 23.2824C46.0492 23.5873 45.8798 23.8886 45.7066 24.1855C45.3259 24.0651 44.9208 23.9998 44.5002 23.9998C42.2912 23.9998 40.5003 25.7913 40.5003 27.9998C40.5003 28.8118 40.7428 29.5668 41.1585 30.1975C40.8545 30.504 40.5464 30.7986 40.2344 31.0817C39.519 30.4111 38.5579 29.9997 37.5003 29.9997C35.2913 29.9997 33.5003 31.7911 33.5003 33.9997C33.5003 34.3849 33.5559 34.7569 33.6575 35.1093C33.1833 35.2756 32.7054 35.4194 32.224 35.5394C31.6404 34.0529 30.1938 32.9996 28.5003 32.9996C26.807 32.9996 25.3604 34.0527 24.7768 35.5389C24.2947 35.4188 23.8168 35.2751 23.3432 35.109C23.4448 34.7566 23.5002 34.3846 23.5002 33.9995C23.5002 31.7909 21.7093 29.9996 19.5003 29.9996C18.4426 29.9996 17.4813 30.411 16.766 31.0817C16.4542 30.7989 16.146 30.5044 15.8417 30.1977C16.2576 29.5669 16.5003 28.8118 16.5003 27.9996C16.5003 25.7909 14.7093 23.9996 12.5003 23.9996C12.0798 23.9996 11.6744 24.0649 11.2936 24.1853C11.1208 23.8891 10.9516 23.5878 10.7851 23.2822C11.8216 22.5594 12.5003 21.3591 12.5003 19.9996C12.5003 17.791 10.7094 15.9997 8.50039 15.9997C8.24282 15.9997 7.99122 16.025 7.74723 16.0715C7.59114 15.5766 7.44219 15.0767 7.30169 14.5709C8.60575 13.9119 9.50047 12.5608 9.50047 10.9997C9.50047 8.906 7.89067 7.18827 5.8413 7.01518C5.79548 6.61463 5.75423 6.21303 5.71778 5.81038C7.33157 5.29534 8.50086 3.78409 8.50086 1.99957C8.50086 1.53996 8.42317 1.09066 8.27235 0.665389C8.13043 0.266484 7.75262 -0.00023422 7.32899 1.54341e-07L1.66896 0.00304702C1.2451 0.0032814 0.867284 0.270703 0.726425 0.670546C0.577129 1.09394 0.500488 1.5416 0.500488 2.00004C0.500488 3.94183 1.884 5.55972 3.71904 5.92323C3.76146 6.40006 3.81033 6.87561 3.86564 7.34963C2.4717 7.97483 1.5001 9.37381 1.5001 11.0001C1.5001 13.1571 3.20728 14.9142 5.34419 14.9962C5.52489 15.6528 5.71872 16.301 5.92462 16.9407C5.0538 17.6745 4.50009 18.7726 4.50009 20.0001C4.50009 22.2094 6.29083 24.0001 8.50004 24.0001C8.63082 24.0001 8.75996 23.9933 8.88746 23.9811C9.11809 24.4123 9.35516 24.8348 9.59785 25.2493C8.91793 25.9664 8.50004 26.9342 8.50004 28.0001C8.50004 30.2095 10.2908 32.0001 12.5 32.0001C13.1707 32.0001 13.8023 31.8343 14.3575 31.5426C14.7917 31.983 15.2341 32.4013 15.6841 32.7983C15.5647 33.1777 15.5 33.5813 15.5 34.0001C15.5 36.2095 17.2907 38.0001 19.4999 38.0001C20.5896 38.0001 21.5769 37.5639 22.2981 36.8574C23.034 37.1339 23.7807 37.3614 24.537 37.5386C24.7553 39.16 25.9437 40.4736 27.4998 40.8741V43.1561C26.319 43.5337 25.4167 44.5628 25.2443 45.8493L23.8532 56.282C23.5901 58.2504 25.1227 60.0001 27.1094 60.0001H29.8904C31.8767 60.0001 33.4083 58.251 33.1466 56.2823L31.7556 45.85C31.5831 44.5633 30.6807 43.5341 29.4998 43.1563V40.8741C31.0558 40.4737 32.2441 39.1603 32.4626 37.5392C33.2179 37.3621 33.9648 37.1345 34.7018 36.8576C35.4232 37.564 36.4103 38.0001 37.4998 38.0001C39.7091 38.0001 41.4997 36.2093 41.4997 34.0001C41.4997 33.5813 41.4351 33.1776 41.3155 32.7981C41.766 32.4008 42.2083 31.9824 42.6417 31.5424C43.197 31.8342 43.8288 32.0001 44.4997 32.0001C46.7091 32.0001 48.4997 30.2094 48.4997 28.0001C48.4997 26.9342 48.0817 25.9661 47.4016 25.2491C47.645 24.8335 47.8823 24.4112 48.1124 23.9811C48.2399 23.9934 48.369 24.0001 48.4997 24.0001C50.709 24.0001 52.4996 22.2093 52.4996 20.0001C52.4996 18.7727 51.9459 17.6748 51.0753 16.9409C51.2808 16.3027 51.4746 15.6543 51.6557 14.9962C53.7925 14.9141 55.4996 13.1571 55.4996 11.0001C55.5 9.37381 54.5284 7.97471 53.1344 7.34952ZM2.50052 2.0025L6.50048 2.00039C6.50024 3.10453 5.60446 3.99995 4.50044 3.99995C3.39665 3.99995 2.50193 3.10605 2.50052 2.0025ZM3.50013 11.0001C3.50013 9.896 4.39579 9.0001 5.50017 9.0001C6.60454 9.0001 7.50008 9.896 7.50008 11.0001C7.50008 12.1049 6.60477 13.0002 5.50005 13.0002C4.39544 13.0001 3.50013 12.1047 3.50013 11.0001ZM6.50012 20.0001C6.50012 18.896 7.39579 18.0001 8.50016 18.0001C9.60453 18.0001 10.5002 18.896 10.5002 20.0001C10.5002 21.1048 9.60488 22.0002 8.50016 22.0002C7.39544 22.0002 6.50012 21.1047 6.50012 20.0001ZM10.5001 28C10.5001 26.8959 11.3957 26 12.5001 26C13.6045 26 14.5001 26.8959 14.5001 28C14.5001 29.1047 13.6048 30.0001 12.5001 30.0001C11.3954 30.0001 10.5001 29.1047 10.5001 28ZM19.5001 36C18.3953 36 17.5 35.1047 17.5 34C17.5 32.8959 18.3957 32 19.5001 32C20.6043 32 21.5001 32.8959 21.5001 34C21.5001 35.1047 20.6048 36 19.5001 36ZM31.1644 56.5461C31.2667 57.3157 30.6677 58 29.8906 58H27.1096C26.3323 58 25.733 57.3157 25.8358 56.5465L27.2268 46.1141C27.3122 45.4765 27.8563 44.9999 28.4996 44.9999C29.1432 44.9999 29.688 45.4767 29.7734 46.1147L31.1644 56.5461ZM28.5 39C27.3953 39 26.5 38.1047 26.5 37C26.5 36.9346 26.5036 36.8702 26.5097 36.8064C26.51 36.8043 26.5099 36.8022 26.5101 36.8001C26.6105 35.7898 27.4632 35 28.4999 35C29.6043 35 30.5 35.8959 30.5 37C30.5001 38.1047 29.6048 39 28.5 39ZM37.5 36C36.3953 36 35.5 35.1047 35.5 34C35.5 32.8959 36.3956 32 37.5 32C38.6044 32 39.5001 32.8959 39.5001 34C39.5001 35.1047 38.6047 36 37.5 36ZM44.5001 30.0001C43.3954 30.0001 42.5001 29.1047 42.5001 28C42.5001 26.8959 43.3957 26 44.5001 26C45.6045 26 46.5001 26.8959 46.5001 28C46.5 29.1047 45.6048 30.0001 44.5001 30.0001ZM48.5 22C47.3953 22 46.5 21.1047 46.5 20C46.5 18.8959 47.3957 18 48.5 18C49.6043 18 50.5001 18.8959 50.5001 20C50.5001 21.1047 49.6048 22 48.5 22ZM50.4996 2.00039L54.4996 2.0025C54.4982 3.10605 53.6034 3.99995 52.4995 3.99995C51.3957 3.99995 50.4998 3.10453 50.4996 2.00039ZM51.5 13.0001C50.3953 13.0001 49.5 12.1047 49.5 11C49.5 9.89588 50.3957 8.99998 51.5 8.99998C52.6044 8.99998 53.5001 9.89588 53.5001 11C53.5001 12.1047 52.6048 13.0001 51.5 13.0001Z" fill="#2D2C38" stroke="white" stroke-width="0.4" mask="url(#path-1-inside-1_4027_4644)"/>
</svg>
