<svg width="55" height="60" viewBox="0 0 55 60" fill="none" xmlns="http://www.w3.org/2000/svg">
<path fill-rule="evenodd" clip-rule="evenodd" d="M27.2265 42.0288L26.6479 44.1157C26.2656 45.4945 24.6897 46.1472 23.4444 45.4426L21.5597 44.3761L22.6262 46.2608C23.3308 47.5061 22.6781 49.082 21.2993 49.4643L19.2124 50.0429L21.2993 50.6215C22.678 51.0037 23.3308 52.5797 22.6262 53.8249L21.5597 55.7097L23.4444 54.6432C24.6897 53.9385 26.2656 54.5913 26.6479 55.9701L27.2265 58.0569L27.8051 55.9701C28.1873 54.5913 29.7633 53.9385 31.0085 54.6432L32.8933 55.7097L31.8268 53.8249C31.1221 52.5797 31.7749 51.0037 33.1537 50.6215L35.2405 50.0429L33.1537 49.4643C31.7749 49.082 31.1221 47.5061 31.8268 46.2608L32.8933 44.3761L31.0085 45.4426C29.7633 46.1472 28.1873 45.4945 27.8051 44.1157L27.2265 42.0288ZM28.1901 41.0131C27.9192 40.036 26.5337 40.036 26.2628 41.0131L25.4915 43.7951C25.3178 44.4218 24.6014 44.7185 24.0354 44.3982L21.5229 42.9765C20.6404 42.4771 19.6607 43.4568 20.1601 44.3393L21.5818 46.8518C21.9021 47.4178 21.6054 48.1342 20.9787 48.3079L18.1967 49.0792C17.2196 49.3501 17.2196 50.7356 18.1967 51.0065L20.9787 51.7778C21.6054 51.9516 21.9021 52.6679 21.5818 53.234L20.1601 55.7465C19.6607 56.629 20.6404 57.6087 21.5229 57.1093L24.0354 55.6876C24.6014 55.3673 25.3178 55.664 25.4915 56.2907L26.2628 59.0727C26.5337 60.0498 27.9192 60.0498 28.1901 59.0727L28.9614 56.2907C29.1352 55.664 29.8515 55.3673 30.4176 55.6876L32.9301 57.1093C33.8126 57.6087 34.7923 56.629 34.2929 55.7465L32.8712 53.234C32.5509 52.6679 32.8476 51.9516 33.4743 51.7778L36.2563 51.0065C37.2334 50.7356 37.2334 49.3501 36.2563 49.0792L33.4743 48.3079C32.8476 48.1342 32.5509 47.4178 32.8712 46.8518L34.2929 44.3393C34.7923 43.4568 33.8126 42.4771 32.9301 42.9765L30.4176 44.3982C29.8515 44.7185 29.1352 44.4218 28.9614 43.7951L28.1901 41.0131Z" fill="#3B3B48"/>
<path d="M19.1802 30.9902L26.33 40.8168C26.7311 41.3681 27.5541 41.3652 27.9513 40.8111L34.9914 30.9902" stroke="#3B3B48" stroke-width="1.5" stroke-linecap="round"/>
<path d="M16.5107 5.0127V11.8151" stroke="#3B3B48" stroke-miterlimit="10" stroke-linejoin="round"/>
<path d="M17.7159 5.1597H15.3051L14.9009 0H18.1202L17.7159 5.1597Z" stroke="#3B3B48" stroke-miterlimit="10" stroke-linecap="round" stroke-linejoin="round"/>
<path d="M13.3143 8.24631L15.0716 10.5368C15.705 11.3624 16.9456 11.3732 17.5933 10.5588L19.3903 8.29934C19.6427 7.98191 20.1529 8.19845 20.0999 8.60056L19.7229 11.4627C19.587 12.4944 20.4566 13.3793 21.4904 13.2614L24.3588 12.9344C24.7617 12.8885 24.9693 13.4023 24.6476 13.6492L22.3571 15.4065C21.5315 16.0399 21.5207 17.2804 22.3351 17.9281L24.5945 19.7251C24.912 19.9776 24.6954 20.4877 24.2933 20.4347L21.4311 20.0577C20.3995 19.9218 19.5146 20.7914 19.6325 21.8253L19.9595 24.6936C20.0054 25.0966 19.4916 25.3042 19.2447 24.9824L17.4874 22.6919C16.854 21.8663 15.6135 21.8555 14.9657 22.6699L13.1688 24.9294C12.9163 25.2468 12.4062 25.0303 12.4591 24.6281L12.8361 21.766C12.972 20.7343 12.1025 19.8494 11.0686 19.9673L8.20028 20.2943C7.7973 20.3402 7.5897 19.8264 7.91149 19.5795L10.2019 17.8222C11.0275 17.1888 11.0384 15.9483 10.2239 15.3006L7.96451 13.5036C7.64708 13.2511 7.86362 12.741 8.26573 12.7939L11.1279 13.171C12.1596 13.3068 13.0444 12.4373 12.9266 11.4034L12.5996 8.5351C12.5536 8.13213 13.0675 7.92452 13.3143 8.24631Z" stroke="#3B3B48" stroke-width="1.2"/>
<path d="M38.4033 5.0127V11.8151" stroke="#3B3B48" stroke-miterlimit="10" stroke-linejoin="round"/>
<path d="M39.6085 5.1597H37.1977L36.7935 0H40.0128L39.6085 5.1597Z" stroke="#3B3B48" stroke-miterlimit="10" stroke-linecap="round" stroke-linejoin="round"/>
<path d="M35.2069 8.24631L36.9642 10.5368C37.5976 11.3624 38.8382 11.3732 39.4859 10.5588L41.2829 8.29934C41.5353 7.98191 42.0455 8.19845 41.9925 8.60056L41.6155 11.4627C41.4796 12.4944 42.3491 13.3793 43.383 13.2614L46.2513 12.9344C46.6543 12.8885 46.8619 13.4023 46.5401 13.6492L44.2497 15.4065C43.4241 16.0399 43.4133 17.2804 44.2277 17.9281L46.4871 19.7251C46.8045 19.9776 46.588 20.4877 46.1859 20.4347L43.3237 20.0577C42.292 19.9218 41.4072 20.7914 41.5251 21.8253L41.8521 24.6936C41.898 25.0966 41.3842 25.3042 41.1373 24.9824L39.38 22.6919C38.7466 21.8663 37.506 21.8555 36.8583 22.6699L35.0613 24.9294C34.8089 25.2468 34.2987 25.0303 34.3517 24.6281L34.7287 21.766C34.8646 20.7343 33.9951 19.8494 32.9612 19.9673L30.0929 20.2943C29.6899 20.3402 29.4823 19.8264 29.8041 19.5795L32.0945 17.8222C32.9201 17.1888 32.9309 15.9483 32.1165 15.3006L29.8571 13.5036C29.5397 13.2511 29.7562 12.741 30.1583 12.7939L33.0205 13.171C34.0522 13.3068 34.937 12.4373 34.8191 11.4034L34.4921 8.5351C34.4462 8.13213 34.96 7.92452 35.2069 8.24631Z" stroke="#3B3B48" stroke-width="1.2"/>
</svg>
