<svg width="58" height="60" viewBox="0 0 58 60" fill="none" xmlns="http://www.w3.org/2000/svg">
<path d="M23.4512 55.2419C23.3799 55.2419 23.315 55.2354 23.2437 55.216C22.7445 55.0993 22.2389 54.9631 21.7462 54.8205C21.2599 54.6779 20.9877 54.1657 21.1303 53.6795C21.2729 53.1933 21.7851 52.921 22.2713 53.0636C22.7251 53.1998 23.1919 53.3229 23.6586 53.4332C24.1513 53.5499 24.456 54.0426 24.3394 54.5353C24.2486 54.9567 23.8661 55.2419 23.4512 55.2419ZM35.2761 55.216C34.8612 55.216 34.4852 54.9307 34.388 54.5158C34.2713 54.0231 34.576 53.5304 35.0687 53.4137C35.5419 53.3035 36.0087 53.1738 36.456 53.0377C36.9423 52.8951 37.4479 53.1674 37.5971 53.6471C37.7462 54.1333 37.4674 54.639 36.9877 54.7881C36.5014 54.9372 36.0022 55.0669 35.4966 55.19C35.4188 55.203 35.3475 55.216 35.2761 55.216ZM17.1886 52.8756C17.0395 52.8756 16.8969 52.8432 16.7543 52.7654C16.3005 52.5255 15.8531 52.2662 15.4123 51.9939C14.9844 51.7281 14.8483 51.1641 15.1141 50.7362C15.3799 50.3084 15.9439 50.1722 16.3718 50.438C16.7802 50.6909 17.2016 50.9307 17.6165 51.1576C18.0638 51.3975 18.2324 51.9486 17.9925 52.3959C17.8304 52.7006 17.5193 52.8756 17.1886 52.8756ZM41.5322 52.8238C41.2081 52.8238 40.8904 52.6487 40.7283 52.344C40.4885 51.8967 40.6505 51.3456 41.0979 51.1058C41.5193 50.8789 41.9342 50.639 42.3426 50.3862C42.7705 50.1204 43.3345 50.25 43.6003 50.6844C43.8661 51.1123 43.7364 51.6763 43.3021 51.9421C42.8677 52.2144 42.4204 52.4737 41.9666 52.72C41.824 52.7849 41.6748 52.8238 41.5322 52.8238ZM7.50953 43.793C7.20483 43.793 6.90661 43.6374 6.73157 43.3586C6.45929 42.9242 6.19997 42.4769 5.95362 42.0231C5.71375 41.5823 5.87582 41.0247 6.32315 40.7784C6.77047 40.5385 7.32153 40.7006 7.56788 41.1479C7.79478 41.5693 8.04114 41.9842 8.28749 42.3926C8.55329 42.8205 8.42363 43.3845 7.99576 43.6503C7.84016 43.7476 7.67809 43.793 7.50953 43.793ZM51.1659 43.6957C51.0039 43.6957 50.8353 43.6503 50.6862 43.5596C50.2583 43.2938 50.1222 42.7298 50.388 42.3019C50.6343 41.8999 50.8807 41.4785 51.1076 41.0571C51.3475 40.6098 51.905 40.4477 52.3458 40.6876C52.7932 40.9275 52.9552 41.485 52.7154 41.9259C52.469 42.3797 52.2097 42.8335 51.9439 43.2678C51.7688 43.5401 51.4706 43.6957 51.1659 43.6957ZM4.74778 37.699C4.35232 37.699 3.98927 37.4461 3.87258 37.0507C3.72347 36.558 3.58733 36.0588 3.47063 35.5596C3.35394 35.0669 3.65864 34.5742 4.14486 34.4575C4.63757 34.3408 5.13028 34.6455 5.24697 35.1317C5.35718 35.592 5.48684 36.0588 5.62298 36.5191C5.77209 37.0053 5.49332 37.511 5.01358 37.6601C4.92931 37.686 4.83854 37.699 4.74778 37.699ZM53.9018 37.5823C53.8175 37.5823 53.7267 37.5693 53.6424 37.5434C53.1562 37.4007 52.8839 36.8886 53.0265 36.4024C53.1627 35.9486 53.2859 35.4818 53.3961 35.015C53.5128 34.5223 53.999 34.2176 54.4982 34.3343C54.9909 34.451 55.2956 34.9437 55.1789 35.4364C55.0622 35.9356 54.9261 36.4413 54.7834 36.9275C54.6603 37.3229 54.2907 37.5823 53.9018 37.5823ZM4.31991 24.4348C4.24859 24.4348 4.18376 24.4283 4.11245 24.4088C3.61974 24.2922 3.31504 23.7994 3.42525 23.3132C3.54195 22.814 3.67161 22.3148 3.82072 21.8221C3.96334 21.3359 4.4755 21.0636 4.95524 21.1998C5.44146 21.3424 5.72023 21.8546 5.57112 22.3343C5.43498 22.7946 5.3118 23.2614 5.20159 23.7217C5.11083 24.1495 4.73482 24.4348 4.31991 24.4348ZM54.2389 24.2144C53.824 24.2144 53.4479 23.9356 53.3507 23.5142C53.2405 23.0474 53.1108 22.5871 52.9747 22.1268C52.8256 21.6406 53.0979 21.1349 53.5841 20.9858C54.0703 20.8367 54.5825 21.109 54.7251 21.5952C54.8742 22.0879 55.0103 22.5871 55.1335 23.0863C55.2502 23.579 54.952 24.0717 54.4593 24.1884C54.3815 24.2014 54.3102 24.2144 54.2389 24.2144ZM6.67971 18.1722C6.53708 18.1722 6.38798 18.1398 6.25183 18.062C5.80451 17.8221 5.63595 17.2711 5.87582 16.8238C6.11569 16.37 6.37501 15.9226 6.64729 15.4818C6.9131 15.0474 7.47712 14.9178 7.90499 15.1836C8.33287 15.4494 8.46901 16.0134 8.20321 16.4413C7.95038 16.8497 7.7105 17.2711 7.49008 17.686C7.32153 17.9972 7.00386 18.1722 6.67971 18.1722ZM51.8272 17.9648C51.503 17.9648 51.1919 17.7897 51.0233 17.4915C50.7899 17.0701 50.55 16.6552 50.2972 16.2533C50.0314 15.8254 50.1611 15.2614 50.5889 14.9891C51.0168 14.7233 51.5808 14.8529 51.8531 15.2808C52.1254 15.7152 52.3847 16.1625 52.6311 16.6098C52.871 17.0507 52.7089 17.6082 52.268 17.8546C52.1254 17.9324 51.9763 17.9648 51.8272 17.9648ZM15.7494 8.48016C15.4447 8.48016 15.1465 8.32457 14.9714 8.0458C14.7056 7.61792 14.8353 7.05391 15.2632 6.7881C15.704 6.51582 16.1513 6.25002 16.5987 6.01015C17.046 5.77028 17.5971 5.93235 17.8434 6.37319C18.0833 6.81403 17.9212 7.37157 17.4804 7.61793C17.0654 7.84483 16.6505 8.0847 16.2421 8.34402C16.0865 8.43478 15.918 8.48016 15.7494 8.48016ZM42.6732 8.36347C42.5112 8.36347 42.3491 8.31809 42.2 8.22732C41.7915 7.97449 41.3766 7.7411 40.9488 7.5142C40.5014 7.27433 40.3329 6.72327 40.5727 6.27595C40.8126 5.82862 41.3637 5.66006 41.811 5.89994C42.2583 6.13981 42.7121 6.39912 43.153 6.66493C43.5873 6.93073 43.7235 7.49475 43.4577 7.92263C43.2826 8.20788 42.9779 8.36347 42.6732 8.36347ZM21.8434 5.71193C21.4479 5.71193 21.0849 5.45909 20.9682 5.06363C20.8191 4.57741 21.0979 4.06525 21.5776 3.92263C22.0703 3.77352 22.5695 3.63737 23.0687 3.5142C23.5614 3.3975 24.0541 3.7022 24.1708 4.18843C24.2875 4.68113 23.9893 5.17384 23.4966 5.29053C23.0363 5.40075 22.5695 5.5304 22.1092 5.66655C22.0184 5.69896 21.9342 5.71193 21.8434 5.71193ZM36.5533 5.6471C36.469 5.6471 36.3847 5.63413 36.294 5.6082C35.8337 5.47206 35.3734 5.34888 34.9001 5.24515C34.4074 5.12846 34.1027 4.64224 34.2129 4.14953C34.3296 3.65682 34.8223 3.34564 35.3086 3.46233C35.8013 3.57903 36.3069 3.70869 36.7996 3.85131C37.2859 3.99394 37.5646 4.49961 37.422 4.98583C37.3118 5.38778 36.9488 5.6471 36.5533 5.6471Z" fill="#3B3B48"/>
<path d="M54.9196 32.1366C53.3507 32.1366 52.08 30.8659 52.08 29.297C52.08 27.7281 53.3572 26.4575 54.9196 26.4575C56.482 26.4575 57.7591 27.7281 57.7591 29.297C57.7591 30.8594 56.4885 32.1366 54.9196 32.1366ZM54.9196 27.8319C54.1092 27.8319 53.4544 28.4866 53.4544 29.297C53.4544 30.1074 54.1092 30.7622 54.9196 30.7622C55.73 30.7622 56.3847 30.1074 56.3847 29.297C56.3847 28.4866 55.73 27.8319 54.9196 27.8319Z" fill="#3B3B48"/>
<path d="M3.71699 32.1366C2.14811 32.1366 0.877441 30.8659 0.877441 29.297C0.877441 27.7281 2.15459 26.4575 3.71699 26.4575C5.27939 26.4575 6.55653 27.7281 6.55653 29.297C6.55653 30.8594 5.27939 32.1366 3.71699 32.1366ZM3.71699 27.8319C2.90661 27.8319 2.25183 28.4866 2.25183 29.297C2.25183 30.1074 2.90661 30.7622 3.71699 30.7622C4.52736 30.7622 5.18214 30.1074 5.18214 29.297C5.18214 28.4866 4.52088 27.8319 3.71699 27.8319Z" fill="#3B3B48"/>
<path d="M11.2437 50.4121C9.67485 50.4121 8.40418 49.1414 8.40418 47.5725C8.40418 46.0037 9.68133 44.733 11.2437 44.733C12.8061 44.733 14.0833 46.0037 14.0833 47.5725C14.0833 49.1414 12.8126 50.4121 11.2437 50.4121ZM11.2437 46.1074C10.4334 46.1074 9.77858 46.7622 9.77858 47.5725C9.77858 48.3829 10.4334 49.0377 11.2437 49.0377C12.0541 49.0377 12.7089 48.3829 12.7089 47.5725C12.7089 46.7687 12.0541 46.1074 11.2437 46.1074Z" fill="#3B3B48"/>
<path d="M47.503 50.4121C45.9342 50.4121 44.6635 49.1414 44.6635 47.5725C44.6635 46.0037 45.9407 44.733 47.503 44.733C49.0654 44.733 50.3426 46.0037 50.3426 47.5725C50.3426 49.1414 49.0719 50.4121 47.503 50.4121ZM47.503 46.1074C46.6927 46.1074 46.0379 46.7622 46.0379 47.5725C46.0379 48.3829 46.6927 49.0377 47.503 49.0377C48.3134 49.0377 48.9682 48.3829 48.9682 47.5725C48.9682 46.7687 48.3134 46.1074 47.503 46.1074Z" fill="#3B3B48"/>
<path d="M47.503 13.9064C45.9342 13.9064 44.6635 12.6358 44.6635 11.0669C44.6635 9.49799 45.9407 8.22732 47.503 8.22732C49.0654 8.22732 50.3426 9.49799 50.3426 11.0669C50.3426 12.6358 49.0719 13.9064 47.503 13.9064ZM47.503 9.60172C46.6927 9.60172 46.0379 10.2565 46.0379 11.0669C46.0379 11.8772 46.6927 12.532 47.503 12.532C48.3134 12.532 48.9682 11.8772 48.9682 11.0669C48.9682 10.2565 48.3134 9.60172 47.503 9.60172Z" fill="#3B3B48"/>
<path d="M11.0428 13.9064C9.47388 13.9064 8.20321 12.6358 8.20321 11.0669C8.20321 9.49799 9.48036 8.22732 11.0428 8.22732C12.6052 8.22732 13.8823 9.49799 13.8823 11.0669C13.8823 12.6358 12.6116 13.9064 11.0428 13.9064ZM11.0428 9.60172C10.2324 9.60172 9.5776 10.2565 9.5776 11.0669C9.5776 11.8772 10.2324 12.532 11.0428 12.532C11.8531 12.532 12.5079 11.8772 12.5079 11.0669C12.5079 10.2565 11.8531 9.60172 11.0428 9.60172Z" fill="#3B3B48"/>
<path d="M29.4804 59.7346C26.8548 59.7346 24.7218 57.6017 24.7218 54.9761C24.7218 52.3505 26.8548 50.2176 29.4804 50.2176C32.106 50.2176 34.2389 52.3505 34.2389 54.9761C34.2389 57.6017 32.106 59.7346 29.4804 59.7346ZM29.4804 51.592C27.6133 51.592 26.0962 53.109 26.0962 54.9761C26.0962 56.8432 27.6133 58.3602 29.4804 58.3602C31.3475 58.3602 32.8645 56.8432 32.8645 54.9761C32.8645 53.109 31.3475 51.592 29.4804 51.592Z" fill="#3B3B48"/>
<path d="M25.3312 6.06201C24.1124 6.06201 23.1206 5.07011 23.1206 3.85131C23.1206 2.63251 24.1124 1.64062 25.3312 1.64062C26.55 1.64062 27.5419 2.63251 27.5419 3.85131C27.5419 5.07011 26.55 6.06201 25.3312 6.06201ZM25.3312 3.02149C24.871 3.02149 24.4949 3.3975 24.4949 3.8578C24.4949 4.31809 24.871 4.6941 25.3312 4.6941C25.7915 4.6941 26.1676 4.31809 26.1676 3.8578C26.1676 3.3975 25.7915 3.02149 25.3312 3.02149Z" fill="#3B3B48"/>
<path d="M32.8256 6.06201C31.6068 6.06201 30.6149 5.07011 30.6149 3.85131C30.6149 2.63251 31.6068 1.64062 32.8256 1.64062C34.0444 1.64062 35.0363 2.63251 35.0363 3.85131C35.0363 5.07011 34.0444 6.06201 32.8256 6.06201ZM32.8256 3.02149C32.3653 3.02149 31.9893 3.3975 31.9893 3.8578C31.9893 4.31809 32.3653 4.6941 32.8256 4.6941C33.2859 4.6941 33.6619 4.31809 33.6619 3.8578C33.6619 3.3975 33.2859 3.02149 32.8256 3.02149Z" fill="#3B3B48"/>
<path d="M29.1562 6.54823C27.5873 6.54823 26.3167 5.27757 26.3167 3.70869C26.3167 2.1398 27.5938 0.869141 29.1562 0.869141C30.7186 0.869141 31.9958 2.1398 31.9958 3.70869C31.9958 5.27757 30.7186 6.54823 29.1562 6.54823ZM29.1562 2.24353C28.3458 2.24353 27.6911 2.89831 27.6911 3.70869C27.6911 4.51906 28.3458 5.17384 29.1562 5.17384C29.9666 5.17384 30.6214 4.51906 30.6214 3.70869C30.6214 2.89831 29.9601 2.24353 29.1562 2.24353Z" fill="#3B3B48"/>
<path fill-rule="evenodd" clip-rule="evenodd" d="M21.6904 55.0124L21.6897 55.0122C21.0949 54.8378 20.7652 54.2127 20.9382 53.623C21.1126 53.0283 21.7377 52.6986 22.3274 52.8715L22.3286 52.8719C22.7781 53.0067 23.241 53.1289 23.7044 53.2383L23.7045 53.2383C24.2187 53.3601 24.5651 53.8185 24.5641 54.325C24.8834 51.8959 26.9647 50.0174 29.4802 50.0174C31.8044 50.0174 33.758 51.6212 34.2934 53.7812C34.4389 53.5077 34.6971 53.296 35.0224 53.2189L35.0231 53.2187C35.4911 53.1098 35.9534 52.9814 36.3976 52.8462L36.3996 52.8456C36.9904 52.6723 37.6063 53.0033 37.7878 53.5875L37.7881 53.5883C37.9704 54.1829 37.6286 54.7981 37.0468 54.9789L37.0461 54.9791C36.5545 55.1299 36.0511 55.2606 35.5437 55.3842L35.5365 55.3859L35.5292 55.3871C35.5228 55.3882 35.5163 55.3893 35.5096 55.3904C35.4416 55.4019 35.3594 55.4158 35.2759 55.4158C34.9519 55.4158 34.6468 55.2731 34.4383 55.0365C34.4058 57.7447 32.196 59.9344 29.4802 59.9344C26.7441 59.9344 24.5217 57.712 24.5217 54.9759C24.5217 54.835 24.5275 54.6955 24.5391 54.5576C24.5376 54.5648 24.5359 54.572 24.5342 54.5792C24.4217 55.0971 23.9538 55.4417 23.451 55.4417C23.3672 55.4417 23.2852 55.4341 23.1946 55.4097C22.6923 55.2922 22.1843 55.1554 21.6904 55.0124ZM23.2435 55.2158C23.3148 55.2352 23.3797 55.2417 23.451 55.2417C23.8659 55.2417 24.2484 54.9565 24.3392 54.5351C24.4559 54.0424 24.1512 53.5497 23.6584 53.433C23.1917 53.3228 22.7249 53.1996 22.2711 53.0634C21.7849 52.9208 21.2727 53.1931 21.1301 53.6793C20.9875 54.1655 21.2597 54.6777 21.746 54.8203C22.2387 54.9629 22.7443 55.0991 23.2435 55.2158ZM34.2299 54.6853C34.2273 54.6418 34.2241 54.5985 34.2203 54.5553C34.2203 54.5552 34.2203 54.555 34.2202 54.5549C34.2089 54.4255 34.1923 54.2975 34.1707 54.1713C33.7878 51.9281 31.8316 50.2174 29.4802 50.2174C26.8546 50.2174 24.7217 52.3503 24.7217 54.9759C24.7217 57.6015 26.8546 59.7344 29.4802 59.7344C32.1058 59.7344 34.2387 57.6015 34.2387 54.9759C34.2387 54.8783 34.2357 54.7814 34.2299 54.6853ZM34.3878 54.5156C34.398 54.5594 34.4114 54.6018 34.4276 54.6425C34.5648 54.9876 34.9048 55.2158 35.2759 55.2158C35.3417 55.2158 35.4075 55.2048 35.4784 55.1929L35.4964 55.1899C36.002 55.0667 36.5012 54.937 36.9875 54.7879C37.4672 54.6388 37.746 54.1331 37.5969 53.6469C37.4478 53.1672 36.9421 52.8949 36.4559 53.0375C36.0085 53.1736 35.5418 53.3033 35.0685 53.4135C34.6933 53.5024 34.4272 53.8092 34.373 54.1681C34.3561 54.2806 34.3599 54.3981 34.3878 54.5156ZM15.307 52.1639L15.3066 52.1636C14.7863 51.8405 14.619 51.1537 14.944 50.6305C15.2672 50.1103 15.954 49.943 16.4771 50.2679C16.8812 50.5181 17.299 50.756 17.7118 50.9817C18.255 51.2736 18.4609 51.9451 18.1686 52.4902C17.9702 52.8625 17.5897 53.0754 17.1884 53.0754C17.0083 53.0754 16.8328 53.0357 16.6594 52.9414C16.2014 52.6993 15.7506 52.4379 15.307 52.1639ZM16.7541 52.7652C16.8967 52.843 17.0393 52.8754 17.1884 52.8754C17.5191 52.8754 17.8302 52.7004 17.9923 52.3957C18.2322 51.9484 18.0636 51.3973 17.6163 51.1574C17.2014 50.9305 16.78 50.6907 16.3716 50.4378C15.9437 50.172 15.3797 50.3082 15.1139 50.736C14.8481 51.1639 14.9842 51.7279 15.4121 51.9937C15.8529 52.266 16.3003 52.5253 16.7541 52.7652ZM42.0494 52.9024L42.0491 52.9019C41.8875 52.9754 41.71 53.0236 41.532 53.0236C41.1381 53.0236 40.7506 52.8114 40.5519 52.4383C40.2606 51.8951 40.457 51.2222 41.0032 50.9293C41.4208 50.7044 41.832 50.4667 42.2369 50.2161M41.0977 51.1056C40.6503 51.3454 40.4883 51.8965 40.7281 52.3438C40.8902 52.6485 41.2079 52.8236 41.532 52.8236C41.6747 52.8236 41.8238 52.7847 41.9664 52.7198C42.4202 52.4735 42.8675 52.2142 43.3019 51.9419C43.7362 51.6761 43.8659 51.1121 43.6001 50.6842C43.3343 50.2498 42.7703 50.1202 42.3424 50.386C41.934 50.6388 41.5191 50.8787 41.0977 51.1056ZM43.7704 50.5792C43.4461 50.05 42.7584 49.8923 42.2371 50.2159ZM43.7704 50.5792C44.0936 51.1003 43.936 51.7876 43.4072 52.1119C42.9692 52.3864 42.5186 52.6477 42.0618 52.8956L42.0494 52.9024M6.562 43.4648L6.56192 43.4646C6.28722 43.0264 6.02584 42.5755 5.77774 42.1185M6.22647 40.603L6.22843 40.6019C6.77241 40.3102 7.44369 40.508 7.74287 41.0512L7.74379 41.0529C7.96803 41.4694 8.21202 41.8804 8.4579 42.2881C8.7805 42.8088 8.62322 43.4953 8.10156 43.8197C8.10141 43.8198 8.10125 43.8199 8.1011 43.82L7.99556 43.6501C7.83997 43.7474 7.67789 43.7928 7.50934 43.7928C7.20464 43.7928 6.90642 43.6372 6.73138 43.3584C6.45909 42.924 6.19977 42.4767 5.95342 42.0229C5.71355 41.5821 5.87563 41.0245 6.32295 40.7782M7.99556 43.6501C8.42344 43.3843 8.5531 42.8203 8.28729 42.3924ZM50.582 43.7302L50.5805 43.7293C50.0604 43.4062 49.893 42.7198 50.2176 42.1967C50.4623 41.7973 50.7065 41.3795 50.9311 40.9624M50.3878 42.3017C50.6341 41.8997 50.8805 41.4783 51.1074 41.057C51.3473 40.6096 51.9048 40.4475 52.3456 40.6874C52.793 40.9273 52.955 41.4848 52.7152 41.9257C52.4688 42.3795 52.2095 42.8333 51.9437 43.2676C51.7687 43.5399 51.4704 43.6955 51.1657 43.6955C51.0037 43.6955 50.8351 43.6501 50.686 43.5594C50.2581 43.2936 50.122 42.7296 50.3878 42.3017ZM52.8909 42.0213C52.6432 42.4775 52.3821 42.9343 52.1143 43.372L52.112 43.3758L52.1119 43.3758C51.8996 43.7061 51.5376 43.8955 51.1657 43.8955C50.9671 43.8955 50.7625 43.8401 50.582 43.7302M52.8909 42.0213C53.1832 41.4839 52.9862 40.8043 52.4407 40.5115C51.9034 40.2195 51.224 40.4167 50.9313 40.9621M4.09799 34.2628L4.09858 34.2627C4.69824 34.1206 5.29876 34.4911 5.44125 35.0848L5.44128 35.0849C5.55031 35.5403 5.67883 36.0032 5.81428 36.4611C5.99601 37.0555 5.65425 37.6701 5.07275 37.8509L5.07221 37.851C4.96765 37.8832 4.85697 37.8988 4.74759 37.8988C4.26799 37.8988 3.82395 37.5919 3.68076 37.1077C3.53067 36.6118 3.39344 36.1086 3.27569 35.6049C3.13403 35.0054 3.50448 34.4052 4.09799 34.2628ZM3.47044 35.5594C3.58713 36.0586 3.72328 36.5578 3.87238 37.0505C3.98908 37.4459 4.35212 37.6988 4.74759 37.6988C4.83835 37.6988 4.92911 37.6858 5.01339 37.6599C5.49313 37.5108 5.7719 37.0051 5.62279 36.5189M4.14467 34.4573C3.65845 34.574 3.35375 35.0667 3.47044 35.5594ZM52.8344 36.3459L52.8348 36.3447C52.9696 35.8952 53.0918 35.4323 53.2012 34.9688L53.2013 34.9687C53.3433 34.3691 53.9366 33.9975 54.5435 34.1394L54.5441 34.1395C55.144 34.2816 55.5154 34.8817 55.3734 35.4821C55.2557 35.9854 55.1186 36.4946 54.9752 36.9836L54.9742 36.9868C54.8246 37.4669 54.3769 37.7821 53.9016 37.7821C53.7984 37.7821 53.6882 37.7664 53.5847 37.7347C52.9907 37.5597 52.6616 36.9351 52.8344 36.3459ZM53.6422 37.5432C53.7265 37.5691 53.8173 37.5821 53.9016 37.5821C54.2905 37.5821 54.6601 37.3228 54.7832 36.9273C54.9259 36.4411 55.062 35.9354 55.1787 35.4362C55.2954 34.9435 54.9907 34.4508 54.498 34.3341C53.9988 34.2174 53.5126 34.5221 53.3959 35.0148C53.2857 35.4816 53.1625 35.9484 53.0264 36.4022C52.8837 36.8884 53.156 37.4006 53.6422 37.5432ZM3.23001 23.2688L3.2303 23.2675C3.34767 22.7655 3.47833 22.2623 3.62885 21.7648C3.62893 21.7645 3.62901 21.7643 3.62909 21.764L3.82052 21.8219L3.62861 21.7656C3.62869 21.7654 3.62877 21.7651 3.62885 21.7648C3.80343 21.1713 4.42704 20.8418 5.00964 21.0072L5.01134 21.0077C5.60222 21.181 5.94427 21.804 5.76235 22.3921C5.62769 22.8474 5.50572 23.3095 5.39647 23.7656C5.2844 24.2877 4.82479 24.6346 4.31971 24.6346C4.23579 24.6346 4.15367 24.6269 4.06291 24.6025C3.46557 24.4592 3.09574 23.8612 3.23001 23.2688ZM4.11225 24.4087C4.18357 24.4281 4.2484 24.4346 4.31971 24.4346C4.73462 24.4346 5.11063 24.1493 5.2014 23.7215C5.31161 23.2612 5.43478 22.7944 5.57092 22.3341C5.72003 21.8544 5.44127 21.3422 4.95504 21.1996M3.42506 23.313C3.31485 23.7993 3.61955 24.292 4.11225 24.4087ZM55.3275 23.0382L55.3279 23.04C55.4696 23.6383 55.1073 24.2402 54.5052 24.3828L54.4921 24.386L54.492 24.3855C54.4856 24.3866 54.479 24.3877 54.4723 24.3888C54.4043 24.4003 54.3221 24.4142 54.2387 24.4142C53.7354 24.4142 53.2753 24.0758 53.1558 23.5599C53.0469 23.0987 52.9186 22.6428 52.783 22.1842C52.6018 21.5914 52.9351 20.9754 53.5252 20.7944C54.1163 20.6132 54.7418 20.9439 54.9166 21.5379C54.9166 21.5382 54.9167 21.5385 54.9168 21.5387L54.7249 21.595C54.874 22.0877 55.0101 22.5869 55.1333 23.0861C55.25 23.5788 54.9518 24.0715 54.4591 24.1882L54.4412 24.1912C54.3703 24.2031 54.3045 24.2142 54.2387 24.2142C53.8238 24.2142 53.4477 23.9354 53.3505 23.514C53.2403 23.0472 53.1106 22.5869 52.9745 22.1266C52.8254 21.6404 53.0977 21.1347 53.5839 20.9856C54.0701 20.8365 54.5823 21.1088 54.7249 21.595M7.66651 17.7796L7.66575 17.7811C7.46121 18.1587 7.07489 18.372 6.67951 18.372C6.50779 18.372 6.32447 18.3332 6.15477 18.2368C5.61278 17.9446 5.40745 17.2741 5.69909 16.7296C5.94131 16.2713 6.20283 15.8203 6.47694 15.3765C6.80128 14.8473 7.48912 14.6897 8.01033 15.0135C8.53049 15.3366 8.69784 16.0232 8.37307 16.5463C8.12279 16.9506 7.88509 17.3682 7.66651 17.7796ZM8.20302 16.4411C8.46882 16.0132 8.33268 15.4492 7.9048 15.1834C7.47692 14.9176 6.9129 15.0472 6.6471 15.4816C6.37481 15.9224 6.1155 16.3698 5.87563 16.8236C5.63575 17.2709 5.80431 17.8219 6.25164 18.0618C6.38778 18.1396 6.53689 18.172 6.67951 18.172C7.00366 18.172 7.32133 17.997 7.48989 17.6858C7.71031 17.2709 7.95018 16.8495 8.20302 16.4411ZM50.849 17.5897L50.8481 17.5882C50.6159 17.1688 50.378 16.7574 50.1277 16.3596L50.1271 16.3586C49.803 15.8368 49.9618 15.1508 50.4814 14.8201L50.4832 14.819C51.005 14.4949 51.691 14.6537 52.0217 15.1732L52.0224 15.1744C52.2971 15.6126 52.5583 16.0633 52.8061 16.5131L52.8066 16.514C53.0992 17.0518 52.9012 17.7295 52.3654 18.0289L52.3636 18.0299C52.1887 18.1254 52.0061 18.1646 51.827 18.1646C51.4312 18.1646 51.0533 17.9511 50.849 17.5897ZM14.8019 8.15196L14.8014 8.15114C14.4777 7.63015 14.635 6.94255 15.1574 6.61802L15.1579 6.61775C15.6004 6.3444 16.0516 6.07626 16.504 5.83369C17.0474 5.54226 17.7182 5.73935 18.0178 6.27543L18.0189 6.2774C18.3115 6.81518 18.1135 7.49289 17.5777 7.79232L17.5761 7.79321C17.164 8.0186 16.753 8.25625 16.3491 8.51267L16.3428 8.5167L16.3427 8.51658C16.1574 8.62464 15.9542 8.67997 15.7492 8.67997C15.3768 8.67997 15.0141 8.48993 14.8019 8.15196ZM42.0958 8.39797L42.0945 8.39719C41.6908 8.14725 41.2799 7.91609 40.8549 7.69069L40.854 7.69026C40.3101 7.39859 40.1038 6.72666 40.3963 6.18124C40.688 5.63732 41.3599 5.43101 41.9053 5.72348C42.3558 5.96506 42.8125 6.22606 43.256 6.49345L43.2572 6.49413C43.7846 6.81688 43.9525 7.50397 43.6276 8.02752C43.4147 8.37411 43.0443 8.56327 42.673 8.56327C42.4729 8.56327 42.2751 8.50709 42.0958 8.39797ZM43.4575 7.92243C43.2824 8.20768 42.9777 8.36327 42.673 8.36327C42.511 8.36327 42.3489 8.31789 42.1998 8.22713C41.7913 7.97429 41.3764 7.74091 40.9486 7.514C40.5012 7.27413 40.3327 6.72308 40.5725 6.27575C40.8124 5.82843 41.3635 5.65987 41.8108 5.89974C42.2581 6.13961 42.7119 6.39893 43.1528 6.66473C43.5871 6.93053 43.7233 7.49455 43.4575 7.92243ZM23.4134 5.3104C22.98 5.41615 22.5417 5.53838 22.109 5.66635C22.0183 5.69877 21.934 5.71173 21.8432 5.71173C21.4477 5.71173 21.0847 5.4589 20.968 5.06343C20.8189 4.57721 21.0977 4.06506 21.5774 3.92243C22.0277 3.78616 22.4834 3.66072 22.9396 3.54611C22.9825 3.53531 23.0255 3.52461 23.0685 3.514C23.0952 3.50769 23.1218 3.50261 23.1484 3.49872C23.1597 3.42889 23.1742 3.36013 23.1918 3.29263C23.4399 2.34325 24.3051 1.64042 25.3311 1.64042C25.8073 1.64042 26.2489 1.79188 26.6102 2.04914C26.6648 2.08802 26.7176 2.12932 26.7684 2.17287C26.8048 2.11651 26.8431 2.06153 26.8833 2.008C27.4022 1.31636 28.2289 0.868945 29.156 0.868945C30.0483 0.868945 30.8476 1.28341 31.3691 1.93119C31.4108 1.98309 31.4508 2.03649 31.489 2.09129C31.542 2.05094 31.5968 2.01293 31.6534 1.97741C31.9934 1.76396 32.3953 1.64042 32.8254 1.64042C33.8351 1.64042 34.6891 2.32119 34.9524 3.24777C34.9706 3.31194 34.986 3.37729 34.9984 3.44367C35.065 3.43583 35.1331 3.43547 35.2016 3.44329C35.2371 3.44734 35.2728 3.45359 35.3084 3.46214C35.8011 3.57883 36.3067 3.70849 36.7994 3.85112C37.2857 3.99374 37.5644 4.49942 37.4218 4.98564C37.3116 5.38758 36.9486 5.6469 36.5531 5.6469C36.4688 5.6469 36.3845 5.63394 36.2938 5.60801C35.8335 5.47186 35.3732 5.34869 34.8999 5.24496C34.8691 5.23765 34.839 5.22889 34.8096 5.21877C34.7443 5.19625 34.683 5.16698 34.6262 5.13196C34.5872 5.1866 34.5458 5.23941 34.5021 5.29021C34.0963 5.7623 33.4951 6.06181 32.8254 6.06181C32.3337 6.06181 31.879 5.90041 31.5114 5.62781C31.4578 5.58805 31.406 5.54592 31.3563 5.50158C31.3141 5.55325 31.2701 5.60341 31.2244 5.65197C30.7056 6.2036 29.9695 6.54804 29.156 6.54804C28.3016 6.54804 27.5356 6.17115 27.0151 5.57445C26.9711 5.524 26.9289 5.47197 26.8885 5.41847C26.841 5.46565 26.7914 5.51069 26.7398 5.55344C26.357 5.87081 25.8659 6.06181 25.3311 6.06181C24.7188 6.06181 24.1637 5.81148 23.763 5.40781C23.7134 5.35788 23.6662 5.3056 23.6215 5.25115C23.5814 5.26694 23.5396 5.28009 23.4964 5.29034C23.4687 5.29696 23.4411 5.30365 23.4134 5.3104ZM23.5429 5.48484C23.0889 5.59356 22.6274 5.72164 22.1708 5.85666C22.0589 5.89592 21.9533 5.91173 21.8432 5.91173C21.3637 5.91173 20.9198 5.60502 20.7765 5.12106C20.5954 4.52873 20.9346 3.90516 21.5199 3.73086C22.0016 3.58509 22.4893 3.45169 22.9769 3.33063C23.2155 2.25071 24.1804 1.44042 25.3311 1.44042C25.8501 1.44042 26.3313 1.6053 26.7252 1.88543C27.2808 1.14662 28.1647 0.668945 29.156 0.668945C30.1161 0.668945 30.9756 1.11707 31.5335 1.81656C31.9072 1.57847 32.3505 1.44042 32.8254 1.44042C33.9432 1.44042 34.8858 2.20517 35.1573 3.23895C35.2227 3.24236 35.2887 3.25177 35.3547 3.26759M23.5429 5.48484C23.5476 5.48374 23.5522 5.48262 23.5568 5.48147C23.9977 5.96092 24.6299 6.26181 25.3311 6.26181C25.9139 6.26181 26.4492 6.05387 26.8665 5.70826C27.4235 6.3456 28.2426 6.74804 29.156 6.74804C30.0317 6.74804 30.8237 6.37524 31.3795 5.77894C31.7826 6.08202 32.2834 6.26181 32.8254 6.26181C33.5725 6.26181 34.2413 5.92021 34.6838 5.38499C34.7381 5.40727 34.7949 5.42561 34.8538 5.43957L34.8538 5.4396L34.8571 5.44032C35.3245 5.54277 35.78 5.66462 36.237 5.7998L36.2388 5.80031C36.3446 5.83053 36.4475 5.8469 36.5531 5.8469C37.0348 5.8469 37.4788 5.53117 37.6143 5.04012M26.1192 3.57837C26.0037 3.25448 25.6935 3.0213 25.3311 3.0213C24.8708 3.0213 24.4947 3.39731 24.4947 3.8576C24.4947 4.31789 24.8708 4.6939 25.3311 4.6939C25.716 4.6939 26.042 4.43095 26.1384 4.07565C26.1573 4.00608 26.1674 3.93297 26.1674 3.8576C26.1674 3.80674 26.1628 3.7569 26.154 3.70849C26.1459 3.6638 26.1342 3.62033 26.1192 3.57837ZM27.7109 3.46521C27.6977 3.54432 27.6909 3.62559 27.6909 3.70849C27.6909 3.75662 27.6932 3.80419 27.6977 3.85112C27.7045 3.922 27.7164 3.99138 27.7329 4.05893C27.8896 4.69955 28.4665 5.17365 29.156 5.17365C29.732 5.17365 30.2293 4.8429 30.4689 4.36063C30.5464 4.20462 30.5969 4.03277 30.6143 3.85112C30.6145 3.84991 30.6146 3.84869 30.6147 3.84748C30.6148 3.8008 30.6163 3.75446 30.6192 3.70849C30.6198 3.70023 30.6203 3.69197 30.621 3.68373C30.6179 3.49928 30.5806 3.32322 30.5152 3.16151C30.2973 2.62281 29.768 2.24334 29.156 2.24334C28.4285 2.24334 27.8265 2.771 27.7109 3.46521ZM30.4208 3.67833C30.4047 2.99296 29.84 2.44334 29.156 2.44334C28.4561 2.44334 27.8909 3.00858 27.8909 3.70849C27.8909 4.40841 28.4561 4.97365 29.156 4.97365C29.8125 4.97365 30.3504 4.47645 30.4147 3.83726C30.415 3.78386 30.4171 3.73087 30.4208 3.67833ZM32.1729 3.33576C32.0876 3.44203 32.0277 3.56939 32.0025 3.70849C31.9996 3.72443 31.9971 3.74053 31.9952 3.75676C31.9946 3.79052 31.9934 3.82414 31.9917 3.8576C31.9911 3.86884 31.9905 3.88006 31.9897 3.89126C31.9962 4.05137 32.048 4.20021 32.1328 4.32515C32.2834 4.54731 32.538 4.6939 32.8254 4.6939C33.2857 4.6939 33.6617 4.31789 33.6617 3.8576C33.6617 3.39731 33.2857 3.0213 32.8254 3.0213C32.5621 3.0213 32.3264 3.14431 32.1729 3.33576ZM32.19 3.89277C32.2085 4.22643 32.4873 4.4939 32.8254 4.4939C33.1752 4.4939 33.4617 4.20743 33.4617 3.8576C33.4617 3.50777 33.1752 3.2213 32.8254 3.2213C32.5047 3.2213 32.2373 3.46202 32.1949 3.77161C32.1941 3.81219 32.1925 3.85259 32.19 3.89277ZM6.22647 40.603C5.68355 40.902 5.4849 41.5801 5.77765 42.1183ZM17.4802 7.61773C17.0653 7.84463 16.6503 8.0845 16.2419 8.34382C16.0863 8.43459 15.9178 8.47997 15.7492 8.47997C15.4445 8.47997 15.1463 8.32437 14.9712 8.04561C14.7054 7.61773 14.8351 7.05371 15.263 6.78791C15.7038 6.51562 16.1512 6.24982 16.5985 6.00995C17.0458 5.77008 17.5969 5.93215 17.8432 6.373C18.0831 6.81384 17.921 7.37138 17.4802 7.61773ZM54.9194 32.3364C53.2401 32.3364 51.8798 30.9762 51.8798 29.2968C51.8798 27.6172 53.2468 26.2573 54.9194 26.2573C56.5919 26.2573 57.9589 27.6172 57.9589 29.2968C57.9589 30.9694 56.599 32.3364 54.9194 32.3364ZM54.9194 28.0317C54.2195 28.0317 53.6542 28.5969 53.6542 29.2968C53.6542 29.9967 54.2195 30.562 54.9194 30.562C55.6193 30.562 56.1845 29.9967 56.1845 29.2968C56.1845 28.5969 55.6193 28.0317 54.9194 28.0317ZM3.71679 32.3364C2.03745 32.3364 0.677246 30.9762 0.677246 29.2968C0.677246 27.6172 2.04423 26.2573 3.71679 26.2573C5.38935 26.2573 6.75634 27.6172 6.75634 29.2968C6.75634 30.9697 5.38965 32.3364 3.71679 32.3364ZM3.71679 28.0317C3.01688 28.0317 2.45164 28.5969 2.45164 29.2968C2.45164 29.9967 3.01688 30.562 3.71679 30.562C4.41671 30.562 4.98195 29.9967 4.98195 29.2968C4.98195 28.5975 4.4108 28.0317 3.71679 28.0317ZM11.2435 50.6119C9.56419 50.6119 8.20399 49.2517 8.20399 47.5723C8.20399 45.8927 9.57098 44.5328 11.2435 44.5328C12.9161 44.5328 14.2831 45.8927 14.2831 47.5723C14.2831 49.2517 12.9229 50.6119 11.2435 50.6119ZM11.2435 46.3072C10.5436 46.3072 9.97838 46.8724 9.97838 47.5723C9.97838 48.2723 10.5436 48.8375 11.2435 48.8375C11.9434 48.8375 12.5087 48.2723 12.5087 47.5723C12.5087 46.8783 11.9429 46.3072 11.2435 46.3072ZM47.5029 50.6119C45.8235 50.6119 44.4633 49.2517 44.4633 47.5723C44.4633 45.8927 45.8303 44.5328 47.5029 44.5328C49.1754 44.5328 50.5424 45.8927 50.5424 47.5723C50.5424 49.2517 49.1822 50.6119 47.5029 50.6119ZM47.5029 46.3072C46.8029 46.3072 46.2377 46.8724 46.2377 47.5723C46.2377 48.2723 46.8029 48.8375 47.5029 48.8375C48.2028 48.8375 48.768 48.2723 48.768 47.5723C48.768 46.8783 48.2022 46.3072 47.5029 46.3072ZM47.5029 14.1062C45.8235 14.1062 44.4633 12.746 44.4633 11.0667C44.4633 9.38704 45.8303 8.02713 47.5029 8.02713C49.1754 8.02713 50.5424 9.38704 50.5424 11.0667C50.5424 12.746 49.1822 14.1062 47.5029 14.1062ZM47.5029 9.80152C46.8029 9.80152 46.2377 10.3668 46.2377 11.0667C46.2377 11.7666 46.8029 12.3318 47.5029 12.3318C48.2028 12.3318 48.768 11.7666 48.768 11.0667C48.768 10.3668 48.2028 9.80152 47.5029 9.80152ZM11.0426 14.1062C9.36322 14.1062 8.00302 12.746 8.00302 11.0667C8.00302 9.38704 9.37 8.02713 11.0426 8.02713C12.7151 8.02713 14.0821 9.38704 14.0821 11.0667C14.0821 12.746 12.7219 14.1062 11.0426 14.1062ZM11.0426 9.80152C10.3426 9.80152 9.77741 10.3668 9.77741 11.0667C9.77741 11.7666 10.3426 12.3318 11.0426 12.3318C11.7425 12.3318 12.3077 11.7666 12.3077 11.0667C12.3077 10.3668 11.7425 9.80152 11.0426 9.80152ZM29.4802 51.7918C27.7235 51.7918 26.296 53.2193 26.296 54.9759C26.296 56.7326 27.7235 58.16 29.4802 58.16C31.2368 58.16 32.6643 56.7326 32.6643 54.9759C32.6643 53.2193 31.2368 51.7918 29.4802 51.7918ZM25.3311 3.2213C24.9812 3.2213 24.6947 3.50776 24.6947 3.8576C24.6947 4.20744 24.9812 4.4939 25.3311 4.4939C25.6809 4.4939 25.9674 4.20743 25.9674 3.8576C25.9674 3.50777 25.6809 3.2213 25.3311 3.2213ZM51.827 17.9646C51.5028 17.9646 51.1917 17.7895 51.0231 17.4913C50.7897 17.0699 50.5499 16.655 50.297 16.2531C50.0312 15.8252 50.1609 15.2612 50.5888 14.9889C51.0166 14.7231 51.5806 14.8527 51.8529 15.2806C52.1252 15.715 52.3845 16.1623 52.6309 16.6096C52.8708 17.0505 52.7087 17.608 52.2678 17.8544C52.1252 17.9322 51.9761 17.9646 51.827 17.9646ZM54.9194 32.1364C53.3505 32.1364 52.0798 30.8657 52.0798 29.2968C52.0798 27.7279 53.357 26.4573 54.9194 26.4573C56.4818 26.4573 57.7589 27.7279 57.7589 29.2968C57.7589 30.8592 56.4883 32.1364 54.9194 32.1364ZM54.9194 27.8317C54.109 27.8317 53.4542 28.4864 53.4542 29.2968C53.4542 30.1072 54.109 30.762 54.9194 30.762C55.7298 30.762 56.3845 30.1072 56.3845 29.2968C56.3845 28.4864 55.7298 27.8317 54.9194 27.8317ZM0.877246 29.2968C0.877246 30.8657 2.14791 32.1364 3.71679 32.1364C5.27919 32.1364 6.55634 30.8592 6.55634 29.2968C6.55634 27.7279 5.27919 26.4573 3.71679 26.4573C2.15439 26.4573 0.877246 27.7279 0.877246 29.2968ZM2.25164 29.2968C2.25164 28.4864 2.90642 27.8317 3.71679 27.8317C4.52068 27.8317 5.18195 28.4864 5.18195 29.2968C5.18195 30.1072 4.52717 30.762 3.71679 30.762C2.90642 30.762 2.25164 30.1072 2.25164 29.2968ZM11.2435 50.4119C9.67465 50.4119 8.40399 49.1412 8.40399 47.5723C8.40399 46.0035 9.68114 44.7328 11.2435 44.7328C12.8059 44.7328 14.0831 46.0035 14.0831 47.5723C14.0831 49.1412 12.8124 50.4119 11.2435 50.4119ZM11.2435 46.1072C10.4332 46.1072 9.77838 46.762 9.77838 47.5723C9.77838 48.3827 10.4332 49.0375 11.2435 49.0375C12.0539 49.0375 12.7087 48.3827 12.7087 47.5723C12.7087 46.7685 12.0539 46.1072 11.2435 46.1072ZM44.6633 47.5723C44.6633 49.1412 45.934 50.4119 47.5029 50.4119C49.0717 50.4119 50.3424 49.1412 50.3424 47.5723C50.3424 46.0035 49.0653 44.7328 47.5029 44.7328C45.9405 44.7328 44.6633 46.0035 44.6633 47.5723ZM46.0377 47.5723C46.0377 46.762 46.6925 46.1072 47.5029 46.1072C48.3132 46.1072 48.968 46.7685 48.968 47.5723C48.968 48.3827 48.3132 49.0375 47.5029 49.0375C46.6925 49.0375 46.0377 48.3827 46.0377 47.5723ZM47.5029 13.9062C45.934 13.9062 44.6633 12.6356 44.6633 11.0667C44.6633 9.49779 45.9405 8.22713 47.5029 8.22713C49.0653 8.22713 50.3424 9.49779 50.3424 11.0667C50.3424 12.6356 49.0717 13.9062 47.5029 13.9062ZM47.5029 9.60152C46.6925 9.60152 46.0377 10.2563 46.0377 11.0667C46.0377 11.877 46.6925 12.5318 47.5029 12.5318C48.3132 12.5318 48.968 11.877 48.968 11.0667C48.968 10.2563 48.3132 9.60152 47.5029 9.60152ZM8.20302 11.0667C8.20302 12.6356 9.47368 13.9062 11.0426 13.9062C12.6114 13.9062 13.8821 12.6356 13.8821 11.0667C13.8821 9.49779 12.605 8.22713 11.0426 8.22713C9.48016 8.22713 8.20302 9.49779 8.20302 11.0667ZM9.57741 11.0667C9.57741 10.2563 10.2322 9.60152 11.0426 9.60152C11.8529 9.60152 12.5077 10.2563 12.5077 11.0667C12.5077 11.877 11.8529 12.5318 11.0426 12.5318C10.2322 12.5318 9.57741 11.877 9.57741 11.0667ZM29.4802 51.5918C27.6131 51.5918 26.096 53.1088 26.096 54.9759C26.096 56.843 27.6131 58.36 29.4802 58.36C31.3473 58.36 32.8643 56.843 32.8643 54.9759C32.8643 53.1088 31.3473 51.5918 29.4802 51.5918Z" fill="#3B3B48"/>
</svg>
