<svg width="36" height="34" viewBox="0 0 36 34" fill="none" xmlns="http://www.w3.org/2000/svg">
<path d="M35.9999 5.17332C35.9999 5.16938 35.9994 5.16544 35.9993 5.16144C35.9988 5.14576 35.9979 5.13029 35.9961 5.11496C35.9954 5.10933 35.9943 5.10371 35.9935 5.09808C35.9914 5.08395 35.9888 5.07003 35.9855 5.05639C35.9843 5.05098 35.9829 5.04563 35.9814 5.04022C35.9773 5.02538 35.9727 5.01083 35.9673 4.99648C35.9664 4.99374 35.9657 4.99093 35.9647 4.98826L34.5342 1.32625C34.3899 0.957249 34.0407 0.71875 33.6445 0.71875H31.0398C30.7559 0.71875 30.5258 0.948882 30.5258 1.2328C30.5258 1.51672 30.7559 1.74686 31.0398 1.74686H33.5947L34.7331 4.66123H23.9701L23.2958 1.74686H27.2708C27.5547 1.74686 27.7848 1.51672 27.7848 1.2328C27.7848 0.948882 27.5547 0.71875 27.2708 0.71875H22.6492H17.4695H6.47411C6.07783 0.71875 5.72866 0.957249 5.58445 1.32639L4.15394 4.98826C4.15289 4.991 4.15233 4.99381 4.15127 4.99648C4.14593 5.01076 4.14129 5.02531 4.13721 5.04022C4.13573 5.04563 4.13433 5.05098 4.13306 5.05639C4.12983 5.0701 4.12722 5.08402 4.12511 5.09808C4.12427 5.10371 4.12322 5.10933 4.12251 5.11496C4.12076 5.13029 4.11977 5.14576 4.11935 5.16144C4.11928 5.16537 4.11879 5.16931 4.11872 5.17332C4.11872 5.17395 4.11865 5.17458 4.11865 5.17522V12.7275C4.11865 13.0114 4.34878 13.2415 4.6327 13.2415C4.91662 13.2415 5.14675 13.0114 5.14675 12.7275V5.68934H16.0432V13.503C16.0432 13.8086 16.2232 14.087 16.5018 14.2124C16.6039 14.2583 16.7125 14.2807 16.8204 14.2807C17.0072 14.2807 17.1919 14.2137 17.3367 14.0853L20.0593 11.6733L22.7819 14.0852C23.0105 14.2879 23.3382 14.3378 23.6169 14.2124C23.8955 14.087 24.0755 13.8086 24.0755 13.503V5.68934H34.9719V28.7464C34.9719 29.1152 34.6717 29.4154 34.3028 29.4154H24.8772C24.8772 29.4096 24.8765 29.4037 24.8765 29.3979C24.8759 29.3518 24.8742 29.3057 24.8703 29.26C25.7553 29.4946 26.7009 29.0398 27.0556 28.17C27.2421 27.7125 27.2394 27.2098 27.0478 26.7544C27.0297 26.7115 27.0098 26.6699 26.9889 26.6289C26.985 26.6214 26.9813 26.6138 26.9774 26.6064C26.9568 26.5673 26.9349 26.5291 26.9117 26.4919C26.9072 26.4846 26.9026 26.4776 26.898 26.4704C26.8736 26.4323 26.8482 26.3948 26.8211 26.3587C26.8206 26.358 26.82 26.3574 26.8196 26.3567C26.7927 26.3211 26.7643 26.2868 26.735 26.2532C26.7296 26.2471 26.7243 26.2409 26.7189 26.2348C26.6899 26.2025 26.6597 26.1712 26.6285 26.141C26.6224 26.1351 26.6162 26.1294 26.61 26.1237C26.5773 26.0929 26.5439 26.0631 26.509 26.0349C26.5078 26.0339 26.5066 26.033 26.5054 26.0321C26.4711 26.0045 26.4354 25.9783 26.3991 25.9532C26.3925 25.9486 26.3861 25.9439 26.3794 25.9394C26.343 25.915 26.3058 25.8918 26.2675 25.8698C26.2644 25.868 26.2615 25.8659 26.2582 25.8641C26.4755 25.6761 26.647 25.4381 26.7587 25.1643C26.9452 24.7068 26.9425 24.2041 26.7509 23.7486C26.5832 23.3502 26.2886 23.0297 25.9111 22.8309C25.8572 22.8025 25.8016 22.7765 25.7444 22.7532L17.7438 19.491L21.4679 18.3383C22.3539 18.064 22.853 17.119 22.5803 16.2318C22.4785 15.9007 22.2768 15.6214 22.0162 15.4173C21.6285 15.1134 21.1102 14.9763 20.5962 15.0842C20.5937 15.0848 20.5914 15.0852 20.5889 15.0858C20.5604 15.0922 17.7055 15.7342 14.7237 16.3156C14.5915 16.3414 14.4626 16.3663 14.3355 16.3907C14.2339 16.4103 14.1336 16.4296 14.0352 16.4483C14.007 16.4537 13.9786 16.459 13.9506 16.4644C13.7769 16.4973 13.6086 16.5289 13.4451 16.5593C13.3793 16.5715 13.314 16.5836 13.2498 16.5954C9.50521 17.2853 8.45326 17.2976 8.16133 17.2581C8.1602 17.258 8.15922 17.2578 8.15809 17.2576C8.15366 17.257 8.1493 17.2564 8.14522 17.2557C8.14227 17.2552 8.13953 17.2547 8.13679 17.2543C8.13482 17.254 8.13271 17.2536 8.13081 17.2533C8.1126 17.25 8.0984 17.2466 8.08743 17.2433L8.00319 17.209L8.10817 16.9516C8.21139 16.6984 8.20984 16.4203 8.10388 16.1683C8.07737 16.1053 8.0451 16.0459 8.00769 15.9905C7.89547 15.8243 7.73678 15.6949 7.54694 15.6175L4.78591 14.4917C4.53286 14.3885 4.25463 14.3901 4.0027 14.496C3.7507 14.602 3.55516 14.7998 3.45194 15.0528L0.0757558 23.333C-0.137291 23.8555 0.114498 24.4539 0.636989 24.667L3.39809 25.7928C3.52416 25.8442 3.65458 25.8686 3.78305 25.8686C4.18685 25.8686 4.57033 25.628 4.73198 25.2316L4.75736 25.1694L5.39397 25.4289C5.39432 25.429 5.39468 25.4293 5.3951 25.4294C6.004 25.6777 6.56502 26.0319 7.0506 26.4715C7.13891 26.5514 7.22469 26.6342 7.30787 26.7196C7.39105 26.8051 7.47149 26.8932 7.54919 26.9839C7.588 27.0293 7.62618 27.0753 7.66351 27.122C8.37107 28.0042 9.29863 28.6963 10.3458 29.1233L11.062 29.4153H5.81585C5.44699 29.4153 5.14682 29.1152 5.14682 28.7463V27.4456C5.14682 27.1617 4.91669 26.9315 4.63277 26.9315C4.34885 26.9315 4.11872 27.1617 4.11872 27.4456V28.7463C4.11872 29.6821 4.87999 30.4434 5.81585 30.4434H13.5835L20.2056 33.1436C20.4335 33.2365 20.6693 33.2806 20.9016 33.2805C21.6313 33.2805 22.3245 32.8457 22.6166 32.1292C22.7364 31.8354 22.7749 31.5283 22.7426 31.233C23.0871 31.2825 23.4442 31.2371 23.7679 31.0973C24.0969 30.9552 24.3696 30.7289 24.5632 30.4434H34.3029C35.2387 30.4434 36 29.6821 36 28.7462V5.17529C36 5.17458 35.9999 5.17402 35.9999 5.17332ZM17.8781 1.74686H22.2405L22.9148 4.66123H17.2038L17.8781 1.74686ZM16.1485 4.66123H5.38546L6.52389 1.74686H16.8229L16.1485 4.66123ZM23.0475 12.9469H23.0474L20.5751 10.7567C20.4281 10.6265 20.2437 10.5614 20.0594 10.5614C19.8751 10.5614 19.6907 10.6265 19.5436 10.7567L17.0714 12.9469V5.68934H23.0475V12.9469ZM3.78178 24.839L1.02954 23.7168L4.40215 15.4456L7.15438 16.5679L3.78178 24.839ZM24.319 27.9412L23.729 27.7006C23.7287 27.7005 23.7284 27.7004 23.7281 27.7003C23.7279 27.7002 23.7277 27.7001 23.7275 27.7C23.7274 27.7 23.7274 27.6999 23.7273 27.6999L17.583 25.1946C17.3201 25.0875 17.0201 25.2136 16.9129 25.4766C16.8057 25.7395 16.9319 26.0395 17.1948 26.1467L23.3393 28.6521C23.365 28.6626 23.3898 28.6742 23.4138 28.6869C23.4205 28.6905 23.4268 28.6948 23.4334 28.6986C23.4503 28.7081 23.4672 28.7177 23.4832 28.7283C23.4908 28.7334 23.4979 28.7393 23.5053 28.7447C23.5194 28.7548 23.5339 28.7648 23.5472 28.7758C23.5553 28.7824 23.5626 28.7898 23.5704 28.7967C23.5824 28.8073 23.5946 28.8175 23.6059 28.8288C23.6137 28.8365 23.6206 28.845 23.6281 28.853C23.6384 28.8642 23.649 28.8751 23.6587 28.8867C23.6661 28.8957 23.6726 28.9051 23.6796 28.9144C23.6884 28.9259 23.6975 28.9372 23.7056 28.9492C23.7125 28.9591 23.7183 28.9697 23.7246 28.9799C23.7319 28.9917 23.7397 29.0033 23.7463 29.0155C23.7524 29.0264 23.7575 29.0379 23.763 29.0491C23.7689 29.0611 23.7753 29.0729 23.7807 29.0852C23.7858 29.097 23.7899 29.1093 23.7945 29.1213C23.7991 29.1334 23.8042 29.1454 23.8083 29.1578C23.8124 29.1702 23.8155 29.183 23.8189 29.1955C23.8223 29.208 23.8262 29.2202 23.8291 29.2328C23.832 29.2455 23.8338 29.2585 23.8361 29.2713C23.8384 29.2841 23.8411 29.2967 23.8428 29.3097C23.8445 29.3226 23.8451 29.3357 23.8462 29.3487C23.8472 29.3618 23.8488 29.3748 23.8492 29.3878C23.8496 29.4007 23.849 29.4137 23.8489 29.4267C23.8487 29.44 23.8489 29.4534 23.8481 29.4668C23.8473 29.4795 23.8454 29.4923 23.844 29.505C23.8425 29.5187 23.8414 29.5324 23.8392 29.546C23.8371 29.5586 23.834 29.571 23.8313 29.5835C23.8284 29.5974 23.8259 29.6112 23.8222 29.625C23.819 29.6372 23.8146 29.6493 23.8107 29.6614C23.8064 29.6751 23.8024 29.6889 23.7972 29.7025C23.7929 29.7118 23.7886 29.7213 23.7846 29.7308C23.7837 29.7329 23.7832 29.7352 23.7823 29.7373C23.702 29.9227 23.5538 30.07 23.3603 30.1536C23.1472 30.2455 22.9033 30.2487 22.691 30.1621L21.6023 29.7182C21.5972 29.7162 21.5921 29.7148 21.587 29.7129C21.5819 29.7106 21.5771 29.7079 21.5719 29.7058L16.5743 27.6681C16.3113 27.5609 16.0114 27.6871 15.9043 27.95C15.797 28.2129 15.9232 28.5129 16.1861 28.6202L21.1837 30.6579C21.189 30.6601 21.1944 30.6616 21.1998 30.6636C21.2047 30.6657 21.2092 30.6683 21.2142 30.6703C21.6336 30.8413 21.8357 31.3217 21.6647 31.7411C21.4937 32.1607 21.0135 32.3629 20.5939 32.1917L13.8794 29.4539C13.8791 29.4537 13.8788 29.4536 13.8786 29.4534L10.7342 28.1713C10.1807 27.9456 9.66671 27.6324 9.21299 27.247C8.94074 27.0157 8.69022 26.7586 8.46578 26.4787C8.24465 26.203 8.00207 25.9459 7.74107 25.7096C7.16683 25.1898 6.50343 24.7709 5.7835 24.4773C5.78343 24.4773 5.78336 24.4772 5.78329 24.4772L5.14584 24.2174L6.41547 21.1036L7.61528 18.1611L7.7038 18.1971C7.78712 18.2311 7.90595 18.2793 8.22573 18.2914C8.62525 18.3095 9.28618 18.2678 10.4702 18.1005C11.2757 17.9868 12.2636 17.8222 13.417 17.61C13.4454 17.6048 13.4736 17.5996 13.5023 17.5944C13.5562 17.5844 13.6107 17.5742 13.6654 17.5641C13.7079 17.5562 13.7507 17.5482 13.7938 17.5401C13.8428 17.5309 13.8921 17.5217 13.9418 17.5124C13.9944 17.5025 14.0477 17.4924 14.1013 17.4822C14.1442 17.474 14.187 17.466 14.2303 17.4577C14.2957 17.4453 14.3621 17.4326 14.4288 17.4198C14.4631 17.4132 14.497 17.4067 14.5316 17.4001C14.6337 17.3804 14.7371 17.3604 14.8425 17.34C17.8139 16.762 20.682 16.1187 20.8109 16.0897C20.8237 16.0871 20.8366 16.0855 20.8495 16.0836C21.1797 16.0348 21.5032 16.2257 21.5979 16.5338C21.6311 16.6421 21.635 16.7526 21.614 16.8565C21.568 17.0852 21.4018 17.2826 21.1642 17.3561L16.0678 18.9334C15.8603 18.9977 15.7156 19.1852 15.7063 19.4022C15.6968 19.6191 15.8247 19.8186 16.0258 19.9006L25.3565 23.7053C25.5597 23.7881 25.7185 23.9451 25.8035 24.1474C25.8886 24.3497 25.8899 24.573 25.807 24.7761C25.7241 24.9793 25.5672 25.1381 25.3649 25.2232C25.2638 25.2656 25.1574 25.2872 25.0508 25.2878C25.0493 25.2878 25.0478 25.2876 25.0462 25.2876C25.0212 25.2876 24.9962 25.2866 24.9713 25.2843C24.9639 25.2836 24.9566 25.282 24.9492 25.2812C24.9301 25.2789 24.9111 25.2767 24.8922 25.273C24.8802 25.2707 24.8684 25.2672 24.8565 25.2644C24.8423 25.261 24.828 25.2581 24.814 25.254C24.7994 25.2497 24.7851 25.244 24.7708 25.2388C24.7594 25.2348 24.7478 25.2314 24.7365 25.2268L18.5915 22.7212C18.3286 22.6139 18.0287 22.7402 17.9215 23.0031C17.8142 23.266 17.9404 23.566 18.2034 23.6733L25.6534 26.711C25.7042 26.7317 25.7522 26.757 25.797 26.7866C25.9314 26.8752 26.0366 27.0014 26.1004 27.1531C26.1749 27.3301 26.1851 27.5232 26.131 27.7048C26.1233 27.7307 26.1142 27.7565 26.1038 27.7818C26.0932 27.8081 26.0813 27.8334 26.0683 27.8579C26.038 27.9149 26.001 27.9663 25.9598 28.0132C25.9343 28.0423 25.9069 28.0695 25.8778 28.0944C25.8731 28.0983 25.8689 28.1028 25.8642 28.1066C25.6766 28.26 25.4258 28.326 25.1808 28.2765C25.1311 28.2664 25.0816 28.2522 25.033 28.2323L24.319 27.9412Z" fill="#2D2C38"/>
</svg>
