<svg width="26" height="26" viewBox="0 0 26 26" xmlns="http://www.w3.org/2000/svg"><path d="M13 0.8125C11.7071 0.8125 10.4671 1.32611 9.55286 2.24035C8.63862 3.15459 8.125 4.39457 8.125 5.6875V6.5H7.45063C6.7666 6.49928 6.10864 6.76241 5.61374 7.23461C5.11884 7.70681 4.82513 8.35169 4.79375 9.035L4.15188 22.4006C4.13542 22.76 4.19191 23.1191 4.31794 23.456C4.44397 23.793 4.63694 24.101 4.8852 24.3614C5.13346 24.6218 5.43187 24.8293 5.76246 24.9712C6.09305 25.1132 6.44897 25.1868 6.80875 25.1875H19.1913C19.551 25.1868 19.9069 25.1132 20.2375 24.9712C20.5681 24.8293 20.8665 24.6218 21.1148 24.3614C21.3631 24.101 21.556 23.793 21.6821 23.456C21.8081 23.1191 21.8646 22.76 21.8481 22.4006L21.2063 9.035C21.1749 8.35169 20.8812 7.70681 20.3863 7.23461C19.8914 6.76241 19.2334 6.49928 18.5494 6.5H17.875V5.6875C17.875 4.39457 17.3614 3.15459 16.4471 2.24035C15.5329 1.32611 14.2929 0.8125 13 0.8125V0.8125ZM9.75 5.6875C9.75 4.82555 10.0924 3.9989 10.7019 3.3894C11.3114 2.77991 12.138 2.4375 13 2.4375C13.862 2.4375 14.6886 2.77991 15.2981 3.3894C15.9076 3.9989 16.25 4.82555 16.25 5.6875V6.5H9.75V5.6875ZM19.5813 9.10812L20.2231 22.4819C20.2282 22.6216 20.2057 22.761 20.1569 22.892C20.1081 23.0231 20.034 23.1432 19.9388 23.2456C19.8415 23.3455 19.7253 23.425 19.5969 23.4794C19.4686 23.5338 19.3307 23.562 19.1913 23.5625H6.80875C6.66934 23.562 6.53142 23.5338 6.40307 23.4794C6.27472 23.425 6.15851 23.3455 6.06125 23.2456C5.966 23.1432 5.89186 23.0231 5.84307 22.892C5.79427 22.761 5.77178 22.6216 5.77688 22.4819L6.41875 9.10812C6.43129 8.84299 6.54552 8.59289 6.73769 8.40979C6.92986 8.2267 7.1852 8.1247 7.45063 8.125H18.5494C18.8148 8.1247 19.0701 8.2267 19.2623 8.40979C19.4545 8.59289 19.5687 8.84299 19.5813 9.10812V9.10812Z"/></svg>