<svg width="26" height="26" viewBox="0 0 26 26" xmlns="http://www.w3.org/2000/svg"><path d="M14.1459 12.8145L22.7405 4.49409C23.0865 4.15205 23.0865 3.59784 22.7405 3.25653C22.3952 2.91449 21.8346 2.91449 21.4886 3.25653L12.894 11.5769L4.51091 3.25653C4.16563 2.91449 3.60429 2.91449 3.25903 3.25653C2.91375 3.59786 2.91375 4.15208 3.25903 4.49409L11.6414 12.8145L3.25896 21.5063C2.91368 21.8476 2.91368 22.4025 3.25896 22.7438C3.43195 22.9149 3.65878 23 3.8849 23C4.11173 23 4.33785 22.9149 4.51084 22.7438L12.8933 14.0521L21.4886 22.7438C21.6616 22.9149 21.8884 23 22.1146 23C22.3414 23 22.5682 22.9149 22.7405 22.7438C23.0865 22.4018 23.0865 21.8476 22.7405 21.5063L14.1459 12.8145Z"/></svg>