<svg width="26" height="26" viewBox="0 0 26 26" xmlns="http://www.w3.org/2000/svg"><path d="M13 24.5658C12.6299 24.5658 12.273 24.4317 11.9949 24.1881C10.9446 23.2697 9.93193 22.4066 9.0385 21.6453L9.03394 21.6413C6.41454 19.4091 4.1526 17.4814 2.57878 15.5825C0.819493 13.4596 5.14984e-05 11.4468 5.14984e-05 9.24795C5.14984e-05 7.11157 0.732609 5.14063 2.06264 3.69792C3.40854 2.23817 5.25531 1.4342 7.26334 1.4342C8.76416 1.4342 10.1386 1.90868 11.3484 2.84437C11.959 3.31667 12.5124 3.8947 13 4.56894C13.4878 3.8947 14.041 3.31667 14.6518 2.84437C15.8616 1.90868 17.2361 1.4342 18.7369 1.4342C20.7447 1.4342 22.5917 2.23817 23.9376 3.69792C25.2676 5.14063 26 7.11157 26 9.24795C26 11.4468 25.1808 13.4596 23.4215 15.5823C21.8476 17.4814 19.5859 19.4089 16.9669 21.6409C16.0719 22.4034 15.0577 23.2679 14.0049 24.1885C13.727 24.4317 13.37 24.5658 13 24.5658V24.5658ZM7.26334 2.95723C5.68576 2.95723 4.23651 3.58684 3.1822 4.73021C2.11223 5.89084 1.52289 7.4952 1.52289 9.24795C1.52289 11.0973 2.21022 12.7513 3.75131 14.6107C5.24082 16.4081 7.45635 18.2961 10.0216 20.4823L10.0264 20.4863C10.9232 21.2505 11.9398 22.117 12.9978 23.0422C14.0623 22.1152 15.0805 21.2474 15.9791 20.4819C18.5441 18.2957 20.7594 16.4081 22.2489 14.6107C23.7898 12.7513 24.4772 11.0973 24.4772 9.24795C24.4772 7.4952 23.8878 5.89084 22.8178 4.73021C21.7637 3.58684 20.3143 2.95723 18.7369 2.95723C17.5812 2.95723 16.5202 3.3246 15.5833 4.04903C14.7484 4.6949 14.1668 5.51137 13.8258 6.08266C13.6505 6.37643 13.3418 6.55179 13 6.55179C12.6582 6.55179 12.3496 6.37643 12.1742 6.08266C11.8334 5.51137 11.2518 4.6949 10.4167 4.04903C9.47986 3.3246 8.41881 2.95723 7.26334 2.95723V2.95723Z"/></svg>