<svg width="26" height="26" viewBox="0 0 26 26" xmlns="http://www.w3.org/2000/svg"><path d="M5.5 8.625H8C8 9.31438 8.56062 9.875 9.25 9.875H10.5C11.1894 9.875 11.75 9.31438 11.75 8.625H20.5C20.845 8.625 21.125 8.34562 21.125 8C21.125 7.65438 20.845 7.375 20.5 7.375H11.75C11.75 6.68562 11.1894 6.125 10.5 6.125H9.25C8.56062 6.125 8 6.68562 8 7.375H5.5C5.155 7.375 4.875 7.65438 4.875 8C4.875 8.34562 5.155 8.625 5.5 8.625Z"/><path d="M20.5 12.375H16.75C16.75 11.6856 16.1894 11.125 15.5 11.125H14.25C13.5606 11.125 13 11.6856 13 12.375H5.5C5.155 12.375 4.875 12.6544 4.875 13C4.875 13.3456 5.155 13.625 5.5 13.625H13C13 14.3144 13.5606 14.875 14.25 14.875H15.5C16.1894 14.875 16.75 14.3144 16.75 13.625H20.5C20.845 13.625 21.125 13.3456 21.125 13C21.125 12.6544 20.845 12.375 20.5 12.375Z"/><path d="M20.5 17.375H11.75C11.75 16.6856 11.1894 16.125 10.5 16.125H9.25C8.56062 16.125 8 16.6856 8 17.375H5.5C5.155 17.375 4.875 17.6544 4.875 18C4.875 18.3456 5.155 18.625 5.5 18.625H8C8 19.3144 8.56062 19.875 9.25 19.875H10.5C11.1894 19.875 11.75 19.3144 11.75 18.625H20.5C20.845 18.625 21.125 18.3456 21.125 18C21.125 17.6544 20.845 17.375 20.5 17.375Z"/></svg>