<svg width="26" height="26" viewBox="0 0 26 26" xmlns="http://www.w3.org/2000/svg"><path d="M13 20.5C12.7437 20.5 12.4967 20.413 12.3042 20.2551C11.577 19.6595 10.8759 19.0998 10.2574 18.6062L10.2542 18.6036C8.44081 17.1561 6.87485 15.906 5.78528 14.6747C4.56731 13.298 4 11.9928 4 10.5669C4 9.18157 4.50716 7.90348 5.42795 6.96794C6.35973 6.02134 7.63826 5.5 9.02844 5.5C10.0675 5.5 11.019 5.80769 11.8566 6.41444C12.2793 6.72071 12.6624 7.09555 13 7.53277C13.3377 7.09555 13.7207 6.72071 14.1435 6.41444C14.9811 5.80769 15.9327 5.5 16.9717 5.5C18.3617 5.5 19.6404 6.02134 20.5722 6.96794C21.493 7.90348 22 9.18157 22 10.5669C22 11.9928 21.4328 13.298 20.2149 14.6745C19.1253 15.906 17.5595 17.156 15.7463 18.6033C15.1267 19.0978 14.4245 19.6584 13.6957 20.2553C13.5033 20.413 13.2561 20.5 13 20.5V20.5ZM9.02844 6.48763C7.93626 6.48763 6.93294 6.89591 6.20303 7.63734C5.46228 8.38997 5.05428 9.43034 5.05428 10.5669C5.05428 11.7662 5.53012 12.8387 6.59703 14.0445C7.62823 15.21 9.16206 16.4343 10.938 17.852L10.9413 17.8546C11.5622 18.3502 12.266 18.912 12.9985 19.512C13.7354 18.9109 14.4403 18.3481 15.0624 17.8517C16.8382 16.4341 18.3719 15.21 19.4031 14.0445C20.4699 12.8387 20.9457 11.7662 20.9457 10.5669C20.9457 9.43034 20.5377 8.38997 19.797 7.63734C19.0672 6.89591 18.0637 6.48763 16.9717 6.48763C16.1716 6.48763 15.437 6.72586 14.7884 7.19562C14.2104 7.61445 13.8078 8.1439 13.5717 8.51436C13.4503 8.70486 13.2366 8.81857 13 8.81857C12.7634 8.81857 12.5497 8.70486 12.4283 8.51436C12.1924 8.1439 11.7897 7.61445 11.2116 7.19562C10.563 6.72586 9.82838 6.48763 9.02844 6.48763V6.48763Z"/></svg>