<svg width="26" height="26" viewBox="0 0 26 26" xmlns="http://www.w3.org/2000/svg"><path d="M13 20.5C12.7437 20.5 12.4967 20.413 12.3042 20.2551C11.577 19.6595 10.8759 19.0998 10.2574 18.6062L10.2542 18.6036C8.44082 17.1561 6.87486 15.906 5.78529 14.6747C4.56732 13.298 4.00002 11.9928 4.00002 10.5669C4.00002 9.18157 4.50717 7.90348 5.42796 6.96794C6.35974 6.02134 7.63827 5.5 9.02845 5.5C10.0675 5.5 11.019 5.80769 11.8566 6.41444C12.2793 6.72071 12.6624 7.09555 13 7.53277C13.3377 7.09555 13.7207 6.72071 14.1435 6.41444C14.9811 5.80769 15.9327 5.5 16.9717 5.5C18.3617 5.5 19.6404 6.02134 20.5722 6.96794C21.493 7.90348 22 9.18157 22 10.5669C22 11.9928 21.4328 13.298 20.2148 14.6745C19.1253 15.906 17.5595 17.156 15.7463 18.6033C15.1267 19.0978 14.4245 19.6584 13.6957 20.2553C13.5033 20.413 13.2561 20.5 13 20.5Z"/></svg>