<svg width="26" height="26" viewBox="0 0 26 26" xmlns="http://www.w3.org/2000/svg"><path d="M16.641 5.12828L14.7521 5.125C12.63 5.125 11.2587 6.64637 11.2587 9.0011C11.2587 9.98811 10.4585 10.7882 9.47152 10.7882H9.3595C9.19539 10.7882 9.0625 10.9321 9.0625 11.1096V13.6989C9.0625 13.8764 9.19555 14.0201 9.3595 14.0201C10.4084 14.0201 11.2587 14.8703 11.2587 15.9192V20.5538C11.2587 20.7313 11.3916 20.875 11.5557 20.875H14.0335C14.1976 20.875 14.3305 20.7311 14.3305 20.5538V16.2406C14.3305 15.0142 15.3247 14.0201 16.5511 14.0201C16.7152 14.0201 16.8481 13.8764 16.8481 13.6989L16.849 11.1096C16.849 11.0243 16.8176 10.9427 16.762 10.8825C16.7064 10.8222 16.6306 10.7882 16.5518 10.7882H15.8455C15.0088 10.7882 14.3305 10.11 14.3305 9.27325C14.3305 8.54509 14.491 8.17544 15.3682 8.17544L16.6406 8.17495C16.8046 8.17495 16.9375 8.03109 16.9375 7.8538V5.44943C16.9375 5.2723 16.8048 5.1286 16.641 5.12828Z"/></svg>