<svg width="26" height="26" viewBox="0 0 26 26" xmlns="http://www.w3.org/2000/svg"><path d="M21.8089 11.2162L5.67241 4.52053C4.99261 4.23842 4.2246 4.36252 3.66816 4.84424C3.11171 5.32604 2.87898 6.06838 3.06085 6.78154L4.49714 12.414H11.5294C11.853 12.414 12.1154 12.6764 12.1154 13C12.1154 13.3236 11.853 13.586 11.5294 13.586H4.49714L3.06085 19.2185C2.87898 19.9317 3.11167 20.674 3.66816 21.1558C4.22573 21.6385 4.99382 21.761 5.67245 21.4795L21.8089 14.7838C22.5436 14.479 23 13.7955 23 13C23 12.2046 22.5436 11.521 21.8089 11.2162Z"/></svg>