<svg width="26" height="26" viewBox="0 0 26 26" xmlns="http://www.w3.org/2000/svg"><path d="M12.847 12.5547C14.4578 12.5547 15.8525 11.9769 16.9924 10.837C18.1319 9.69735 18.7098 8.30286 18.7098 6.69183C18.7098 5.08135 18.1321 3.68668 16.9922 2.54661C15.8523 1.40709 14.4577 0.82935 12.847 0.82935C11.236 0.82935 9.84147 1.40709 8.70177 2.54679C7.56207 3.68649 6.98415 5.08117 6.98415 6.69183C6.98415 8.30286 7.56207 9.69753 8.70177 10.8372C9.84184 11.9767 11.2365 12.5547 12.847 12.5547V12.5547ZM9.71055 3.55538C10.5851 2.68087 11.6109 2.25578 12.847 2.25578C14.0829 2.25578 15.1089 2.68087 15.9836 3.55538C16.8581 4.43007 17.2834 5.45612 17.2834 6.69183C17.2834 7.92791 16.8581 8.95377 15.9836 9.82846C15.1089 10.7032 14.0829 11.1282 12.847 11.1282C11.6113 11.1282 10.5854 10.703 9.71055 9.82846C8.83586 8.95395 8.41058 7.92791 8.41058 6.69183C8.41058 5.45612 8.83586 4.43007 9.71055 3.55538Z"/><path d="M23.1048 19.5466C23.072 19.0723 23.0055 18.5549 22.9076 18.0086C22.8088 17.4581 22.6816 16.9378 22.5293 16.4622C22.3718 15.9706 22.1581 15.4852 21.8934 15.02C21.6191 14.5371 21.2968 14.1167 20.935 13.7707C20.5567 13.4087 20.0935 13.1177 19.558 12.9055C19.0242 12.6943 18.4327 12.5873 17.8 12.5873C17.5516 12.5873 17.3112 12.6893 16.8472 12.9915C16.5615 13.1777 16.2274 13.3931 15.8545 13.6314C15.5357 13.8346 15.1037 14.0249 14.5702 14.1973C14.0496 14.3657 13.5211 14.4511 12.9993 14.4511C12.4778 14.4511 11.9493 14.3657 11.4283 14.1973C10.8954 14.0251 10.4632 13.8348 10.1449 13.6316C9.77553 13.3956 9.44125 13.1801 9.15136 12.9913C8.68764 12.6891 8.44733 12.5872 8.19885 12.5872C7.56595 12.5872 6.97466 12.6943 6.44111 12.9057C5.9059 13.1175 5.44255 13.4086 5.06389 13.7709C4.70213 14.117 4.37974 14.5373 4.10563 15.02C3.84137 15.4852 3.62743 15.9704 3.46995 16.4624C3.31785 16.938 3.19064 17.4581 3.09184 18.0086C2.99379 18.5542 2.92749 19.0718 2.89462 19.5472C2.8623 20.012 2.84596 20.4958 2.84596 20.9846C2.84596 22.2552 3.24988 23.2838 4.04639 24.0425C4.83305 24.7911 5.87377 25.1707 7.13975 25.1707H18.8602C20.1259 25.1707 21.1666 24.7911 21.9534 24.0425C22.7501 23.2844 23.154 22.2554 23.154 20.9844C23.1539 20.4939 23.1373 20.0102 23.1048 19.5466V19.5466ZM20.9699 23.009C20.4501 23.5037 19.76 23.7442 18.8601 23.7442H7.13975C6.23962 23.7442 5.54952 23.5037 5.02991 23.0092C4.52013 22.5239 4.2724 21.8615 4.2724 20.9846C4.2724 20.5285 4.28744 20.0781 4.31752 19.6458C4.34687 19.2216 4.40685 18.7557 4.49581 18.2606C4.58365 17.7716 4.69544 17.3127 4.82841 16.8973C4.95599 16.4989 5.13 16.1045 5.3458 15.7245C5.55175 15.3624 5.78872 15.0517 6.05019 14.8014C6.29477 14.5672 6.60305 14.3755 6.9663 14.2318C7.30225 14.0988 7.67979 14.026 8.08966 14.0151C8.13961 14.0416 8.22857 14.0923 8.37268 14.1863C8.66591 14.3774 9.0039 14.5954 9.37755 14.8341C9.79874 15.1026 10.3414 15.3451 10.9897 15.5544C11.6525 15.7687 12.3285 15.8776 12.9994 15.8776C13.6704 15.8776 14.3466 15.7687 15.009 15.5546C15.6579 15.3449 16.2003 15.1026 16.6221 14.8337C17.0045 14.5893 17.333 14.3776 17.6262 14.1863C17.7703 14.0925 17.8593 14.0416 17.9092 14.0151C18.3193 14.026 18.6968 14.0988 19.033 14.2318C19.396 14.3755 19.7043 14.5674 19.9489 14.8014C20.2104 15.0515 20.4473 15.3622 20.6533 15.7247C20.8693 16.1045 21.0434 16.4991 21.1708 16.8971C21.304 17.3131 21.416 17.7718 21.5036 18.2604C21.5924 18.7564 21.6526 19.2226 21.6819 19.646V19.6464C21.7122 20.077 21.7274 20.5272 21.7276 20.9846C21.7274 21.8617 21.4797 22.5239 20.9699 23.009V23.009Z"/></svg>