<svg width="26" height="26" viewBox="0 0 26 26" xmlns="http://www.w3.org/2000/svg"><path d="M14.9345 11.0723C14.7534 11.0723 14.6067 11.2191 14.6067 11.4002V17.5969C14.6067 17.7779 14.7534 17.9248 14.9345 17.9248C15.1156 17.9248 15.2624 17.7779 15.2624 17.5969V11.4002C15.2624 11.2191 15.1156 11.0723 14.9345 11.0723Z"/><path d="M11.0657 11.0723C10.8846 11.0723 10.7378 11.2191 10.7378 11.4002V17.5969C10.7378 17.7779 10.8846 17.9248 11.0657 17.9248C11.2468 17.9248 11.3936 17.7779 11.3936 17.5969V11.4002C11.3936 11.2191 11.2468 11.0723 11.0657 11.0723Z"/><path d="M8.24592 10.1679V18.2459C8.24592 18.7234 8.42099 19.1717 8.72683 19.4935C9.03126 19.8161 9.45493 19.9992 9.89832 20H16.1017C16.5452 19.9992 16.9689 19.8161 17.2732 19.4935C17.579 19.1717 17.7541 18.7234 17.7541 18.2459V10.1679C18.362 10.0066 18.756 9.41922 18.6747 8.79537C18.5932 8.17166 18.0618 7.70508 17.4327 7.70496H15.7541V7.29512C15.756 6.95048 15.6197 6.61953 15.3758 6.37607C15.1318 6.13273 14.8003 5.99723 14.4557 6.00004H11.5443C11.1997 5.99723 10.8682 6.13273 10.6242 6.37607C10.3803 6.61953 10.244 6.95048 10.2459 7.29512V7.70496H8.56725C7.93816 7.70508 7.40678 8.17166 7.32533 8.79537C7.244 9.41922 7.63795 10.0066 8.24592 10.1679V10.1679ZM16.1017 19.3443H9.89832C9.33774 19.3443 8.90165 18.8627 8.90165 18.2459V10.1968H17.0983V18.2459C17.0983 18.8627 16.6623 19.3443 16.1017 19.3443ZM10.9016 7.29512C10.8995 7.1244 10.9666 6.96008 11.0877 6.83956C11.2088 6.71905 11.3735 6.65283 11.5443 6.65578H14.4557C14.6265 6.65283 14.7912 6.71905 14.9123 6.83956C15.0334 6.95995 15.1005 7.1244 15.0984 7.29512V7.70496H10.9016V7.29512ZM8.56725 8.36069H17.4327C17.7587 8.36069 18.0229 8.62491 18.0229 8.95085C18.0229 9.2768 17.7587 9.54102 17.4327 9.54102H8.56725C8.24131 9.54102 7.97709 9.2768 7.97709 8.95085C7.97709 8.62491 8.24131 8.36069 8.56725 8.36069V8.36069Z"/><path d="M13.0001 11.0723C12.819 11.0723 12.6722 11.2191 12.6722 11.4002V17.5969C12.6722 17.7779 12.819 17.9248 13.0001 17.9248C13.1812 17.9248 13.328 17.7779 13.328 17.5969V11.4002C13.328 11.2191 13.1812 11.0723 13.0001 11.0723Z"/></svg>