<svg width="26" height="26" viewBox="0 0 26 26" xmlns="http://www.w3.org/2000/svg"><path d="M1.65539 11.1808C1.23139 10.0355 0.924356 8.86589 1.01695 7.62313C1.07544 6.85799 1.36297 6.20494 1.92343 5.66885C2.53262 5.09377 3.1077 4.48945 3.70714 3.90463C4.48691 3.13461 5.46649 3.13949 6.24625 3.90463C6.72873 4.37736 7.20634 4.85984 7.68395 5.34232C8.14693 5.80531 8.61479 6.26829 9.07778 6.73615C9.89166 7.55978 9.89653 8.51987 9.08265 9.33862C8.49783 9.92344 7.91787 10.5131 7.3233 11.0882C7.16735 11.2393 7.15273 11.366 7.23558 11.5561C7.62546 12.4918 8.19079 13.3252 8.82435 14.1049C10.1012 15.6742 11.5438 17.068 13.2641 18.1451C13.6345 18.3741 14.039 18.5447 14.424 18.7543C14.6239 18.8615 14.7554 18.8274 14.9163 18.6617C15.4962 18.0622 16.0908 17.4725 16.6854 16.8828C17.4651 16.1128 18.4398 16.108 19.2196 16.8828C20.1748 17.8283 21.1251 18.7786 22.0706 19.7339C22.865 20.5331 22.8601 21.5127 22.0609 22.3168C21.5199 22.8627 20.9497 23.3793 20.4429 23.9495C19.7021 24.778 18.7664 25.0509 17.7039 24.9924C16.1541 24.9096 14.7262 24.393 13.347 23.7253C10.2864 22.2389 7.6742 20.1774 5.48598 17.5749C3.86797 15.645 2.53262 13.5493 1.65539 11.1808ZM24.9996 12.9255C24.9996 6.35114 19.6485 1 13.0741 1V3.27107C18.396 3.27107 22.7285 7.60364 22.7285 12.9255H24.9996ZM18.4691 12.9255H20.7401C20.7401 8.70019 17.2994 5.25947 13.0741 5.25947V7.53054C14.5166 7.53054 15.8715 8.09099 16.89 9.10956C17.9086 10.1281 18.4691 11.483 18.4691 12.9255Z"/></svg>