<svg width="26" height="26" viewBox="0 0 26 26" xmlns="http://www.w3.org/2000/svg"><path d="M19.9676 15.8671C19.4762 15.3555 18.8836 15.082 18.2555 15.082C17.6324 15.082 17.0347 15.3505 16.5231 15.8621L14.9225 17.4577C14.7908 17.3868 14.6591 17.3209 14.5324 17.2551C14.3501 17.1639 14.1779 17.0778 14.031 16.9866C12.5316 16.0343 11.169 14.7933 9.86217 13.1876C9.229 12.3872 8.80351 11.7135 8.49452 11.0297C8.90988 10.6498 9.29485 10.2547 9.66969 9.87481C9.81152 9.73298 9.95335 9.5861 10.0952 9.44427C11.1589 8.38054 11.1589 7.00276 10.0952 5.93903L8.71233 4.55619C8.55531 4.39916 8.39321 4.23707 8.24125 4.07498C7.93733 3.76093 7.61821 3.43674 7.28896 3.13282C6.79762 2.64655 6.21004 2.38821 5.59207 2.38821C4.97409 2.38821 4.37638 2.64655 3.86984 3.13282C3.86478 3.13789 3.86478 3.13789 3.85971 3.14295L2.13749 4.88037C1.48912 5.52874 1.11935 6.31894 1.0383 7.23577C0.916732 8.71485 1.35235 10.0926 1.68667 10.9943C2.50726 13.2078 3.73308 15.2593 5.56168 17.4577C7.78031 20.1069 10.4497 22.1989 13.4991 23.6729C14.6641 24.225 16.2192 24.8784 17.9566 24.9899C18.063 24.9949 18.1744 25 18.2757 25C19.4458 25 20.4285 24.5796 21.1984 23.7438C21.2035 23.7337 21.2136 23.7286 21.2187 23.7185C21.4821 23.3993 21.786 23.1106 22.1051 22.8016C22.323 22.594 22.5458 22.3761 22.7636 22.1482C23.2651 21.6265 23.5285 21.0186 23.5285 20.3956C23.5285 19.7675 23.26 19.1647 22.7484 18.6582L19.9676 15.8671ZM21.781 21.201C21.7759 21.201 21.7759 21.206 21.781 21.201C21.5834 21.4137 21.3808 21.6062 21.163 21.819C20.8337 22.133 20.4994 22.4623 20.1854 22.832C19.6738 23.3791 19.071 23.6374 18.2808 23.6374C18.2048 23.6374 18.1238 23.6374 18.0478 23.6324C16.5434 23.5361 15.1453 22.9485 14.0968 22.4471C11.2298 21.0591 8.71233 19.0887 6.62034 16.5915C4.89305 14.5096 3.73814 12.5848 2.97327 10.5181C2.5022 9.25684 2.32997 8.27417 2.40595 7.34721C2.45661 6.75456 2.68455 6.26322 3.10497 5.84279L4.83226 4.1155C5.08047 3.8825 5.34387 3.75586 5.6022 3.75586C5.92132 3.75586 6.17965 3.94835 6.34174 4.11044C6.34681 4.1155 6.35187 4.12057 6.35694 4.12563C6.66592 4.41436 6.95972 4.71322 7.2687 5.03233C7.42573 5.19443 7.58782 5.35652 7.74991 5.52367L9.13276 6.90652C9.66969 7.44345 9.66969 7.93985 9.13276 8.47678C8.98586 8.62368 8.84403 8.77057 8.69714 8.9124C8.27165 9.34802 7.86642 9.75324 7.42573 10.1483C7.4156 10.1585 7.40547 10.1635 7.4004 10.1737C6.96478 10.6093 7.04583 11.0348 7.137 11.3235C7.14207 11.3387 7.14713 11.3539 7.1522 11.3691C7.51184 12.2403 8.01838 13.0609 8.78831 14.0386L8.79338 14.0436C10.1914 15.7658 11.6654 17.1082 13.2914 18.1364C13.4991 18.2681 13.7118 18.3745 13.9145 18.4758C14.0968 18.567 14.269 18.6531 14.4159 18.7443C14.4362 18.7544 14.4564 18.7696 14.4767 18.7797C14.6489 18.8658 14.811 18.9064 14.9782 18.9064C15.3986 18.9064 15.662 18.643 15.7481 18.5569L17.4805 16.8245C17.6527 16.6523 17.9262 16.4446 18.2453 16.4446C18.5594 16.4446 18.8177 16.6421 18.9747 16.8144C18.9798 16.8194 18.9798 16.8194 18.9849 16.8245L21.7759 19.6155C22.2976 20.1322 22.2976 20.664 21.781 21.201Z"/><path d="M13.9702 6.70897C15.2973 6.93185 16.5029 7.55995 17.4653 8.52237C18.4277 9.48479 19.0507 10.6903 19.2787 12.0175C19.3344 12.3518 19.6231 12.5848 19.9524 12.5848C19.9929 12.5848 20.0283 12.5797 20.0689 12.5747C20.4437 12.5139 20.6919 12.1593 20.6311 11.7845C20.3576 10.1787 19.5978 8.71485 18.4378 7.55489C17.2779 6.39492 15.814 5.63511 14.2082 5.36158C13.8334 5.3008 13.4839 5.549 13.418 5.91877C13.3522 6.28855 13.5953 6.64819 13.9702 6.70897Z"/><path d="M24.9721 11.5869C24.5213 8.9428 23.2752 6.53675 21.3605 4.62204C19.4458 2.70733 17.0398 1.46125 14.3957 1.01043C14.0259 0.94458 13.6764 1.19785 13.6105 1.56762C13.5497 1.94246 13.7979 2.29197 14.1728 2.35782C16.5332 2.75799 18.686 3.87742 20.3981 5.58446C22.1102 7.29655 23.2246 9.44933 23.6248 11.8098C23.6805 12.1441 23.9692 12.3771 24.2984 12.3771C24.339 12.3771 24.3744 12.372 24.415 12.367C24.7847 12.3113 25.038 11.9567 24.9721 11.5869Z"/></svg>