<svg width="26" height="26" viewBox="0 0 26 26" xmlns="http://www.w3.org/2000/svg"><path d="M18.6 6H7.4C6.63 6 6 6.63 6 7.4V18.6C6 19.37 6.63 20 7.4 20H18.6C19.37 20 20 19.37 20 18.6V7.4C20 6.63 19.37 6 18.6 6ZM13 10.2C14.54 10.2 15.8 11.46 15.8 13C15.8 14.54 14.54 15.8 13 15.8C11.46 15.8 10.2 14.54 10.2 13C10.2 11.46 11.46 10.2 13 10.2ZM7.75 18.6C7.54 18.6 7.4 18.46 7.4 18.25V12.9157C7.4 12.5757 7.67567 12.3 8.01573 12.3H8.16359C8.51112 12.3 8.8 12.6525 8.8 13C8.8 15.31 10.69 17.2 13 17.2C15.31 17.2 17.2 15.31 17.2 13C17.2 12.6525 17.4889 12.3 17.8364 12.3H17.9843C18.3243 12.3 18.6 12.5757 18.6 12.9157V18.25C18.6 18.46 18.46 18.6 18.25 18.6H7.75ZM18.6 9.15C18.6 9.36 18.46 9.5 18.25 9.5H16.85C16.64 9.5 16.5 9.36 16.5 9.15V7.75C16.5 7.54 16.64 7.4 16.85 7.4H18.25C18.46 7.4 18.6 7.54 18.6 7.75V9.15Z"/></svg>