<svg width="26" height="26" viewBox="0 0 26 26" xmlns="http://www.w3.org/2000/svg"><path d="M11.9417 14.516C11.4136 14.9712 11.0879 15.6176 11.0364 16.3129L10.8954 18.2169C10.8587 18.713 11.276 19.1031 11.636 18.7598C12.7699 17.7196 14.4749 17.609 15.7336 18.4939L17.6015 19.807C18.3394 20.2018 18.8593 19.9939 19.0584 19.1553L21.6994 7.27547C21.6995 7.27515 21.6996 7.27486 21.6999 7.27463C21.7001 7.2744 21.7003 7.27409 21.7003 7.27377C21.9341 6.22695 21.3056 5.81763 20.5868 6.07448L5.06244 11.7802C4.00294 12.175 4.01898 12.7419 4.88233 12.9988L6.73734 13.5527C8.084 13.9548 9.53772 13.7716 10.7425 13.0479L18.0704 8.64627C18.5042 8.37047 18.8987 8.52307 18.5742 8.79887L11.9417 14.516Z"/></svg>