<svg width="26" height="26" viewBox="0 0 26 26" xmlns="http://www.w3.org/2000/svg"><path fill-rule="evenodd" clip-rule="evenodd" d="M18.5731 6.75753C19.626 7.81028 20.2056 9.20465 20.2056 10.684L20.2058 13.2729C20.2058 14.7522 19.626 16.1466 18.5732 17.1993C17.5205 18.252 16.1261 18.8317 14.6469 18.8317L14.3972 18.8318C13.0712 18.8318 11.7996 19.3586 10.8619 20.2962L10.6695 20.4887C10.4131 20.745 10.1497 20.875 9.88628 20.875C9.51762 20.875 9.08707 20.6021 9.08707 19.8332V19.8332C9.08707 18.9283 8.52554 18.1397 7.8272 17.5643C7.44164 17.2466 7.09784 16.876 6.80482 16.4597C6.14368 15.5204 5.79425 14.4185 5.79425 13.2729V10.6839C5.79425 9.20465 6.37403 7.81028 7.42678 6.75753C8.47941 5.70479 9.8739 5.125 11.353 5.125H12.9999H14.6468C16.126 5.125 17.5204 5.70479 18.5731 6.75753ZM17.4168 12.0428C17.4168 12.2976 17.6234 12.5043 17.8782 12.5043C18.1331 12.5043 18.3397 12.2976 18.3397 12.0428C18.3398 10.7403 17.8325 9.51569 16.9114 8.59464C15.9904 7.67359 14.7658 7.16638 13.4632 7.16638C13.2083 7.16638 13.0018 7.37294 13.0018 7.62781C13.0018 7.88255 13.2083 8.08923 13.4632 8.08923C14.5193 8.08923 15.5121 8.50043 16.2589 9.24712C17.0056 9.99394 17.4168 10.9867 17.4168 12.0428ZM15.4399 12.0427C15.4399 12.2975 15.6466 12.5041 15.9013 12.5041C16.1562 12.5041 16.3627 12.2975 16.3627 12.0427C16.3627 10.4439 15.0621 9.1433 13.4632 9.1433C13.2083 9.1433 13.0018 9.34998 13.0018 9.60472C13.0018 9.85959 13.2083 10.0661 13.4632 10.0661C14.5532 10.0661 15.4399 10.9528 15.4399 12.0427ZM15.6746 15.0708C15.8531 14.8907 15.853 14.6001 15.674 14.4204L14.5783 13.3246C14.3983 13.1452 14.1072 13.1447 13.9269 13.3238L13.9258 13.3246V13.3246C13.72 13.5304 13.3862 13.5304 13.1804 13.3245L13.0018 13.1459L11.83 11.9741C11.6236 11.7677 11.6236 11.4331 11.83 11.2267V11.2267C12.0088 11.0466 12.0088 10.7559 11.8296 10.576L10.7341 9.48035C10.5545 9.30139 10.2638 9.30035 10.0835 9.47842C10.0829 9.47906 10.0821 9.47958 10.0815 9.48023V9.48023L9.18469 10.3772C8.70416 10.8578 8.70416 11.644 9.18469 12.1247L13.0288 15.969C13.5095 16.4496 14.2957 16.4494 14.7762 15.969L15.6746 15.0708Z"/></svg>