<svg width="26" height="26" viewBox="0 0 26 26" xmlns="http://www.w3.org/2000/svg"><path d="M13.0022 4H12.9978C8.03538 4 4 8.0365 4 13C4 14.9688 4.6345 16.7935 5.71338 18.2751L4.59175 21.6186L8.05113 20.5128C9.47425 21.4555 11.1719 22 13.0022 22C17.9646 22 22 17.9624 22 13C22 8.03763 17.9646 4 13.0022 4ZM18.2391 16.7091C18.022 17.3222 17.1602 17.8307 16.4729 17.9792C16.0026 18.0794 15.3884 18.1593 13.3206 17.302C10.6757 16.2063 8.9725 13.5186 8.83975 13.3442C8.71263 13.1699 7.771 11.9211 7.771 10.6296C7.771 9.33813 8.42688 8.70925 8.69125 8.43925C8.90838 8.21763 9.26725 8.11637 9.6115 8.11637C9.72287 8.11637 9.823 8.122 9.913 8.1265C10.1774 8.13775 10.3101 8.1535 10.4845 8.57088C10.7016 9.094 11.2304 10.3855 11.2934 10.5183C11.3575 10.651 11.4216 10.831 11.3316 11.0054C11.2473 11.1854 11.173 11.2652 11.0402 11.4182C10.9075 11.5712 10.7815 11.6883 10.6487 11.8525C10.5272 11.9954 10.39 12.1484 10.543 12.4128C10.696 12.6715 11.2247 13.5344 12.0032 14.2274C13.0079 15.1217 13.8224 15.4075 14.1137 15.529C14.3309 15.619 14.5896 15.5976 14.7482 15.4289C14.9496 15.2118 15.1982 14.8518 15.4514 14.4974C15.6314 14.2431 15.8586 14.2116 16.0971 14.3016C16.3401 14.386 17.626 15.0216 17.8904 15.1532C18.1548 15.286 18.3291 15.349 18.3932 15.4604C18.4562 15.5718 18.4562 16.0949 18.2391 16.7091Z"/></svg>