<svg width="26" height="26" viewBox="0 0 26 26" xmlns="http://www.w3.org/2000/svg"><path d="M10.7397 3C15.0142 3 18.4794 6.48864 18.4794 10.7921C18.4794 12.6535 17.831 14.3624 16.7494 15.7025L22.7655 21.624C23.0782 21.9388 23.0782 22.4491 22.7655 22.7639C22.4813 23.0501 22.0365 23.0761 21.723 22.8419L21.6333 22.7639L15.6171 16.8425C14.2859 17.9315 12.5885 18.5842 10.7397 18.5842C6.46516 18.5842 3 15.0956 3 10.7921C3 6.48864 6.46516 3 10.7397 3ZM10.7397 4.61216C7.34955 4.61216 4.60131 7.379 4.60131 10.7921C4.60131 14.2051 7.34955 16.972 10.7397 16.972C14.1298 16.972 16.878 14.2051 16.878 10.7921C16.878 7.379 14.1298 4.61216 10.7397 4.61216Z"/></svg>