<svg width="49" height="52" viewBox="0 0 49 52" fill="none" xmlns="http://www.w3.org/2000/svg">
<path d="M12.6274 9.54802C12.6274 9.06972 12.2397 8.68204 11.7614 8.68204C10.8048 8.68204 10.0293 7.90658 10.0293 6.94997C10.0293 6.47166 9.64155 6.08398 9.16335 6.08398C8.68514 6.08398 8.29736 6.47166 8.29736 6.94997C8.29736 8.86309 9.84828 10.414 11.7614 10.414C12.2397 10.414 12.6274 10.0263 12.6274 9.54802Z" fill="#2D2C38"/>
<path d="M11.7615 5.2183C12.7181 5.2183 13.4936 5.99376 13.4936 6.95037C13.4936 7.42867 13.8812 7.81635 14.3595 7.81635C14.8379 7.81635 15.2255 7.42867 15.2255 6.95037C15.2255 5.03724 13.6746 3.48633 11.7615 3.48633C11.2832 3.48633 10.8955 3.87401 10.8955 4.35231C10.8955 4.83062 11.2832 5.2183 11.7615 5.2183Z" fill="#2D2C38"/>
<path d="M13.9378 23.5015C14.9563 22.6815 15.4243 21.3566 15.147 20.0788C14.8696 18.8009 13.8943 17.7893 12.6275 17.4654V13.8186C16.2566 13.3614 18.905 10.1616 18.676 6.51093C18.447 2.86025 15.4194 0.0166016 11.7615 0.0166016C8.1036 0.0166016 5.07595 2.86025 4.8469 6.51093C4.61784 10.1616 7.26623 13.3614 10.8954 13.8186V17.4654C9.62853 17.7893 8.65335 18.8009 8.37589 20.0788C8.09852 21.3566 8.56658 22.6815 9.5851 23.5015L1.72517 35.9618C-0.0198902 39.1992 0.106765 43.1241 2.05683 46.2423C4.0213 49.7645 7.72861 51.9575 11.7615 51.9831C15.7933 51.9581 19.5001 49.7664 21.4652 46.2457C23.42 43.1156 23.5389 39.1755 21.7761 35.9332L13.9378 23.5015ZM6.56537 6.95016C6.56537 4.08043 8.89174 1.75405 11.7615 1.75405C14.6312 1.75405 16.9576 4.08043 16.9576 6.95016C16.9576 9.81989 14.6312 12.1463 11.7615 12.1463C8.89296 12.1434 6.56821 9.81868 6.56537 6.95016ZM10.5367 19.5817C10.8616 19.2568 11.3021 19.0743 11.7615 19.0743C12.7181 19.0743 13.4935 19.8498 13.4935 20.8064C13.4905 21.2747 13.2958 21.7213 12.9549 22.0422C12.2863 21.4066 11.2367 21.4066 10.5681 22.0422C10.2271 21.7213 10.0324 21.2747 10.0294 20.8064C10.0294 20.3471 10.2119 19.9065 10.5367 19.5817ZM19.9696 45.3788C18.3102 48.3621 15.1752 50.2231 11.7615 50.2511C8.34767 50.2229 5.21286 48.3607 3.55507 45.3763C1.92297 42.8029 1.79144 39.5532 3.21043 36.8564L11.7615 23.2928L20.2926 36.8279C21.7287 39.5293 21.6054 42.7935 19.9696 45.3788Z" fill="#2D2C38"/>
<path d="M18.8004 37.7072L12.494 27.7056C12.3251 27.4687 12.0522 27.3281 11.7614 27.3281C11.4705 27.3281 11.1976 27.4687 11.0288 27.7056L9.45257 30.2066C9.21621 30.6098 9.34246 31.1279 9.73785 31.3771C10.1332 31.6264 10.6551 31.5169 10.917 31.1297L11.7614 29.7917L17.31 38.5888C17.5041 38.9413 17.6451 39.3208 17.7283 39.7146C17.815 40.1236 17.8469 40.5424 17.8236 40.9599C17.7956 41.4115 17.7121 41.8579 17.575 42.2893C17.427 42.7595 17.2265 43.2115 16.9775 43.6368C16.6952 44.1205 16.3546 44.5678 15.9634 44.9687C15.5923 45.3499 15.1741 45.6823 14.719 45.9577C14.2756 46.2246 13.7985 46.4311 13.3004 46.5717C12.2941 46.8529 11.2298 46.8529 10.2235 46.5717C9.72536 46.4308 9.24828 46.224 8.80488 45.9568C8.34931 45.6823 7.93108 45.3501 7.56045 44.9686C7.16993 44.5662 6.83026 44.1174 6.54894 43.6323C6.3003 43.2065 6.09986 42.7542 5.95139 42.284C5.8157 41.8531 5.73289 41.4072 5.70457 40.9563C5.67737 40.5381 5.7065 40.1181 5.79114 39.7076C5.87091 39.331 6.00294 38.9675 6.18349 38.6276L9.33748 33.6273C9.5027 33.3657 9.51579 33.0358 9.37189 32.7619C9.22798 32.488 8.94879 32.3117 8.63966 32.2994C8.33053 32.2872 8.03825 32.4407 7.87303 32.7023L4.69651 37.7504C4.42077 38.2509 4.22033 38.7893 4.10159 39.3482C3.98275 39.9109 3.94053 40.4872 3.97605 41.0612C4.01178 41.6529 4.11996 42.2381 4.29817 42.8036C4.4847 43.3973 4.7374 43.9682 5.05161 44.5053C5.40356 45.1142 5.8297 45.6772 6.32029 46.1811C6.79484 46.669 7.33008 47.0939 7.91292 47.4455C8.48865 47.7921 9.10812 48.06 9.7549 48.2423C11.0674 48.6118 12.4564 48.6118 13.7689 48.2423C14.4157 48.0601 15.0352 47.7922 15.6109 47.4455C16.1936 47.0938 16.7288 46.6689 17.2035 46.1811C17.6934 45.6773 18.1189 45.1147 18.4705 44.5062C18.7847 43.9691 19.0374 43.3982 19.2239 42.8045C19.4025 42.2388 19.5113 41.6534 19.5477 41.0612C19.5827 40.4871 19.5402 39.9109 19.4213 39.3482C19.2982 38.7731 19.0888 38.2199 18.8004 37.7072Z" fill="#2D2C38"/>
<path d="M38.6079 9.54802C38.6079 9.06972 38.2202 8.68204 37.7419 8.68204C36.7853 8.68204 36.0098 7.90658 36.0098 6.94997C36.0098 6.47166 35.6221 6.08398 35.1438 6.08398C34.6655 6.08398 34.2778 6.47166 34.2778 6.94997C34.2778 8.86309 35.8287 10.414 37.7419 10.414C38.2202 10.414 38.6079 10.0263 38.6079 9.54802Z" fill="#2D2C38"/>
<path d="M37.742 5.2183C38.6986 5.2183 39.474 5.99376 39.474 6.95037C39.474 7.42867 39.8618 7.81635 40.34 7.81635C40.8183 7.81635 41.206 7.42867 41.206 6.95037C41.206 5.03724 39.6551 3.48633 37.742 3.48633C37.2637 3.48633 36.876 3.87401 36.876 4.35231C36.876 4.83062 37.2637 5.2183 37.742 5.2183Z" fill="#2D2C38"/>
<path d="M47.7567 35.9332L39.9184 23.5015C40.9369 22.6815 41.405 21.3566 41.1276 20.0788C40.8503 18.8009 39.875 17.7893 38.6081 17.4654V13.8186C42.2373 13.3614 44.8857 10.1616 44.6566 6.51093C44.4276 2.86025 41.3999 0.0166016 37.742 0.0166016C34.0842 0.0166016 31.0565 2.86025 30.8275 6.51093C30.5984 10.1616 33.2468 13.3614 36.876 13.8186V17.4654C35.6091 17.7893 34.6339 18.8009 34.3565 20.0788C34.0791 21.3566 34.5471 22.6815 35.5657 23.5015L27.7056 35.9618C25.9606 39.1992 26.0872 43.1241 28.0373 46.2423C30.0018 49.7645 33.7091 51.9575 37.7419 51.9831C41.7738 51.9581 45.4806 49.7664 47.4457 46.2457C49.4006 43.1156 49.5194 39.1755 47.7567 35.9332ZM32.5459 6.95016C32.5459 4.08043 34.8723 1.75405 37.742 1.75405C40.6118 1.75405 42.9382 4.08043 42.9382 6.95016C42.9382 9.81989 40.6118 12.1463 37.742 12.1463C34.8735 12.1434 32.5488 9.81868 32.5459 6.95016ZM36.5173 19.5817C36.8422 19.2568 37.2827 19.0743 37.742 19.0743C38.6987 19.0743 39.4741 19.8498 39.4741 20.8064C39.4711 21.2747 39.2764 21.7213 38.9354 22.0422C38.2668 21.4066 37.2173 21.4066 36.5487 22.0422C36.2077 21.7213 36.013 21.2747 36.01 20.8064C36.01 20.3471 36.1925 19.9065 36.5173 19.5817ZM45.9502 45.3788C44.3129 48.3838 41.1645 50.2537 37.7424 50.2537C34.3204 50.2537 31.172 48.3838 29.5347 45.3788C27.9019 42.8046 27.7707 39.5537 29.1909 36.8563L37.7419 23.2927L46.2731 36.8278C47.7092 39.5293 47.5859 42.7935 45.9502 45.3788Z" fill="#2D2C38"/>
<path d="M44.781 37.7072L38.4746 27.7056C38.3057 27.4687 38.0329 27.3281 37.742 27.3281C37.4511 27.3281 37.1782 27.4687 37.0094 27.7056L35.4332 30.2066C35.1968 30.6098 35.3231 31.1279 35.7185 31.3771C36.1138 31.6264 36.6357 31.5169 36.8976 31.1297L37.742 29.7917L43.2906 38.5888C43.4847 38.9413 43.6257 39.3208 43.7089 39.7146C43.7929 40.1252 43.822 40.5451 43.7955 40.9633C43.7674 41.415 43.684 41.8614 43.5469 42.2927C43.3988 42.7629 43.1984 43.2149 42.9494 43.6403C42.6695 44.1223 42.3318 44.5685 41.9439 44.9687C41.5728 45.3499 41.1546 45.6823 40.6995 45.9577C40.2561 46.2246 39.779 46.4311 39.2809 46.5717C38.2746 46.8529 37.2103 46.8529 36.204 46.5717C35.7059 46.4308 35.2288 46.224 34.7854 45.9568C34.3298 45.6823 33.9116 45.3501 33.541 44.9686C33.1504 44.5662 32.8108 44.1174 32.5294 43.6323C32.2808 43.2065 32.0804 42.7542 31.9319 42.284C31.7962 41.8531 31.7134 41.4072 31.6851 40.9563C31.6579 40.5381 31.687 40.1181 31.7716 39.7076C31.8514 39.331 31.9834 38.9675 32.164 38.6276L35.318 33.6273C35.4832 33.3657 35.4963 33.0358 35.3524 32.7619C35.2085 32.488 34.9293 32.3117 34.6202 32.2994C34.311 32.2872 34.0188 32.4407 33.8535 32.7023L30.6736 37.7469C30.3978 38.2475 30.1974 38.7858 30.0786 39.3447C29.9598 39.9075 29.9176 40.4837 29.9531 41.0577C29.9888 41.6492 30.097 42.2342 30.2752 42.7993C30.4626 43.3947 30.7164 43.967 31.0321 44.5054C31.3841 45.1143 31.8102 45.6773 32.3008 46.1812C32.7753 46.6691 33.3106 47.094 33.8934 47.4456C34.4692 47.7922 35.0886 48.0601 35.7354 48.2424C37.0479 48.6119 38.4369 48.6119 39.7494 48.2424C40.3962 48.0602 41.0157 47.7923 41.5914 47.4456C42.1741 47.0939 42.7093 46.669 43.184 46.1812C43.6739 45.6774 44.0994 45.1148 44.451 44.5063C44.7652 43.9692 45.0179 43.3983 45.2044 42.8046C45.383 42.2389 45.4918 41.6535 45.5282 41.0613C45.5632 40.4872 45.5207 39.911 45.4018 39.3483C45.2788 38.7731 45.0694 38.2199 44.781 37.7072Z" fill="#2D2C38"/>
</svg>
