<svg width="36" height="36" viewBox="0 0 36 36" fill="none" xmlns="http://www.w3.org/2000/svg">
<path d="M4.00101 25.2169C3.79401 24.8113 3.60248 24.3926 3.4312 23.9721C3.41054 23.9205 3.37988 23.8735 3.34098 23.8338C3.30209 23.794 3.25573 23.7624 3.20457 23.7406C3.1534 23.7189 3.09845 23.7075 3.04286 23.707C2.98727 23.7066 2.93214 23.7172 2.88064 23.7381C2.82914 23.759 2.78229 23.79 2.74278 23.8291C2.70327 23.8682 2.67188 23.9147 2.65041 23.966C2.62894 24.0173 2.61781 24.0723 2.61768 24.1279C2.61754 24.1835 2.62839 24.2385 2.64961 24.2899C2.82961 24.7329 3.03154 25.1736 3.24951 25.6005C3.2747 25.6499 3.30936 25.6938 3.35152 25.7297C3.39367 25.7657 3.4425 25.793 3.4952 25.81C3.5479 25.8271 3.60345 25.8337 3.65868 25.8293C3.71391 25.8249 3.76773 25.8097 3.81708 25.7845C3.86642 25.7593 3.91032 25.7246 3.94627 25.6825C3.98222 25.6403 4.00951 25.5915 4.02659 25.5388C4.04367 25.4861 4.0502 25.4305 4.04581 25.3753C4.04143 25.3201 4.0262 25.2663 4.00101 25.2169Z" fill="black"/>
<path d="M2.96953 22.6832C2.83397 22.2481 2.71641 21.8026 2.61882 21.3591C2.59358 21.2511 2.52684 21.1574 2.43303 21.0982C2.33922 21.0391 2.2259 21.0192 2.11758 21.043C2.00926 21.0668 1.91465 21.1322 1.85424 21.2252C1.79382 21.3182 1.77245 21.4313 1.79475 21.5399C1.89713 22.0068 2.02116 22.4756 2.16347 22.9338C2.1967 23.0407 2.27103 23.13 2.37012 23.1821C2.4692 23.2342 2.58491 23.2448 2.6918 23.2115C2.79869 23.1783 2.888 23.104 2.94009 23.0049C2.99217 22.9058 3.00277 22.7901 2.96953 22.6832Z" fill="black"/>
<path d="M2.01865 20.4825C2.12957 20.4679 2.23013 20.4098 2.29822 20.321C2.36631 20.2323 2.39636 20.1201 2.38175 20.0092C2.32212 19.5592 2.28106 19.1008 2.25912 18.6443C2.2572 18.5887 2.24417 18.5341 2.22081 18.4837C2.19745 18.4332 2.16422 18.388 2.1231 18.3506C2.08197 18.3132 2.03378 18.2844 1.98135 18.2659C1.92893 18.2474 1.87333 18.2396 1.81784 18.2429C1.76249 18.2456 1.70821 18.2591 1.65808 18.2827C1.60795 18.3063 1.56297 18.3396 1.5257 18.3806C1.48843 18.4216 1.45961 18.4695 1.44087 18.5217C1.42213 18.5738 1.41385 18.6292 1.4165 18.6845C1.43928 19.1646 1.48259 19.6472 1.54503 20.1189C1.55227 20.1738 1.57027 20.2268 1.59799 20.2748C1.62572 20.3228 1.66263 20.3648 1.70661 20.3986C1.7506 20.4323 1.80079 20.457 1.85433 20.4713C1.90788 20.4856 1.96371 20.4892 2.01865 20.482V20.4825Z" fill="black"/>
<path d="M9.39354 31.3074C9.01638 31.0526 8.64541 30.7792 8.29076 30.4935C8.24758 30.4588 8.19799 30.4329 8.14481 30.4174C8.09164 30.4018 8.03592 30.3969 7.98084 30.4029C7.92576 30.4088 7.8724 30.4256 7.8238 30.4522C7.7752 30.4788 7.73232 30.5147 7.6976 30.5579C7.66288 30.6011 7.63701 30.6507 7.62146 30.7038C7.6059 30.757 7.60098 30.8127 7.60696 30.8678C7.61294 30.9229 7.62971 30.9763 7.65631 31.0249C7.68292 31.0735 7.71883 31.1163 7.76201 31.1511C8.13494 31.4509 8.52476 31.7392 8.92188 32.0066C9.01447 32.0693 9.12815 32.0926 9.23794 32.0715C9.34774 32.0505 9.44467 31.9866 9.50744 31.8941C9.53858 31.8482 9.56034 31.7965 9.57147 31.7421C9.58259 31.6877 9.58288 31.6316 9.57229 31.5771C9.56171 31.5226 9.54047 31.4707 9.5098 31.4245C9.47912 31.3782 9.43962 31.3384 9.39354 31.3074Z" fill="black"/>
<path d="M4.67472 26.4095C4.64606 26.3613 4.60806 26.3192 4.56294 26.2859C4.51782 26.2525 4.4665 26.2284 4.41197 26.2151C4.35744 26.2018 4.30081 26.1996 4.24539 26.2084C4.18997 26.2173 4.13688 26.2371 4.08922 26.2668C4.04156 26.2964 4.00029 26.3352 3.96783 26.381C3.93538 26.4268 3.91238 26.4786 3.9002 26.5334C3.88801 26.5882 3.88688 26.6449 3.89687 26.7001C3.90686 26.7553 3.92777 26.808 3.95838 26.855C4.2115 27.2609 4.48375 27.6614 4.77007 28.0456C4.80318 28.09 4.84472 28.1275 4.89231 28.1559C4.93991 28.1842 4.99262 28.203 5.04746 28.211C5.10229 28.219 5.15816 28.2161 5.21188 28.2025C5.2656 28.1889 5.31612 28.1649 5.36055 28.1318C5.40498 28.0987 5.44246 28.0571 5.47084 28.0095C5.49921 27.9619 5.51794 27.9092 5.52595 27.8544C5.53395 27.7996 5.53108 27.7437 5.51749 27.69C5.5039 27.6362 5.47986 27.5857 5.44675 27.5413C5.17507 27.1745 4.91491 26.794 4.67472 26.4095Z" fill="black"/>
<path d="M6.31049 28.6031C6.23631 28.5194 6.13189 28.4685 6.0202 28.4617C5.90851 28.4549 5.79871 28.4928 5.71494 28.567C5.63117 28.6412 5.58031 28.7456 5.57353 28.8573C5.56675 28.969 5.60462 29.0788 5.6788 29.1625C5.99689 29.5214 6.33355 29.8704 6.67921 30.2003C6.71893 30.2403 6.76626 30.2719 6.81839 30.2932C6.87052 30.3146 6.92639 30.3253 6.98272 30.3247C7.03905 30.3241 7.0947 30.3122 7.14637 30.2898C7.19804 30.2673 7.24469 30.2348 7.28357 30.194C7.32246 30.1533 7.35278 30.1051 7.37276 30.0525C7.39274 29.9998 7.40197 29.9436 7.3999 29.8873C7.39784 29.8311 7.38452 29.7757 7.36073 29.7247C7.33694 29.6736 7.30316 29.6278 7.26139 29.59C6.93261 29.2756 6.61283 28.9434 6.31049 28.6031Z" fill="black"/>
<path d="M18.4454 0.816406C15.7111 0.819084 13.0174 1.47809 10.5907 2.73803C8.16397 3.99797 6.07518 5.82203 4.49985 8.05691C4.4354 8.14839 4.40994 8.26174 4.42906 8.372C4.44818 8.48226 4.51032 8.58041 4.6018 8.64486C4.69329 8.70931 4.80663 8.73477 4.9169 8.71565C5.02716 8.69653 5.12531 8.63439 5.18976 8.54291C6.95883 6.03039 9.406 4.07284 12.2457 2.89871C15.0853 1.72457 18.2004 1.38228 21.2273 1.91178C24.2541 2.44129 27.068 3.82074 29.3404 5.88916C31.6129 7.95758 33.2502 10.6296 34.0612 13.5935C34.8723 16.5574 34.8237 19.6908 33.9211 22.6281C33.0184 25.5654 31.299 28.1853 28.9635 30.1823C26.628 32.1792 23.7727 33.4707 20.7309 33.906C17.689 34.3414 14.5861 33.9026 11.7842 32.641C11.3708 32.4542 10.959 32.2472 10.5608 32.0245C10.5124 31.997 10.459 31.9793 10.4038 31.9725C10.3486 31.9658 10.2925 31.97 10.2389 31.985C10.1853 31.9999 10.1352 32.0254 10.0915 32.0598C10.0477 32.0942 10.0112 32.1369 9.98409 32.1855C9.95694 32.2341 9.93968 32.2876 9.9333 32.3429C9.92692 32.3982 9.93154 32.4542 9.9469 32.5077C9.96226 32.5612 9.98805 32.6111 10.0228 32.6546C10.0575 32.6981 10.1005 32.7343 10.1493 32.7611C10.5687 32.9951 11.0018 33.2136 11.4372 33.4099C13.7556 34.4548 16.2784 34.9679 18.8208 34.9115C21.3632 34.8552 23.8608 34.2308 26.1307 33.0841C28.4005 31.9374 30.3851 30.2975 31.939 28.2845C33.493 26.2715 34.577 23.9363 35.1115 21.4501C35.6461 18.9639 35.6178 16.3896 35.0286 13.9158C34.4394 11.4419 33.3042 9.13125 31.7063 7.15294C30.1084 5.17463 28.0882 3.57883 25.7937 2.48242C23.4991 1.38602 20.9884 0.816779 18.4454 0.816406Z" fill="black"/>
<path d="M4.62686 9.73541C4.34838 9.7349 4.07913 9.63547 3.86716 9.45486C3.65518 9.27425 3.51425 9.02422 3.46952 8.74935L3.11852 6.56994C3.10384 6.46091 3.13234 6.35046 3.19794 6.26213C3.26354 6.17381 3.36104 6.11461 3.46966 6.09715C3.57829 6.07968 3.68943 6.10535 3.77941 6.16866C3.86938 6.23197 3.93106 6.32793 3.9513 6.43607L4.30314 8.61519C4.31751 8.70116 4.3652 8.77799 4.43586 8.82902C4.50652 8.88004 4.59446 8.90114 4.68058 8.88773L6.8597 8.53673C6.96874 8.52205 7.07919 8.55055 7.16751 8.61615C7.25584 8.68174 7.31504 8.77925 7.3325 8.88787C7.34996 8.99649 7.3243 9.10764 7.26099 9.19761C7.19768 9.28759 7.10172 9.34927 6.99358 9.36951L4.81445 9.72051C4.75243 9.73051 4.68969 9.73549 4.62686 9.73541Z" fill="black"/>
<path d="M29.341 10.6581L19.0903 5.25614C18.8958 5.15335 18.6792 5.09961 18.4593 5.09961C18.2394 5.09961 18.0227 5.15335 17.8283 5.25614L7.57703 10.6581C7.35876 10.7727 7.17602 10.9448 7.04865 11.1559C6.92128 11.367 6.85414 11.6089 6.85449 11.8554V23.8718C6.85408 24.1184 6.92121 24.3603 7.04858 24.5714C7.17595 24.7826 7.35871 24.9548 7.57703 25.0694L17.8283 30.4713C18.0228 30.5739 18.2394 30.6274 18.4593 30.6274C18.6792 30.6274 18.8958 30.5739 19.0903 30.4713L29.341 25.0694C29.5594 24.9548 29.7422 24.7826 29.8696 24.5715C29.997 24.3604 30.0642 24.1184 30.0638 23.8718V11.8554C30.0641 11.6089 29.9969 11.3669 29.8695 11.1559C29.7421 10.9448 29.5593 10.7727 29.341 10.6581ZM14.4601 14.1192C14.2363 14.2316 14.0482 14.4041 13.9171 14.6174C13.7859 14.8308 13.7168 15.0764 13.7176 15.3269V20.1475C13.7185 20.1565 13.7162 20.1656 13.7111 20.1731C13.7059 20.1806 13.6982 20.186 13.6894 20.1883C13.6815 20.1927 13.6723 20.1941 13.6634 20.1922C13.6546 20.1903 13.6467 20.1852 13.6413 20.1779L12.7194 19.2154C12.6141 19.1065 12.4828 19.0261 12.3378 18.9818C12.1929 18.9375 12.0391 18.9308 11.8908 18.9623L11.2892 19.092C11.2828 19.0933 11.2762 19.0932 11.2698 19.0916C11.2635 19.0901 11.2575 19.0872 11.2525 19.083C11.2474 19.0789 11.2433 19.0737 11.2404 19.0678C11.2376 19.0619 11.2361 19.0555 11.2361 19.0489V13.6444C11.2357 13.5501 11.2617 13.4575 11.3111 13.3772C11.3604 13.2968 11.4313 13.2319 11.5156 13.1896L22.1357 7.81468L24.4779 9.04908L14.4601 14.1192ZM18.2215 6.0023C18.2948 5.9637 18.3764 5.94353 18.4593 5.94353C18.5422 5.94353 18.6238 5.9637 18.6971 6.0023L21.2205 7.33205L11.1354 12.4367C11.0331 12.4889 10.9379 12.5539 10.8522 12.6302L8.19578 11.2856L18.2215 6.0023ZM18.0373 29.6273L7.97049 24.3226C7.88837 24.2796 7.81958 24.2149 7.77159 24.1356C7.7236 24.0563 7.69823 23.9654 7.69824 23.8726V11.9794L10.4264 13.3598C10.4052 13.4532 10.3941 13.5486 10.3932 13.6444V19.0481C10.3932 19.1805 10.4228 19.3112 10.4799 19.4307C10.537 19.5502 10.6201 19.6554 10.7231 19.7386C10.8261 19.8218 10.9464 19.8809 11.0752 19.9116C11.204 19.9423 11.3381 19.9438 11.4676 19.916L12.0691 19.7866C12.0765 19.7846 12.0843 19.7848 12.0917 19.787C12.099 19.7892 12.1055 19.7935 12.1105 19.7993L13.033 20.7617C13.1556 20.8897 13.3136 20.978 13.4868 21.0154C13.66 21.0527 13.8404 21.0374 14.0048 20.9714C14.1692 20.9053 14.3101 20.7916 14.4093 20.6448C14.5085 20.4981 14.5616 20.3249 14.5616 20.1478V15.4531L17.8486 17.1165C17.9095 17.1469 17.9727 17.1724 18.0376 17.193L18.0373 29.6273ZM18.2294 16.3638L15.0617 14.7607L25.3931 9.53143L28.7228 11.2859L18.6898 16.3641C18.6184 16.4 18.5395 16.4187 18.4596 16.4187C18.3796 16.4187 18.3008 16.4 18.2294 16.3641V16.3638ZM29.2201 23.8715C29.22 23.9642 29.1946 24.0551 29.1466 24.1345C29.0986 24.2138 29.0299 24.2785 28.9478 24.3215L18.881 29.6279V17.1932C18.9463 17.1726 19.0098 17.1469 19.0711 17.1165L29.2201 11.9797V23.8715Z" fill="black"/>
</svg>
