<svg width="51" height="29" viewBox="0 0 51 29" fill="none" xmlns="http://www.w3.org/2000/svg">
<path d="M43.8017 20.7701H43.8017C43.2339 20.7694 42.6787 20.9372 42.2063 21.2522C41.7338 21.5672 41.3655 22.0152 41.1477 22.5396C40.93 23.064 40.8727 23.6411 40.983 24.1981C41.0934 24.7551 41.3665 25.2668 41.7678 25.6685C42.169 26.0702 42.6804 26.3439 43.2373 26.4549C43.7941 26.5659 44.3713 26.5093 44.896 26.2921C45.4206 26.075 45.8691 25.7071 46.1846 25.2351C46.5001 24.763 46.6685 24.208 46.6685 23.6402V23.6402C46.6682 22.8796 46.3662 22.1503 45.8287 21.6122C45.2913 21.0741 44.5623 20.7713 43.8017 20.7701ZM43.8015 27.9011C42.9586 27.9017 42.1345 27.6523 41.4334 27.1845C40.7323 26.7167 40.1857 26.0514 39.8627 25.2729C39.5398 24.4944 39.4549 23.6376 39.619 22.8108C39.7831 21.9841 40.1886 21.2246 40.7844 20.6284C41.3802 20.0322 42.1394 19.6261 42.966 19.4614C43.7926 19.2967 44.6495 19.3809 45.4282 19.7033C46.207 20.0257 46.8727 20.5719 47.341 21.2726C47.8093 21.9734 48.0593 22.7973 48.0593 23.6401C48.0587 24.7695 47.6101 25.8525 46.8118 26.6514C46.0135 27.4503 44.9308 27.8997 43.8015 27.9011Z" fill="#2D2C38" stroke="white" stroke-width="0.2"/>
<path d="M20.8214 20.7701L20.8213 20.7701C20.2535 20.7692 19.6982 20.9368 19.2256 21.2517C18.753 21.5665 18.3845 22.0144 18.1666 22.5388C17.9487 23.0632 17.8912 23.6404 18.0015 24.1974C18.1117 24.7545 18.3847 25.2663 18.7859 25.6681C19.1871 26.0699 19.6985 26.3437 20.2554 26.4548C20.8123 26.5659 21.3896 26.5093 21.9143 26.2922C22.439 26.0751 22.8875 25.7073 23.203 25.2352C23.5186 24.7631 23.687 24.208 23.6871 23.6402V23.6401C23.6865 22.8799 23.3845 22.1509 22.8474 21.6129C22.3102 21.0749 21.5817 20.7718 20.8214 20.7701ZM20.8211 27.9011C19.9782 27.9019 19.154 27.6527 18.4527 27.185C17.7515 26.7173 17.2047 26.0521 16.8816 25.2736C16.5585 24.4951 16.4735 23.6383 16.6374 22.8115C16.8014 21.9847 17.2068 21.2251 17.8026 20.6288C18.3983 20.0324 19.1575 19.6262 19.9842 19.4615C20.8108 19.2967 21.6677 19.3809 22.4466 19.7032C23.2254 20.0256 23.8911 20.5717 24.3595 21.2725C24.8278 21.9733 25.0778 22.7972 25.0778 23.6401C25.077 24.7692 24.6284 25.8519 23.8304 26.6507C23.0324 27.4495 21.9502 27.8991 20.8211 27.9011Z" fill="#2D2C38" stroke="white" stroke-width="0.2"/>
<path d="M50.1924 16.273L45.8877 8.55239C45.8877 8.55238 45.8877 8.55237 45.8877 8.55235C45.7215 8.25459 45.4788 8.0066 45.1847 7.83403C44.8905 7.66144 44.5556 7.57054 44.2146 7.5707L44.2146 7.5707L37.5513 7.5707C37.3668 7.5707 37.1899 7.64397 37.0595 7.77438C36.9291 7.90479 36.8559 8.08167 36.8559 8.2661V23.6438C36.8559 23.8282 36.9291 24.0051 37.0595 24.1355C37.1899 24.2659 37.3668 24.3392 37.5513 24.3392H40.2408C40.4252 24.3392 40.6021 24.2659 40.7325 24.1355C40.8629 24.0051 40.9362 23.8282 40.9362 23.6438C40.9362 23.4593 40.8629 23.2825 40.7325 23.152C40.6021 23.0216 40.4252 22.9484 40.2408 22.9484H38.3467H38.2467V22.8484V9.0615V8.9615H38.3467H44.2146H44.2146C44.3079 8.96155 44.3994 8.98648 44.4798 9.0337C44.5602 9.08093 44.6265 9.14874 44.672 9.23015L44.672 9.23019L48.9778 16.9498L48.9778 16.9498C49.2637 17.4627 49.4141 18.0401 49.4146 18.6274V18.6275V22.8452V22.9452H49.3146H47.3643C47.1799 22.9452 47.003 23.0184 46.8726 23.1489C46.7422 23.2793 46.6689 23.4562 46.6689 23.6406C46.6689 23.825 46.7422 24.0019 46.8726 24.1323C47.003 24.2627 47.1799 24.336 47.3643 24.336H49.5393C49.8747 24.3355 50.1961 24.202 50.4333 23.9649C50.6704 23.7278 50.8038 23.4064 50.8044 23.0711C50.8044 23.071 50.8044 23.071 50.8044 23.0709M50.1924 16.273L50.9044 23.0711L50.8044 23.0709M50.1924 16.273C50.5933 16.993 50.804 17.8033 50.8044 18.6275L50.1924 16.273ZM50.8044 23.0709L50.8044 18.6275L50.8044 23.0709Z" fill="#2D2C38" stroke="white" stroke-width="0.2"/>
<path d="M10.3277 22.8437V22.9437H10.4277H17.2586C17.443 22.9437 17.6199 23.017 17.7503 23.1474C17.8807 23.2778 17.954 23.4547 17.954 23.6391C17.954 23.8235 17.8807 24.0004 17.7503 24.1308C17.6199 24.2612 17.443 24.3345 17.2586 24.3345H9.63231C9.44788 24.3345 9.271 24.2612 9.14059 24.1308C9.01018 24.0004 8.93691 23.8235 8.93691 23.6391V17.522C8.93691 17.3375 9.01018 17.1607 9.14059 17.0302C9.271 16.8998 9.44788 16.8266 9.63231 16.8266C9.81674 16.8266 9.99362 16.8998 10.124 17.0302C10.2544 17.1607 10.3277 17.3375 10.3277 17.522V22.8437Z" fill="#2D2C38" stroke="white" stroke-width="0.2"/>
<path d="M9.63231 14.6011C9.44788 14.6011 9.271 14.5279 9.14059 14.3975C9.01018 14.2671 8.93691 14.0902 8.93691 13.9057V8.56493C8.93691 8.3805 9.01018 8.20362 9.14059 8.07321C9.271 7.9428 9.44788 7.86953 9.63231 7.86953C9.81674 7.86953 9.99362 7.9428 10.124 8.07321C10.2544 8.20362 10.3277 8.3805 10.3277 8.56493V13.9087C10.3269 14.0926 10.2533 14.2687 10.1231 14.3985C9.99272 14.5283 9.81626 14.6011 9.63231 14.6011Z" fill="#2D2C38" stroke="white" stroke-width="0.2"/>
<path d="M36.7553 22.9447H36.8553V22.8447V2.03611V1.93611H36.7553H10.4277H10.3277V2.03611V5.31208C10.3277 5.49651 10.2544 5.67339 10.124 5.8038C9.99362 5.93421 9.81674 6.00747 9.63231 6.00747C9.44788 6.00747 9.271 5.93421 9.14059 5.8038C9.01018 5.67339 8.93691 5.49651 8.93691 5.31208V1.88983C8.93746 1.53324 9.07942 1.19142 9.33166 0.939361C9.58392 0.687287 9.92587 0.545574 10.2825 0.545312L36.9016 0.545313C37.258 0.545853 37.5997 0.68768 37.8517 0.939709C38.1038 1.19176 38.2456 1.53345 38.2461 1.8899V23.6401C38.2461 23.8246 38.1729 24.0014 38.0424 24.1319C37.912 24.2623 37.7352 24.3355 37.5507 24.3355H24.3821C24.1977 24.3355 24.0208 24.2623 23.8904 24.1319C23.76 24.0014 23.6867 23.8246 23.6867 23.6401C23.6867 23.4557 23.76 23.2788 23.8904 23.1484C24.0208 23.018 24.1977 22.9447 24.3821 22.9447H36.7553Z" fill="#2D2C38" stroke="white" stroke-width="0.2"/>
<path d="M12.7778 18.2174H2.6826C2.49817 18.2174 2.3213 18.1441 2.19088 18.0137C2.06047 17.8833 1.98721 17.7064 1.98721 17.522C1.98721 17.3375 2.06047 17.1607 2.19088 17.0302C2.3213 16.8998 2.49817 16.8266 2.6826 16.8266H12.7778C12.9622 16.8266 13.1391 16.8998 13.2695 17.0302C13.3999 17.1607 13.4732 17.3375 13.4732 17.522C13.4732 17.7064 13.3999 17.8833 13.2695 18.0137C13.1391 18.1441 12.9622 18.2174 12.7778 18.2174Z" fill="#2D2C38" stroke="white" stroke-width="0.2"/>
<path d="M20.8219 14.6002H6.73485C6.55042 14.6002 6.37354 14.5269 6.24313 14.3965C6.11272 14.2661 6.03945 14.0892 6.03945 13.9048C6.03945 13.7203 6.11272 13.5435 6.24313 13.4131C6.37354 13.2826 6.55042 13.2094 6.73485 13.2094H20.8219C21.0063 13.2094 21.1832 13.2826 21.3136 13.4131C21.444 13.5435 21.5172 13.7203 21.5172 13.9048C21.5172 14.0892 21.444 14.2661 21.3136 14.3965C21.1832 14.5269 21.0063 14.6002 20.8219 14.6002Z" fill="#2D2C38" stroke="white" stroke-width="0.2"/>
<path d="M6.29636 10.4009H0.795396C0.610966 10.4009 0.434089 10.3277 0.303677 10.1973C0.173265 10.0669 0.1 9.88998 0.1 9.70555C0.1 9.52112 0.173265 9.34424 0.303677 9.21383C0.434089 9.08342 0.610966 9.01016 0.795396 9.01016H6.29636C6.48079 9.01016 6.65767 9.08342 6.78808 9.21383C6.91849 9.34424 6.99176 9.52112 6.99176 9.70555C6.99176 9.88998 6.91849 10.0669 6.78808 10.1973C6.65767 10.3277 6.48079 10.4009 6.29636 10.4009Z" fill="#2D2C38" stroke="white" stroke-width="0.2"/>
<path d="M15.1169 6.00642H5.40672C5.22229 6.00642 5.04542 5.93315 4.915 5.80274C4.78459 5.67233 4.71133 5.49545 4.71133 5.31102C4.71133 5.12659 4.78459 4.94971 4.915 4.8193C5.04542 4.68889 5.22229 4.61563 5.40672 4.61563H15.1169C15.3014 4.61563 15.4782 4.68889 15.6086 4.8193C15.7391 4.94971 15.8123 5.12659 15.8123 5.31102C15.8123 5.49545 15.7391 5.67233 15.6086 5.80274C15.4782 5.93315 15.3014 6.00642 15.1169 6.00642Z" fill="#2D2C38" stroke="white" stroke-width="0.2"/>
</svg>
