<svg width="203" height="38" viewBox="0 0 203 38" fill="none" xmlns="http://www.w3.org/2000/svg">
<rect x="0.5" y="0.5" width="60" height="37" rx="1.5" fill="white"/>
<path d="M25.3013 24.6018L27.2822 13.459H30.3775L28.4584 24.6018H25.3013Z" fill="#3C58BF"/>
<path d="M25.3013 24.6018L27.8394 13.459H30.3775L28.4584 24.6018H25.3013Z" fill="#293688"/>
<path d="M39.6618 13.5831C39.0428 13.3355 38.0523 13.0879 36.8142 13.0879C33.719 13.0879 31.4904 14.6355 31.4904 16.8641C31.4904 18.5355 33.038 19.4022 34.2761 19.9593C35.5142 20.5165 35.8857 20.8879 35.8857 21.3831C35.8857 22.126 34.8952 22.4974 34.0285 22.4974C32.7904 22.4974 32.1095 22.3117 31.0571 21.8784L30.6238 21.6926L30.1904 24.2307C30.9333 24.5403 32.2952 24.8498 33.719 24.8498C36.9999 24.8498 39.1666 23.3022 39.1666 20.9498C39.1666 19.6498 38.3618 18.6593 36.5047 17.8546C35.3904 17.2974 34.7095 16.9879 34.7095 16.4307C34.7095 15.9355 35.2666 15.4403 36.5047 15.4403C37.5571 15.4403 38.2999 15.626 38.8571 15.8736L39.1666 15.9974L39.6618 13.5831Z" fill="#3C58BF"/>
<path d="M39.6618 13.5831C39.0428 13.3355 38.0523 13.0879 36.8142 13.0879C33.719 13.0879 32.0476 14.6355 32.0476 16.8641C32.0476 18.5355 33.038 19.4022 34.2761 19.9593C35.5142 20.5165 35.8857 20.8879 35.8857 21.3831C35.8857 22.126 34.8952 22.4974 34.0285 22.4974C32.7904 22.4974 32.1095 22.3117 31.0571 21.8784L30.6238 21.6926L30.1904 24.2307C30.9333 24.5403 32.2952 24.8498 33.719 24.8498C36.9999 24.8498 39.1666 23.3022 39.1666 20.9498C39.1666 19.6498 38.3618 18.6593 36.5047 17.8546C35.3904 17.2974 34.7095 16.9879 34.7095 16.4307C34.7095 15.9355 35.2666 15.4403 36.5047 15.4403C37.5571 15.4403 38.2999 15.626 38.8571 15.8736L39.1666 15.9974L39.6618 13.5831Z" fill="#293688"/>
<path d="M44.9858 13.459C44.2429 13.459 43.6858 13.5209 43.3763 14.2637L38.7334 24.6018H42.0763L42.6953 22.7447H46.6572L47.0286 24.6018H50.0001L47.4001 13.459H44.9858ZM43.562 20.8875C43.7477 20.3304 44.8001 17.6066 44.8001 17.6066C44.8001 17.6066 45.0477 16.9256 45.2334 16.4923L45.4191 17.5447C45.4191 17.5447 46.0382 20.3304 46.162 20.9495H43.562V20.8875Z" fill="#3C58BF"/>
<path d="M45.7286 13.459C44.9858 13.459 44.4286 13.5209 44.1191 14.2637L38.7334 24.6018H42.0763L42.6953 22.7447H46.6572L47.0286 24.6018H50.0001L47.4001 13.459H45.7286ZM43.562 20.8875C43.8096 20.2685 44.8001 17.6066 44.8001 17.6066C44.8001 17.6066 45.0477 16.9256 45.2334 16.4923L45.4191 17.5447C45.4191 17.5447 46.0382 20.3304 46.162 20.9495H43.562V20.8875Z" fill="#293688"/>
<path d="M19.6038 21.2596L19.2943 19.65C18.7371 17.7929 16.9419 15.7501 14.9609 14.7596L17.7466 24.6643H21.0895L26.1038 13.5215H22.7609L19.6038 21.2596Z" fill="#3C58BF"/>
<path d="M19.6038 21.2596L19.2943 19.65C18.7371 17.7929 16.9419 15.7501 14.9609 14.7596L17.7466 24.6643H21.0895L26.1038 13.5215H23.38L19.6038 21.2596Z" fill="#293688"/>
<path d="M11 13.459L11.5571 13.5828C15.519 14.5114 18.2428 16.8637 19.2952 19.6495L18.1809 14.3876C17.9952 13.6447 17.4381 13.459 16.7571 13.459H11Z" fill="#FFBC00"/>
<path d="M11 13.459C14.9619 14.3876 18.2428 16.8018 19.2952 19.5875L18.2428 15.1923C18.0571 14.4495 17.4381 14.0161 16.7571 14.0161L11 13.459Z" fill="#F7981D"/>
<path d="M11 13.459C14.9619 14.3876 18.2428 16.8018 19.2952 19.5875L18.5524 17.1733C18.3667 16.4304 18.119 15.6876 17.2524 15.378L11 13.459Z" fill="#ED7C00"/>
<path d="M22.7001 20.8877L20.5953 18.783L19.6049 21.1354L19.3573 19.5877C18.8001 17.7306 17.0049 15.6877 15.0239 14.6973L17.8096 24.602H21.1525L22.7001 20.8877Z" fill="#051244"/>
<path d="M28.4569 24.6008L25.795 21.877L25.2998 24.6008H28.4569Z" fill="#051244"/>
<path d="M35.5766 20.7637C35.8242 21.0113 35.9481 21.197 35.8861 21.4446C35.8861 22.1875 34.8957 22.5589 34.029 22.5589C32.7909 22.5589 32.11 22.3732 31.0576 21.9399L30.6243 21.7541L30.1909 24.2922C30.9338 24.6018 32.2957 24.9113 33.7195 24.9113C35.7004 24.9113 37.31 24.3541 38.2385 23.3637L35.5766 20.7637Z" fill="#051244"/>
<path d="M39.1665 24.6017H42.076L42.6951 22.7446H46.657L47.0284 24.6017H49.9998L48.9474 20.0827L45.2332 16.4922L45.4189 17.4827C45.4189 17.4827 46.0379 20.2684 46.1617 20.8874H43.5617C43.8094 20.2684 44.7998 17.6065 44.7998 17.6065C44.7998 17.6065 45.0474 16.9255 45.2332 16.4922" fill="#051244"/>
<rect x="0.5" y="0.5" width="60" height="37" rx="1.5" stroke="#E6E7E9"/>
<rect x="71.5" y="0.5" width="60" height="37" rx="1.5" fill="white"/>
<path d="M115.72 24.5614V24.2129H115.629L115.525 24.4521L115.42 24.2129H115.329V24.5614H115.394V24.2989L115.492 24.5254H115.559L115.657 24.2983V24.5614H115.72H115.72ZM115.145 24.5614V24.2726H115.261V24.2138H114.965V24.2726H115.081V24.5614H115.145H115.145Z" fill="#F79410"/>
<path d="M105.422 26.0577H97.5801V11.9434H105.422L105.422 26.0577Z" fill="#FF5F00"/>
<path d="M98.0771 18.9998C98.0771 16.1368 99.4156 13.5863 101.5 11.9427C99.9221 10.6967 97.9708 10.0205 95.9617 10.0234C91.0124 10.0234 87.0005 14.0423 87.0005 18.9998C87.0005 23.9574 91.0124 27.9762 95.9617 27.9762C97.9709 27.9793 99.9223 27.303 101.5 26.057C99.4159 24.4137 98.0771 21.8631 98.0771 18.9998Z" fill="#EB001B"/>
<path d="M116 18.9998C116 23.9574 111.988 27.9762 107.039 27.9762C105.029 27.9792 103.078 27.303 101.5 26.057C103.584 24.4134 104.923 21.8631 104.923 18.9998C104.923 16.1366 103.584 13.5863 101.5 11.9427C103.077 10.6967 105.029 10.0205 107.038 10.0234C111.988 10.0234 116 14.0423 116 18.9998" fill="#F79E1B"/>
<rect x="71.5" y="0.5" width="60" height="37" rx="1.5" stroke="#E6E7E9"/>
<rect x="142.5" y="0.5" width="60" height="37" rx="1.5" fill="white"/>
<g clip-path="url(#clip0_4049_4428)">
<path d="M178.421 10.5574C177.496 9.50562 175.823 9.05469 173.684 9.05469H167.473C167.036 9.05469 166.664 9.37221 166.595 9.80275L164.009 26.1581C163.958 26.4805 164.208 26.7727 164.536 26.7727H168.37L169.333 20.6818L169.303 20.8726C169.372 20.442 169.741 20.1245 170.178 20.1245H172C175.579 20.1245 178.382 18.6747 179.2 14.4807C179.225 14.3567 179.246 14.236 179.264 14.118C179.16 14.0634 179.16 14.0634 179.264 14.118C179.508 12.5679 179.262 11.5128 178.421 10.5574Z" fill="#27346A"/>
<path d="M170.8 13.5596C170.902 13.5111 171.016 13.4841 171.135 13.4841H176.004C176.581 13.4841 177.119 13.5215 177.61 13.6004C177.751 13.623 177.887 13.6489 178.02 13.6786C178.153 13.7079 178.282 13.7409 178.407 13.7773C178.469 13.7955 178.53 13.8143 178.591 13.8341C178.832 13.9146 179.057 14.0083 179.264 14.118C179.508 12.5673 179.262 11.5128 178.421 10.5574C177.496 9.50562 175.823 9.05469 173.684 9.05469H167.473C167.036 9.05469 166.664 9.37221 166.595 9.80275L164.009 26.1575C163.958 26.4805 164.208 26.7722 164.535 26.7722H168.37L170.368 14.1384C170.409 13.8793 170.575 13.6671 170.8 13.5596Z" fill="#27346A"/>
<path d="M179.2 14.4799C178.381 18.6733 175.579 20.1237 172 20.1237H170.177C169.74 20.1237 169.371 20.4412 169.303 20.8718L168.105 28.445C168.06 28.7272 168.279 28.983 168.565 28.983H171.797C172.18 28.983 172.506 28.7052 172.565 28.3286L172.597 28.1644L173.206 24.3144L173.245 24.1016C173.305 23.7251 173.63 23.4472 174.013 23.4472H174.497C177.627 23.4472 180.079 22.1788 180.795 18.5102C181.094 16.9771 180.94 15.6971 180.149 14.798C179.909 14.5257 179.611 14.3008 179.264 14.1172C179.245 14.2357 179.224 14.3559 179.2 14.4799Z" fill="#2790C3"/>
<path d="M178.407 13.7776C178.282 13.7413 178.154 13.7082 178.021 13.679C177.888 13.6498 177.751 13.6238 177.611 13.6012C177.119 13.5219 176.581 13.4844 176.004 13.4844H171.136C171.016 13.4844 170.902 13.5114 170.801 13.5604C170.576 13.6679 170.409 13.8796 170.368 14.1393L169.334 20.6822L169.304 20.8729C169.372 20.4424 169.741 20.1248 170.178 20.1248H172.001C175.58 20.1248 178.382 18.675 179.201 14.4811C179.225 14.357 179.246 14.2368 179.265 14.1183C179.057 14.0092 178.833 13.9149 178.591 13.835C178.531 13.8151 178.47 13.7958 178.407 13.7776Z" fill="#1F264F"/>
</g>
<rect x="142.5" y="0.5" width="60" height="37" rx="1.5" stroke="#E6E7E9"/>
<defs>
<clipPath id="clip0_4049_4428">
<rect width="17" height="20" fill="white" transform="translate(164 9)"/>
</clipPath>
</defs>
</svg>
