<svg width="0" height="0" class="hidden">
  <symbol xmlns="http://www.w3.org/2000/svg" viewBox="0 0 26 26" id="search">
    <path d="M10.7397 3C15.0142 3 18.4794 6.48864 18.4794 10.7921C18.4794 12.6535 17.831 14.3624 16.7494 15.7025L22.7655 21.624C23.0782 21.9388 23.0782 22.4491 22.7655 22.7639C22.4813 23.0501 22.0365 23.0761 21.723 22.8419L21.6333 22.7639L15.6171 16.8425C14.2859 17.9315 12.5885 18.5842 10.7397 18.5842C6.46516 18.5842 3 15.0956 3 10.7921C3 6.48864 6.46516 3 10.7397 3ZM10.7397 4.61216C7.34955 4.61216 4.60131 7.379 4.60131 10.7921C4.60131 14.2051 7.34955 16.972 10.7397 16.972C14.1298 16.972 16.878 14.2051 16.878 10.7921C16.878 7.379 14.1298 4.61216 10.7397 4.61216Z"></path>
  </symbol>
  <symbol xmlns="http://www.w3.org/2000/svg" viewBox="0 0 26 26" id="send">
    <path d="M21.8089 11.2162L5.67241 4.52053C4.99261 4.23842 4.2246 4.36252 3.66816 4.84424C3.11171 5.32604 2.87898 6.06838 3.06085 6.78154L4.49714 12.414H11.5294C11.853 12.414 12.1154 12.6764 12.1154 13C12.1154 13.3236 11.853 13.586 11.5294 13.586H4.49714L3.06085 19.2185C2.87898 19.9317 3.11167 20.674 3.66816 21.1558C4.22573 21.6385 4.99382 21.761 5.67245 21.4795L21.8089 14.7838C22.5436 14.479 23 13.7955 23 13C23 12.2046 22.5436 11.521 21.8089 11.2162Z"></path>
  </symbol>
  <symbol xmlns="http://www.w3.org/2000/svg" viewBox="0 0 26 26" id="sort-type-1">
    <path fill-rule="evenodd" clip-rule="evenodd" d="M4 8C4 7.44772 4.44772 7 5 7H21C21.5523 7 22 7.44772 22 8C22 8.55228 21.5523 9 21 9H5C4.44772 9 4 8.55228 4 8ZM4 13C4 12.4477 4.44772 12 5 12H21C21.5523 12 22 12.4477 22 13C22 13.5523 21.5523 14 21 14H5C4.44772 14 4 13.5523 4 13ZM4 18C4 17.4477 4.44772 17 5 17H21C21.5523 17 22 17.4477 22 18C22 18.5523 21.5523 19 21 19H5C4.44772 19 4 18.5523 4 18Z"></path>
  </symbol>
  <symbol xmlns="http://www.w3.org/2000/svg" viewBox="0 0 26 26" id="sort-type-2">
    <path fill-rule="evenodd" clip-rule="evenodd" d="M12 8C12 7.44772 12.4477 7 13 7H21C21.5523 7 22 7.44772 22 8C22 8.55228 21.5523 9 21 9H13C12.4477 9 12 8.55228 12 8ZM8 13C8 12.4477 8.44772 12 9 12H21C21.5523 12 22 12.4477 22 13C22 13.5523 21.5523 14 21 14H9C8.44772 14 8 13.5523 8 13ZM4 18C4 17.4477 4.44772 17 5 17H21C21.5523 17 22 17.4477 22 18C22 18.5523 21.5523 19 21 19H5C4.44772 19 4 18.5523 4 18Z"></path>
  </symbol>
  <symbol xmlns="http://www.w3.org/2000/svg" viewBox="0 0 26 26" id="sort-type-3">
    <path fill-rule="evenodd" clip-rule="evenodd" d="M4 8C4 7.44772 4.44772 7 5 7H21C21.5523 7 22 7.44772 22 8C22 8.55228 21.5523 9 21 9H5C4.44772 9 4 8.55228 4 8ZM8 13C8 12.4477 8.44772 12 9 12H21C21.5523 12 22 12.4477 22 13C22 13.5523 21.5523 14 21 14H9C8.44772 14 8 13.5523 8 13ZM12 18C12 17.4477 12.4477 17 13 17H21C21.5523 17 22 17.4477 22 18C22 18.5523 21.5523 19 21 19H13C12.4477 19 12 18.5523 12 18Z"></path>
  </symbol>
  <symbol xmlns="http://www.w3.org/2000/svg" viewBox="0 0 26 26" id="user">
    <path d="M12.847 12.5547C14.4578 12.5547 15.8525 11.9769 16.9924 10.837C18.1319 9.69735 18.7098 8.30286 18.7098 6.69183C18.7098 5.08135 18.1321 3.68668 16.9922 2.54661C15.8523 1.40709 14.4577 0.82935 12.847 0.82935C11.236 0.82935 9.84147 1.40709 8.70177 2.54679C7.56207 3.68649 6.98415 5.08117 6.98415 6.69183C6.98415 8.30286 7.56207 9.69753 8.70177 10.8372C9.84184 11.9767 11.2365 12.5547 12.847 12.5547V12.5547ZM9.71055 3.55538C10.5851 2.68087 11.6109 2.25578 12.847 2.25578C14.0829 2.25578 15.1089 2.68087 15.9836 3.55538C16.8581 4.43007 17.2834 5.45612 17.2834 6.69183C17.2834 7.92791 16.8581 8.95377 15.9836 9.82846C15.1089 10.7032 14.0829 11.1282 12.847 11.1282C11.6113 11.1282 10.5854 10.703 9.71055 9.82846C8.83586 8.95395 8.41058 7.92791 8.41058 6.69183C8.41058 5.45612 8.83586 4.43007 9.71055 3.55538Z"></path>
    <path d="M23.1048 19.5466C23.072 19.0723 23.0055 18.5549 22.9076 18.0086C22.8088 17.4581 22.6816 16.9378 22.5293 16.4622C22.3718 15.9706 22.1581 15.4852 21.8934 15.02C21.6191 14.5371 21.2968 14.1167 20.935 13.7707C20.5567 13.4087 20.0935 13.1177 19.558 12.9055C19.0242 12.6943 18.4327 12.5873 17.8 12.5873C17.5516 12.5873 17.3112 12.6893 16.8472 12.9915C16.5615 13.1777 16.2274 13.3931 15.8545 13.6314C15.5357 13.8346 15.1037 14.0249 14.5702 14.1973C14.0496 14.3657 13.5211 14.4511 12.9993 14.4511C12.4778 14.4511 11.9493 14.3657 11.4283 14.1973C10.8954 14.0251 10.4632 13.8348 10.1449 13.6316C9.77553 13.3956 9.44125 13.1801 9.15136 12.9913C8.68764 12.6891 8.44733 12.5872 8.19885 12.5872C7.56595 12.5872 6.97466 12.6943 6.44111 12.9057C5.9059 13.1175 5.44255 13.4086 5.06389 13.7709C4.70213 14.117 4.37974 14.5373 4.10563 15.02C3.84137 15.4852 3.62743 15.9704 3.46995 16.4624C3.31785 16.938 3.19064 17.4581 3.09184 18.0086C2.99379 18.5542 2.92749 19.0718 2.89462 19.5472C2.8623 20.012 2.84596 20.4958 2.84596 20.9846C2.84596 22.2552 3.24988 23.2838 4.04639 24.0425C4.83305 24.7911 5.87377 25.1707 7.13975 25.1707H18.8602C20.1259 25.1707 21.1666 24.7911 21.9534 24.0425C22.7501 23.2844 23.154 22.2554 23.154 20.9844C23.1539 20.4939 23.1373 20.0102 23.1048 19.5466V19.5466ZM20.9699 23.009C20.4501 23.5037 19.76 23.7442 18.8601 23.7442H7.13975C6.23962 23.7442 5.54952 23.5037 5.02991 23.0092C4.52013 22.5239 4.2724 21.8615 4.2724 20.9846C4.2724 20.5285 4.28744 20.0781 4.31752 19.6458C4.34687 19.2216 4.40685 18.7557 4.49581 18.2606C4.58365 17.7716 4.69544 17.3127 4.82841 16.8973C4.95599 16.4989 5.13 16.1045 5.3458 15.7245C5.55175 15.3624 5.78872 15.0517 6.05019 14.8014C6.29477 14.5672 6.60305 14.3755 6.9663 14.2318C7.30225 14.0988 7.67979 14.026 8.08966 14.0151C8.13961 14.0416 8.22857 14.0923 8.37268 14.1863C8.66591 14.3774 9.0039 14.5954 9.37755 14.8341C9.79874 15.1026 10.3414 15.3451 10.9897 15.5544C11.6525 15.7687 12.3285 15.8776 12.9994 15.8776C13.6704 15.8776 14.3466 15.7687 15.009 15.5546C15.6579 15.3449 16.2003 15.1026 16.6221 14.8337C17.0045 14.5893 17.333 14.3776 17.6262 14.1863C17.7703 14.0925 17.8593 14.0416 17.9092 14.0151C18.3193 14.026 18.6968 14.0988 19.033 14.2318C19.396 14.3755 19.7043 14.5674 19.9489 14.8014C20.2104 15.0515 20.4473 15.3622 20.6533 15.7247C20.8693 16.1045 21.0434 16.4991 21.1708 16.8971C21.304 17.3131 21.416 17.7718 21.5036 18.2604C21.5924 18.7564 21.6526 19.2226 21.6819 19.646V19.6464C21.7122 20.077 21.7274 20.5272 21.7276 20.9846C21.7274 21.8617 21.4797 22.5239 20.9699 23.009V23.009Z"></path>
  </symbol>
  <symbol xmlns="http://www.w3.org/2000/svg" viewBox="0 0 26 26" id="arrow-type-1">
    <path fill-rule="evenodd" clip-rule="evenodd" d="M20.1716 9.46447L23.3536 12.6464C23.5488 12.8417 23.5488 13.1583 23.3536 13.3536L20.1716 16.5355C19.9763 16.7308 19.6597 16.7308 19.4645 16.5355C19.2692 16.3403 19.2692 16.0237 19.4645 15.8284L21.7929 13.5H3V12.5H21.7929L19.4645 10.1716C19.2692 9.97631 19.2692 9.65973 19.4645 9.46447C19.6597 9.2692 19.9763 9.2692 20.1716 9.46447Z"></path>
  </symbol>
  <symbol xmlns="http://www.w3.org/2000/svg" viewBox="0 0 26 26" id="basket">
    <path d="M13 0.8125C11.7071 0.8125 10.4671 1.32611 9.55286 2.24035C8.63862 3.15459 8.125 4.39457 8.125 5.6875V6.5H7.45063C6.7666 6.49928 6.10864 6.76241 5.61374 7.23461C5.11884 7.70681 4.82513 8.35169 4.79375 9.035L4.15188 22.4006C4.13542 22.76 4.19191 23.1191 4.31794 23.456C4.44397 23.793 4.63694 24.101 4.8852 24.3614C5.13346 24.6218 5.43187 24.8293 5.76246 24.9712C6.09305 25.1132 6.44897 25.1868 6.80875 25.1875H19.1913C19.551 25.1868 19.9069 25.1132 20.2375 24.9712C20.5681 24.8293 20.8665 24.6218 21.1148 24.3614C21.3631 24.101 21.556 23.793 21.6821 23.456C21.8081 23.1191 21.8646 22.76 21.8481 22.4006L21.2063 9.035C21.1749 8.35169 20.8812 7.70681 20.3863 7.23461C19.8914 6.76241 19.2334 6.49928 18.5494 6.5H17.875V5.6875C17.875 4.39457 17.3614 3.15459 16.4471 2.24035C15.5329 1.32611 14.2929 0.8125 13 0.8125V0.8125ZM9.75 5.6875C9.75 4.82555 10.0924 3.9989 10.7019 3.3894C11.3114 2.77991 12.138 2.4375 13 2.4375C13.862 2.4375 14.6886 2.77991 15.2981 3.3894C15.9076 3.9989 16.25 4.82555 16.25 5.6875V6.5H9.75V5.6875ZM19.5813 9.10812L20.2231 22.4819C20.2282 22.6216 20.2057 22.761 20.1569 22.892C20.1081 23.0231 20.034 23.1432 19.9388 23.2456C19.8415 23.3455 19.7253 23.425 19.5969 23.4794C19.4686 23.5338 19.3307 23.562 19.1913 23.5625H6.80875C6.66934 23.562 6.53142 23.5338 6.40307 23.4794C6.27472 23.425 6.15851 23.3455 6.06125 23.2456C5.966 23.1432 5.89186 23.0231 5.84307 22.892C5.79427 22.761 5.77178 22.6216 5.77688 22.4819L6.41875 9.10812C6.43129 8.84299 6.54552 8.59289 6.73769 8.40979C6.92986 8.2267 7.1852 8.1247 7.45063 8.125H18.5494C18.8148 8.1247 19.0701 8.2267 19.2623 8.40979C19.4545 8.59289 19.5687 8.84299 19.5813 9.10812V9.10812Z"></path>
  </symbol>
  <symbol xmlns="http://www.w3.org/2000/svg" viewBox="0 0 26 26" id="close">
    <path d="M14.1459 12.8145L22.7405 4.49409C23.0865 4.15205 23.0865 3.59784 22.7405 3.25653C22.3952 2.91449 21.8346 2.91449 21.4886 3.25653L12.894 11.5769L4.51091 3.25653C4.16563 2.91449 3.60429 2.91449 3.25903 3.25653C2.91375 3.59786 2.91375 4.15208 3.25903 4.49409L11.6414 12.8145L3.25896 21.5063C2.91368 21.8476 2.91368 22.4025 3.25896 22.7438C3.43195 22.9149 3.65878 23 3.8849 23C4.11173 23 4.33785 22.9149 4.51084 22.7438L12.8933 14.0521L21.4886 22.7438C21.6616 22.9149 21.8884 23 22.1146 23C22.3414 23 22.5682 22.9149 22.7405 22.7438C23.0865 22.4018 23.0865 21.8476 22.7405 21.5063L14.1459 12.8145Z"></path>
  </symbol>
  <symbol xmlns="http://www.w3.org/2000/svg" viewBox="0 0 26 26" id="favorites">
    <path d="M13 24.5658C12.6299 24.5658 12.273 24.4317 11.9949 24.1881C10.9446 23.2697 9.93193 22.4066 9.0385 21.6453L9.03394 21.6413C6.41454 19.4091 4.1526 17.4814 2.57878 15.5825C0.819493 13.4596 5.14984e-05 11.4468 5.14984e-05 9.24795C5.14984e-05 7.11157 0.732609 5.14063 2.06264 3.69792C3.40854 2.23817 5.25531 1.4342 7.26334 1.4342C8.76416 1.4342 10.1386 1.90868 11.3484 2.84437C11.959 3.31667 12.5124 3.8947 13 4.56894C13.4878 3.8947 14.041 3.31667 14.6518 2.84437C15.8616 1.90868 17.2361 1.4342 18.7369 1.4342C20.7447 1.4342 22.5917 2.23817 23.9376 3.69792C25.2676 5.14063 26 7.11157 26 9.24795C26 11.4468 25.1808 13.4596 23.4215 15.5823C21.8476 17.4814 19.5859 19.4089 16.9669 21.6409C16.0719 22.4034 15.0577 23.2679 14.0049 24.1885C13.727 24.4317 13.37 24.5658 13 24.5658V24.5658ZM7.26334 2.95723C5.68576 2.95723 4.23651 3.58684 3.1822 4.73021C2.11223 5.89084 1.52289 7.4952 1.52289 9.24795C1.52289 11.0973 2.21022 12.7513 3.75131 14.6107C5.24082 16.4081 7.45635 18.2961 10.0216 20.4823L10.0264 20.4863C10.9232 21.2505 11.9398 22.117 12.9978 23.0422C14.0623 22.1152 15.0805 21.2474 15.9791 20.4819C18.5441 18.2957 20.7594 16.4081 22.2489 14.6107C23.7898 12.7513 24.4772 11.0973 24.4772 9.24795C24.4772 7.4952 23.8878 5.89084 22.8178 4.73021C21.7637 3.58684 20.3143 2.95723 18.7369 2.95723C17.5812 2.95723 16.5202 3.3246 15.5833 4.04903C14.7484 4.6949 14.1668 5.51137 13.8258 6.08266C13.6505 6.37643 13.3418 6.55179 13 6.55179C12.6582 6.55179 12.3496 6.37643 12.1742 6.08266C11.8334 5.51137 11.2518 4.6949 10.4167 4.04903C9.47986 3.3246 8.41881 2.95723 7.26334 2.95723V2.95723Z"></path>
  </symbol>
  <symbol xmlns="http://www.w3.org/2000/svg" viewBox="0 0 26 26" id="filter-type-1">
    <path d="M5.5 8.625H8C8 9.31438 8.56062 9.875 9.25 9.875H10.5C11.1894 9.875 11.75 9.31438 11.75 8.625H20.5C20.845 8.625 21.125 8.34562 21.125 8C21.125 7.65438 20.845 7.375 20.5 7.375H11.75C11.75 6.68562 11.1894 6.125 10.5 6.125H9.25C8.56062 6.125 8 6.68562 8 7.375H5.5C5.155 7.375 4.875 7.65438 4.875 8C4.875 8.34562 5.155 8.625 5.5 8.625Z"></path>
    <path d="M20.5 12.375H16.75C16.75 11.6856 16.1894 11.125 15.5 11.125H14.25C13.5606 11.125 13 11.6856 13 12.375H5.5C5.155 12.375 4.875 12.6544 4.875 13C4.875 13.3456 5.155 13.625 5.5 13.625H13C13 14.3144 13.5606 14.875 14.25 14.875H15.5C16.1894 14.875 16.75 14.3144 16.75 13.625H20.5C20.845 13.625 21.125 13.3456 21.125 13C21.125 12.6544 20.845 12.375 20.5 12.375Z"></path>
    <path d="M20.5 17.375H11.75C11.75 16.6856 11.1894 16.125 10.5 16.125H9.25C8.56062 16.125 8 16.6856 8 17.375H5.5C5.155 17.375 4.875 17.6544 4.875 18C4.875 18.3456 5.155 18.625 5.5 18.625H8C8 19.3144 8.56062 19.875 9.25 19.875H10.5C11.1894 19.875 11.75 19.3144 11.75 18.625H20.5C20.845 18.625 21.125 18.3456 21.125 18C21.125 17.6544 20.845 17.375 20.5 17.375Z"></path>
  </symbol>
  <symbol xmlns="http://www.w3.org/2000/svg" viewBox="0 0 26 26" id="like-fill">
    <path d="M13 20.5C12.7437 20.5 12.4967 20.413 12.3042 20.2551C11.577 19.6595 10.8759 19.0998 10.2574 18.6062L10.2542 18.6036C8.44082 17.1561 6.87486 15.906 5.78529 14.6747C4.56732 13.298 4.00002 11.9928 4.00002 10.5669C4.00002 9.18157 4.50717 7.90348 5.42796 6.96794C6.35974 6.02134 7.63827 5.5 9.02845 5.5C10.0675 5.5 11.019 5.80769 11.8566 6.41444C12.2793 6.72071 12.6624 7.09555 13 7.53277C13.3377 7.09555 13.7207 6.72071 14.1435 6.41444C14.9811 5.80769 15.9327 5.5 16.9717 5.5C18.3617 5.5 19.6404 6.02134 20.5722 6.96794C21.493 7.90348 22 9.18157 22 10.5669C22 11.9928 21.4328 13.298 20.2148 14.6745C19.1253 15.906 17.5595 17.156 15.7463 18.6033C15.1267 19.0978 14.4245 19.6584 13.6957 20.2553C13.5033 20.413 13.2561 20.5 13 20.5Z"></path>
  </symbol>
  <symbol xmlns="http://www.w3.org/2000/svg" viewBox="0 0 26 26" id="like-outline">
    <path d="M13 20.5C12.7437 20.5 12.4967 20.413 12.3042 20.2551C11.577 19.6595 10.8759 19.0998 10.2574 18.6062L10.2542 18.6036C8.44081 17.1561 6.87485 15.906 5.78528 14.6747C4.56731 13.298 4 11.9928 4 10.5669C4 9.18157 4.50716 7.90348 5.42795 6.96794C6.35973 6.02134 7.63826 5.5 9.02844 5.5C10.0675 5.5 11.019 5.80769 11.8566 6.41444C12.2793 6.72071 12.6624 7.09555 13 7.53277C13.3377 7.09555 13.7207 6.72071 14.1435 6.41444C14.9811 5.80769 15.9327 5.5 16.9717 5.5C18.3617 5.5 19.6404 6.02134 20.5722 6.96794C21.493 7.90348 22 9.18157 22 10.5669C22 11.9928 21.4328 13.298 20.2149 14.6745C19.1253 15.906 17.5595 17.156 15.7463 18.6033C15.1267 19.0978 14.4245 19.6584 13.6957 20.2553C13.5033 20.413 13.2561 20.5 13 20.5V20.5ZM9.02844 6.48763C7.93626 6.48763 6.93294 6.89591 6.20303 7.63734C5.46228 8.38997 5.05428 9.43034 5.05428 10.5669C5.05428 11.7662 5.53012 12.8387 6.59703 14.0445C7.62823 15.21 9.16206 16.4343 10.938 17.852L10.9413 17.8546C11.5622 18.3502 12.266 18.912 12.9985 19.512C13.7354 18.9109 14.4403 18.3481 15.0624 17.8517C16.8382 16.4341 18.3719 15.21 19.4031 14.0445C20.4699 12.8387 20.9457 11.7662 20.9457 10.5669C20.9457 9.43034 20.5377 8.38997 19.797 7.63734C19.0672 6.89591 18.0637 6.48763 16.9717 6.48763C16.1716 6.48763 15.437 6.72586 14.7884 7.19562C14.2104 7.61445 13.8078 8.1439 13.5717 8.51436C13.4503 8.70486 13.2366 8.81857 13 8.81857C12.7634 8.81857 12.5497 8.70486 12.4283 8.51436C12.1924 8.1439 11.7897 7.61445 11.2116 7.19562C10.563 6.72586 9.82838 6.48763 9.02844 6.48763V6.48763Z"></path>
  </symbol>
  <symbol xmlns="http://www.w3.org/2000/svg" viewBox="0 0 26 26" id="phone-type-1">
    <path d="M19.9676 15.8671C19.4762 15.3555 18.8836 15.082 18.2555 15.082C17.6324 15.082 17.0347 15.3505 16.5231 15.8621L14.9225 17.4577C14.7908 17.3868 14.6591 17.3209 14.5324 17.2551C14.3501 17.1639 14.1779 17.0778 14.031 16.9866C12.5316 16.0343 11.169 14.7933 9.86217 13.1876C9.229 12.3872 8.80351 11.7135 8.49452 11.0297C8.90988 10.6498 9.29485 10.2547 9.66969 9.87481C9.81152 9.73298 9.95335 9.5861 10.0952 9.44427C11.1589 8.38054 11.1589 7.00276 10.0952 5.93903L8.71233 4.55619C8.55531 4.39916 8.39321 4.23707 8.24125 4.07498C7.93733 3.76093 7.61821 3.43674 7.28896 3.13282C6.79762 2.64655 6.21004 2.38821 5.59207 2.38821C4.97409 2.38821 4.37638 2.64655 3.86984 3.13282C3.86478 3.13789 3.86478 3.13789 3.85971 3.14295L2.13749 4.88037C1.48912 5.52874 1.11935 6.31894 1.0383 7.23577C0.916732 8.71485 1.35235 10.0926 1.68667 10.9943C2.50726 13.2078 3.73308 15.2593 5.56168 17.4577C7.78031 20.1069 10.4497 22.1989 13.4991 23.6729C14.6641 24.225 16.2192 24.8784 17.9566 24.9899C18.063 24.9949 18.1744 25 18.2757 25C19.4458 25 20.4285 24.5796 21.1984 23.7438C21.2035 23.7337 21.2136 23.7286 21.2187 23.7185C21.4821 23.3993 21.786 23.1106 22.1051 22.8016C22.323 22.594 22.5458 22.3761 22.7636 22.1482C23.2651 21.6265 23.5285 21.0186 23.5285 20.3956C23.5285 19.7675 23.26 19.1647 22.7484 18.6582L19.9676 15.8671ZM21.781 21.201C21.7759 21.201 21.7759 21.206 21.781 21.201C21.5834 21.4137 21.3808 21.6062 21.163 21.819C20.8337 22.133 20.4994 22.4623 20.1854 22.832C19.6738 23.3791 19.071 23.6374 18.2808 23.6374C18.2048 23.6374 18.1238 23.6374 18.0478 23.6324C16.5434 23.5361 15.1453 22.9485 14.0968 22.4471C11.2298 21.0591 8.71233 19.0887 6.62034 16.5915C4.89305 14.5096 3.73814 12.5848 2.97327 10.5181C2.5022 9.25684 2.32997 8.27417 2.40595 7.34721C2.45661 6.75456 2.68455 6.26322 3.10497 5.84279L4.83226 4.1155C5.08047 3.8825 5.34387 3.75586 5.6022 3.75586C5.92132 3.75586 6.17965 3.94835 6.34174 4.11044C6.34681 4.1155 6.35187 4.12057 6.35694 4.12563C6.66592 4.41436 6.95972 4.71322 7.2687 5.03233C7.42573 5.19443 7.58782 5.35652 7.74991 5.52367L9.13276 6.90652C9.66969 7.44345 9.66969 7.93985 9.13276 8.47678C8.98586 8.62368 8.84403 8.77057 8.69714 8.9124C8.27165 9.34802 7.86642 9.75324 7.42573 10.1483C7.4156 10.1585 7.40547 10.1635 7.4004 10.1737C6.96478 10.6093 7.04583 11.0348 7.137 11.3235C7.14207 11.3387 7.14713 11.3539 7.1522 11.3691C7.51184 12.2403 8.01838 13.0609 8.78831 14.0386L8.79338 14.0436C10.1914 15.7658 11.6654 17.1082 13.2914 18.1364C13.4991 18.2681 13.7118 18.3745 13.9145 18.4758C14.0968 18.567 14.269 18.6531 14.4159 18.7443C14.4362 18.7544 14.4564 18.7696 14.4767 18.7797C14.6489 18.8658 14.811 18.9064 14.9782 18.9064C15.3986 18.9064 15.662 18.643 15.7481 18.5569L17.4805 16.8245C17.6527 16.6523 17.9262 16.4446 18.2453 16.4446C18.5594 16.4446 18.8177 16.6421 18.9747 16.8144C18.9798 16.8194 18.9798 16.8194 18.9849 16.8245L21.7759 19.6155C22.2976 20.1322 22.2976 20.664 21.781 21.201Z"></path>
    <path d="M13.9702 6.70897C15.2973 6.93185 16.5029 7.55995 17.4653 8.52237C18.4277 9.48479 19.0507 10.6903 19.2787 12.0175C19.3344 12.3518 19.6231 12.5848 19.9524 12.5848C19.9929 12.5848 20.0283 12.5797 20.0689 12.5747C20.4437 12.5139 20.6919 12.1593 20.6311 11.7845C20.3576 10.1787 19.5978 8.71485 18.4378 7.55489C17.2779 6.39492 15.814 5.63511 14.2082 5.36158C13.8334 5.3008 13.4839 5.549 13.418 5.91877C13.3522 6.28855 13.5953 6.64819 13.9702 6.70897Z"></path>
    <path d="M24.9721 11.5869C24.5213 8.9428 23.2752 6.53675 21.3605 4.62204C19.4458 2.70733 17.0398 1.46125 14.3957 1.01043C14.0259 0.94458 13.6764 1.19785 13.6105 1.56762C13.5497 1.94246 13.7979 2.29197 14.1728 2.35782C16.5332 2.75799 18.686 3.87742 20.3981 5.58446C22.1102 7.29655 23.2246 9.44933 23.6248 11.8098C23.6805 12.1441 23.9692 12.3771 24.2984 12.3771C24.339 12.3771 24.3744 12.372 24.415 12.367C24.7847 12.3113 25.038 11.9567 24.9721 11.5869Z"></path>
  </symbol>
  <symbol xmlns="http://www.w3.org/2000/svg" viewBox="0 0 26 26" id="phone-type-2">
    <path d="M1.65539 11.1808C1.23139 10.0355 0.924356 8.86589 1.01695 7.62313C1.07544 6.85799 1.36297 6.20494 1.92343 5.66885C2.53262 5.09377 3.1077 4.48945 3.70714 3.90463C4.48691 3.13461 5.46649 3.13949 6.24625 3.90463C6.72873 4.37736 7.20634 4.85984 7.68395 5.34232C8.14693 5.80531 8.61479 6.26829 9.07778 6.73615C9.89166 7.55978 9.89653 8.51987 9.08265 9.33862C8.49783 9.92344 7.91787 10.5131 7.3233 11.0882C7.16735 11.2393 7.15273 11.366 7.23558 11.5561C7.62546 12.4918 8.19079 13.3252 8.82435 14.1049C10.1012 15.6742 11.5438 17.068 13.2641 18.1451C13.6345 18.3741 14.039 18.5447 14.424 18.7543C14.6239 18.8615 14.7554 18.8274 14.9163 18.6617C15.4962 18.0622 16.0908 17.4725 16.6854 16.8828C17.4651 16.1128 18.4398 16.108 19.2196 16.8828C20.1748 17.8283 21.1251 18.7786 22.0706 19.7339C22.865 20.5331 22.8601 21.5127 22.0609 22.3168C21.5199 22.8627 20.9497 23.3793 20.4429 23.9495C19.7021 24.778 18.7664 25.0509 17.7039 24.9924C16.1541 24.9096 14.7262 24.393 13.347 23.7253C10.2864 22.2389 7.6742 20.1774 5.48598 17.5749C3.86797 15.645 2.53262 13.5493 1.65539 11.1808ZM24.9996 12.9255C24.9996 6.35114 19.6485 1 13.0741 1V3.27107C18.396 3.27107 22.7285 7.60364 22.7285 12.9255H24.9996ZM18.4691 12.9255H20.7401C20.7401 8.70019 17.2994 5.25947 13.0741 5.25947V7.53054C14.5166 7.53054 15.8715 8.09099 16.89 9.10956C17.9086 10.1281 18.4691 11.483 18.4691 12.9255Z"></path>
  </symbol>
  <symbol xmlns="http://www.w3.org/2000/svg" viewBox="0 0 26 26" id="sc-facebook">
    <path d="M16.641 5.12828L14.7521 5.125C12.63 5.125 11.2587 6.64637 11.2587 9.0011C11.2587 9.98811 10.4585 10.7882 9.47152 10.7882H9.3595C9.19539 10.7882 9.0625 10.9321 9.0625 11.1096V13.6989C9.0625 13.8764 9.19555 14.0201 9.3595 14.0201C10.4084 14.0201 11.2587 14.8703 11.2587 15.9192V20.5538C11.2587 20.7313 11.3916 20.875 11.5557 20.875H14.0335C14.1976 20.875 14.3305 20.7311 14.3305 20.5538V16.2406C14.3305 15.0142 15.3247 14.0201 16.5511 14.0201C16.7152 14.0201 16.8481 13.8764 16.8481 13.6989L16.849 11.1096C16.849 11.0243 16.8176 10.9427 16.762 10.8825C16.7064 10.8222 16.6306 10.7882 16.5518 10.7882H15.8455C15.0088 10.7882 14.3305 10.11 14.3305 9.27325C14.3305 8.54509 14.491 8.17544 15.3682 8.17544L16.6406 8.17495C16.8046 8.17495 16.9375 8.03109 16.9375 7.8538V5.44943C16.9375 5.2723 16.8048 5.1286 16.641 5.12828Z"></path>
  </symbol>
  <symbol xmlns="http://www.w3.org/2000/svg" viewBox="0 0 26 26" id="sc-instagram">
    <path d="M18.6 6H7.4C6.63 6 6 6.63 6 7.4V18.6C6 19.37 6.63 20 7.4 20H18.6C19.37 20 20 19.37 20 18.6V7.4C20 6.63 19.37 6 18.6 6ZM13 10.2C14.54 10.2 15.8 11.46 15.8 13C15.8 14.54 14.54 15.8 13 15.8C11.46 15.8 10.2 14.54 10.2 13C10.2 11.46 11.46 10.2 13 10.2ZM7.75 18.6C7.54 18.6 7.4 18.46 7.4 18.25V12.9157C7.4 12.5757 7.67567 12.3 8.01573 12.3H8.16359C8.51112 12.3 8.8 12.6525 8.8 13C8.8 15.31 10.69 17.2 13 17.2C15.31 17.2 17.2 15.31 17.2 13C17.2 12.6525 17.4889 12.3 17.8364 12.3H17.9843C18.3243 12.3 18.6 12.5757 18.6 12.9157V18.25C18.6 18.46 18.46 18.6 18.25 18.6H7.75ZM18.6 9.15C18.6 9.36 18.46 9.5 18.25 9.5H16.85C16.64 9.5 16.5 9.36 16.5 9.15V7.75C16.5 7.54 16.64 7.4 16.85 7.4H18.25C18.46 7.4 18.6 7.54 18.6 7.75V9.15Z"></path>
  </symbol>
  <symbol xmlns="http://www.w3.org/2000/svg" viewBox="0 0 26 26" id="sc-telegram">
    <path d="M11.9417 14.516C11.4136 14.9712 11.0879 15.6176 11.0364 16.3129L10.8954 18.2169C10.8587 18.713 11.276 19.1031 11.636 18.7598C12.7699 17.7196 14.4749 17.609 15.7336 18.4939L17.6015 19.807C18.3394 20.2018 18.8593 19.9939 19.0584 19.1553L21.6994 7.27547C21.6995 7.27515 21.6996 7.27486 21.6999 7.27463C21.7001 7.2744 21.7003 7.27409 21.7003 7.27377C21.9341 6.22695 21.3056 5.81763 20.5868 6.07448L5.06244 11.7802C4.00294 12.175 4.01898 12.7419 4.88233 12.9988L6.73734 13.5527C8.084 13.9548 9.53772 13.7716 10.7425 13.0479L18.0704 8.64627C18.5042 8.37047 18.8987 8.52307 18.5742 8.79887L11.9417 14.516Z"></path>
  </symbol>
  <symbol xmlns="http://www.w3.org/2000/svg" viewBox="0 0 26 26" id="sc-viber">
    <path fill-rule="evenodd" clip-rule="evenodd" d="M18.5731 6.75753C19.626 7.81028 20.2056 9.20465 20.2056 10.684L20.2058 13.2729C20.2058 14.7522 19.626 16.1466 18.5732 17.1993C17.5205 18.252 16.1261 18.8317 14.6469 18.8317L14.3972 18.8318C13.0712 18.8318 11.7996 19.3586 10.8619 20.2962L10.6695 20.4887C10.4131 20.745 10.1497 20.875 9.88628 20.875C9.51762 20.875 9.08707 20.6021 9.08707 19.8332V19.8332C9.08707 18.9283 8.52554 18.1397 7.8272 17.5643C7.44164 17.2466 7.09784 16.876 6.80482 16.4597C6.14368 15.5204 5.79425 14.4185 5.79425 13.2729V10.6839C5.79425 9.20465 6.37403 7.81028 7.42678 6.75753C8.47941 5.70479 9.8739 5.125 11.353 5.125H12.9999H14.6468C16.126 5.125 17.5204 5.70479 18.5731 6.75753ZM17.4168 12.0428C17.4168 12.2976 17.6234 12.5043 17.8782 12.5043C18.1331 12.5043 18.3397 12.2976 18.3397 12.0428C18.3398 10.7403 17.8325 9.51569 16.9114 8.59464C15.9904 7.67359 14.7658 7.16638 13.4632 7.16638C13.2083 7.16638 13.0018 7.37294 13.0018 7.62781C13.0018 7.88255 13.2083 8.08923 13.4632 8.08923C14.5193 8.08923 15.5121 8.50043 16.2589 9.24712C17.0056 9.99394 17.4168 10.9867 17.4168 12.0428ZM15.4399 12.0427C15.4399 12.2975 15.6466 12.5041 15.9013 12.5041C16.1562 12.5041 16.3627 12.2975 16.3627 12.0427C16.3627 10.4439 15.0621 9.1433 13.4632 9.1433C13.2083 9.1433 13.0018 9.34998 13.0018 9.60472C13.0018 9.85959 13.2083 10.0661 13.4632 10.0661C14.5532 10.0661 15.4399 10.9528 15.4399 12.0427ZM15.6746 15.0708C15.8531 14.8907 15.853 14.6001 15.674 14.4204L14.5783 13.3246C14.3983 13.1452 14.1072 13.1447 13.9269 13.3238L13.9258 13.3246V13.3246C13.72 13.5304 13.3862 13.5304 13.1804 13.3245L13.0018 13.1459L11.83 11.9741C11.6236 11.7677 11.6236 11.4331 11.83 11.2267V11.2267C12.0088 11.0466 12.0088 10.7559 11.8296 10.576L10.7341 9.48035C10.5545 9.30139 10.2638 9.30035 10.0835 9.47842C10.0829 9.47906 10.0821 9.47958 10.0815 9.48023V9.48023L9.18469 10.3772C8.70416 10.8578 8.70416 11.644 9.18469 12.1247L13.0288 15.969C13.5095 16.4496 14.2957 16.4494 14.7762 15.969L15.6746 15.0708Z"></path>
  </symbol>
  <symbol xmlns="http://www.w3.org/2000/svg" viewBox="0 0 26 26" id="sc-whatsapp">
    <path d="M13.0022 4H12.9978C8.03538 4 4 8.0365 4 13C4 14.9688 4.6345 16.7935 5.71338 18.2751L4.59175 21.6186L8.05113 20.5128C9.47425 21.4555 11.1719 22 13.0022 22C17.9646 22 22 17.9624 22 13C22 8.03763 17.9646 4 13.0022 4ZM18.2391 16.7091C18.022 17.3222 17.1602 17.8307 16.4729 17.9792C16.0026 18.0794 15.3884 18.1593 13.3206 17.302C10.6757 16.2063 8.9725 13.5186 8.83975 13.3442C8.71263 13.1699 7.771 11.9211 7.771 10.6296C7.771 9.33813 8.42688 8.70925 8.69125 8.43925C8.90838 8.21763 9.26725 8.11637 9.6115 8.11637C9.72287 8.11637 9.823 8.122 9.913 8.1265C10.1774 8.13775 10.3101 8.1535 10.4845 8.57088C10.7016 9.094 11.2304 10.3855 11.2934 10.5183C11.3575 10.651 11.4216 10.831 11.3316 11.0054C11.2473 11.1854 11.173 11.2652 11.0402 11.4182C10.9075 11.5712 10.7815 11.6883 10.6487 11.8525C10.5272 11.9954 10.39 12.1484 10.543 12.4128C10.696 12.6715 11.2247 13.5344 12.0032 14.2274C13.0079 15.1217 13.8224 15.4075 14.1137 15.529C14.3309 15.619 14.5896 15.5976 14.7482 15.4289C14.9496 15.2118 15.1982 14.8518 15.4514 14.4974C15.6314 14.2431 15.8586 14.2116 16.0971 14.3016C16.3401 14.386 17.626 15.0216 17.8904 15.1532C18.1548 15.286 18.3291 15.349 18.3932 15.4604C18.4562 15.5718 18.4562 16.0949 18.2391 16.7091Z"></path>
  </symbol>
</svg>